/* XPM */
static char *_3b060f2cd4a44bacec7711053f5d3a5Z8wJaGeysJwjT5CN[] = {
/* columns rows colors chars-per-pixel */
"64 64 38 1 ",
"  c black",
". c #0022CD",
"X c #000433",
"o c #3485FF",
"O c gray80",
"+ c #0173FF",
"@ c #CCD0FF",
"# c #0113FF",
"$ c #6779FF",
"% c #99A1FF",
"& c gray20",
"* c #003A66",
"= c #000766",
"- c #004DCD",
"; c gray40",
": c #00332F",
"> c #6671FF",
", c #34A7FF",
"< c #003D9A",
"1 c #67A4FF",
"2 c #000B99",
"3 c #0012FF",
"4 c gray60",
"5 c #3342FF",
"6 c #000ECC",
"7 c #333000",
"8 c #01A2FF",
"9 c white",
"0 c #CCFFFB",
"q c #000B9A",
"w c #0166FF",
"e c #0073CC",
"r c #D9FFCC",
"t c #99D3FF",
"y c #33A6FF",
"u c #999000",
"i c #FFF000",
"p c #0B9900",
/* pixels */
"                                            .X                  ",
"                                            o                   ",
"                                           O+@#$oo%             ",
"                                           o+oo$&               ",
"      X*X         X=X         X*X         X@-;       $oo.o:     ",
"     == ==       == ==       == ==       ==>,=       o$<1+      ",
"    X=   =X     X=   =X     X=   =X     X= %o2X        %+@      ",
"    =X = X=     =X = X=     =X = X=     =X %o==;3>3    o$44     ",
"    X=   =X     X=   =X     X=   =X     X= @.$o,.oo 5$oo.oo;    ",
"     == ==       == ==       == ==       == 5#3      34==       ",
"      X=6         X=X         X=X         X=X        =X=X=X     ",
"        ,7             2226                                     ",
"        #&             8.##                                     ",
"        $7                                                      ",
"   &7&79o9@0$$o$%;              .X                              ",
"   @$ooooo,oo,$$o@     XX#5    5.                               ",
"     & 9#&7  9%$@ X*X .8.q2   .8X    X     *X         X=X       ",
"      =@$7  9$$& == == 3     #+$= w#..5   ===        == ==      ",
"       9o& %$9& X=   =X     .8e=X8..-86    =X       X=   =X     ",
"       @$@;     =X = X=   #..  ==   #-     ==    r; =X = X=     ",
"       @#&   OO&X=   =X$...>   *X  5.55    *X   >$$ X=   =X     ",
"       =1o$,$,$$&== ==  >      =+...#w55   ==  O$$9  == ==      ",
"     =X=5$#3;4    X=X        =X=X=X      =X=X=$$o;    X=X       ",
"                                            O%%;$@              ",
"                                            &&  5@              ",
"                                                $%  O>          ",
"                                            4O4>o1%%$$4         ",
"                                           $$$@t$$>&            ",
"       *X         X*X         X*X         X@2   5$&   y$>%%u    ",
"      ===        == ==       == ==       == ==  $$u  =@4%@$&    ",
"       =X       X=   =X     X=   =X     X=   =X $%& X=   %%     ",
"       ==       =X = X=     =X = X=     =X = X=u,O  =%%$,o$$%   ",
"       =X       X=   =X     X=   =X     X=   =X@%   X@$9O@X u   ",
"       ==        == ==       == ==       == == r     == ==      ",
"     =X=X=X       X=X         X=X         X=X         X=X       ",
"                                                                ",
"                             .q<=                               ",
"                               qqqq                             ",
"        o%50                                                    ",
"        &&@%,$i                                                 ",
"       =X  u&2&    *X       ==q=X          *X         X=X       ",
"      ===         ===       q++q.q        ===        == ==      ",
"       t%>p        =X       X=  q8=        =X       X=   =X     ",
"       @,o$y4      ==       =X = X=        ==       =X = X=     ",
"       *X u@54     *X       X=   =X        =X       X=   =X     ",
"       ==          ==       q++q==         ==        == ==      ",
"     =X5#5X      =X=X=X       =.+-       =X=X=X       X=X       ",
"       $oot;&                                                   ",
"         4>%#                                                   ",
"            i                                                   ",
"                                                                ",
"                                                                ",
"      X*X         X=X          *X         X*X         X*X       ",
"     == ==       == ==        ===        == ==       == ==      ",
"    X=   =X     X=   =X        =X       X=   =X     X=   =X     ",
"    =X = X=     =X = X=  ======..####-##.X = X=     =X = X=     ",
"    X=   =X     X=   =X  2.8..-$#q=*X==8.=   =X     X=   =X     ",
"     == ==       == ==         ==      ..== ==       == ==      ",
"      X=X         X=X        =X=+=X   q+  X=X         X=X       ",
"                                .    6.6                        ",
"                                .    ..                         ",
"                                .  3.3                          ",
"                                .X                              ",
"                               6.                               "
};
