/* XPM */
static char *e091e87495534f1a99188da6ce9315967MprtkdfRla04FeY[] = {
/* columns rows colors chars-per-pixel */
"64 64 171 2 ",
"   c #05375B",
".  c #033A5C",
"X  c #0B3B5E",
"o  c #063E62",
"O  c #0A3D63",
"+  c #0D3F69",
"@  c #103E66",
"#  c #123F6B",
"$  c #02415E",
"%  c #044363",
"&  c #0C4366",
"*  c #054867",
"=  c #084867",
"-  c #074669",
";  c #0C4269",
":  c #054E6D",
">  c #0C496C",
",  c #114066",
"<  c #154A67",
"1  c #12416C",
"2  c #124A6D",
"3  c #184A6E",
"4  c #06516E",
"5  c #0A526F",
"6  c #094771",
"7  c #074F70",
"8  c #0E4D74",
"9  c #0F4E78",
"0  c #134270",
"q  c #144E73",
"w  c #184E74",
"e  c #114F79",
"r  c #065372",
"t  c #0B5275",
"y  c #075A77",
"u  c #095A76",
"i  c #0D5479",
"p  c #055E7B",
"a  c #075E7A",
"s  c #065E7B",
"d  c #075E7B",
"f  c #065F7B",
"g  c #065D7A",
"h  c #055D7C",
"j  c #075C7D",
"k  c #075D7D",
"l  c #055E7D",
"z  c #075E7C",
"x  c #065F7C",
"c  c #075F7C",
"v  c #075E7D",
"b  c #075E7E",
"n  c #075D7B",
"m  c #085D7B",
"M  c #085E7A",
"N  c #085F7B",
"B  c #0A5E7A",
"V  c #0A5E7B",
"C  c #0A5F7B",
"Z  c #085E7C",
"A  c #085F7C",
"S  c #095F7C",
"D  c #095F7D",
"F  c #0A5F7C",
"G  c #0A5E7D",
"H  c #0A5F7D",
"J  c #0B5F7D",
"K  c #095E7F",
"L  c #095F7F",
"P  c #0A5F7E",
"I  c #0A5D7B",
"U  c #125072",
"Y  c #135072",
"T  c #125172",
"R  c #125074",
"E  c #135074",
"W  c #105077",
"Q  c #145174",
"!  c #145075",
"~  c #155075",
"^  c #145175",
"/  c #155175",
"(  c #145076",
")  c #145077",
"_  c #145177",
"`  c #145074",
"'  c #185074",
"]  c #105078",
"[  c #105E7E",
"{  c #06607D",
"}  c #08617B",
"|  c #0A617B",
" . c #09607C",
".. c #08617C",
"X. c #09607D",
"o. c #0A607C",
"O. c #0A617C",
"+. c #0A607D",
"@. c #0A617D",
"#. c #09627C",
"$. c #08607E",
"%. c #09607E",
"&. c #0A607E",
"*. c #0C617C",
"=. c #0A607D",
"-. c #075C84",
";. c #075D86",
":. c #095B83",
">. c #085C83",
",. c #095D83",
"<. c #095F83",
"1. c #095B84",
"2. c #095D85",
"3. c #085F87",
"4. c #0A5F86",
"5. c #0B5E84",
"6. c #075F89",
"7. c #085E88",
"8. c #095F88",
"9. c #095F8A",
"0. c #096083",
"q. c #086084",
"w. c #096084",
"e. c #096185",
"r. c #0A6184",
"t. c #096285",
"y. c #0A6285",
"u. c #096186",
"i. c #096087",
"p. c #096187",
"a. c #086286",
"s. c #0B6384",
"d. c #076A87",
"f. c #0A6986",
"g. c #096188",
"h. c #086189",
"j. c #0F668D",
"k. c #0F658E",
"l. c #0F678E",
"z. c #0C658B",
"x. c #0B6A8B",
"c. c #116589",
"v. c #126688",
"b. c #10658A",
"n. c #10658C",
"m. c #10658D",
"M. c #12658D",
"N. c #11668D",
"B. c #12668D",
"V. c #10658E",
"C. c #12658E",
"Z. c #11678E",
"A. c #11678F",
"S. c #11668E",
"D. c #12668E",
"F. c #11668E",
"G. c #12698C",
"H. c #11688F",
"J. c #12688F",
"K. c #13698E",
"L. c #13688D",
"P. c #036F92",
"I. c #0D6C90",
"U. c #116890",
"Y. c #067296",
"T. c #0A7295",
"R. c #067299",
"E. c #0C7399",
"W. c #0E799E",
"Q. c #0C7EA6",
"!. c #0C7EA8",
/* pixels */
"q q q q 6 v.C.C.C.C.K.C.C.K.U.K.U.K.j.K.K.8 q ] ~ ~ R R q q q q q q q T q R 6 v.z.C.C.j.j.j.C.j.j.j.K.j.C.C.K.8 R R T q T T q q ",
"q q q q > F F F F F g g g l l F g } l +.F 7 q ~ ~ ~ ~ ~ q 8 q q q q q q q 2 < V +.F F <.F F g { } +.F F F F +.: ] q q T q 8 2 q ",
"e q q q > V F +.F } | { { { +.| { { +.+.+.- 1 q q q q q q q w q q q q q q Q > M M M F F F F +.+.+.+.F F M | +.* > q q ' q q T R ",
"3 < < < & t r r r r 4 r r r r r r r r r r o . % & q 2 < 2 < q < < < < 3 < < % t t t r t r r r r r r r r t r r o . X & < 2 < 2 2 ",
"2.<.<.:.:.2.s.a.h.6.q.; o O + & O O O O O O O O O O O & <.a.s.a.a.2.7.2.g.2.-.1.2.a.a.a.h.- O O O ; O o O O O o O O O O O - ;.a.",
"g g l l l g y | g g h & + 1 1 1 1 1 1 1 # 1 ; ; 1 1 1 ; M g | u l l M M l M l l F g u g l ; ; # 1 1 1 # ; 1 1 # 1 1 1 1 1 ; g g ",
"s.s.M } s.| *.*.*.M M > ; 1 1 1 # # 1 1 1 1 1 1 1 1 1 - M *.[ *.| M *.v.*.*.s.| V V V M F ; 1 1 1 0 1 1 1 1 1 1 1 # 1 1 1 - | | ",
"M g g y y u u u u u u & ; 1 1 1 1 1 1 1 # 1 1 1 1 1 ; - u u u u u u u M M u u u i B u K u ; + ; 1 1 ; # # 1 ; # 1 1 1 1 1 - u u ",
"% % & % % o 9 t t 8 t t 8 t R i i 9 9 ] R ; & & & & & % % & % & - % & % % & o $ 8 t t t t 8 9 8 e t e t 8 R 8 > O ; ; > O ; O ; ",
"q q q q > K T.v.x.x.z.z.z.z.z.z.f.s.f.r.f.6 q Q q Q q q Q Q ~ q ' Q Q q q Q > <.T.s.s.f.f.f.d.x.f.x.f.f.x.f.f.> q q q q q q q q ",
"q q q q 6 j.r.J V J J F F | | M s.F | | *.> q Q q q q q q q q q 2 q q q q T 6 I.s.M { } M +.+.M | M | } | g | > q q q q q q q q ",
"~ q q q > u u M M u M u u u M u u M u u r % q q w q w q Q q ~ q q q w q q ~ > u u y u M M u M M u M u | u u r & q ' q ' q q q q ",
"& , , > O % % % % % % % % % % % $ % % % %   & , < ; + 1 1 & , & ; & , , = = o % % % % * % % % % % o . % % % o . & , , & 1 & 1 & ",
"1 1 1 1 0 1 0 2 < 1 1 1 1 1 1 O z.E.E.E.E.E.E.E.E.E.E.E.E.E.E.E.E.> 1 1 1 < < 1 1 1 1 1 # 6 1 1 1 O j.E.E.E.R.E.E.E.E.E.E.E.E.E.",
"1 , , 1 1 1 1 1 1 1 # 1 1 1 # O t | M J F M F F V M M M M y u M u & 1 1 1 1 1 1 1 1 1 1 1 1 1 1 1 O u M F g F l M F M F M F M M ",
"1 ; 1 1 1 1 # # ; # 1 1 1 1 1 O t M V M M u u u V V V u F u M M M - , 1 # 1 # 1 0 1 ; 1 # 1 1 ; ; O t M M M M u y y F M F M u u ",
"; ; ; ; + + + + O @ & ; + & ; o * : : : : : : 7 7 : : : : 7 r : : o ; + ; + + ; # ; @ & ; ; + ; & O * : 7 : : : r : : 4 4 : : r ",
"j.z.j.j.j.x.j.i   o O & 2 2 2 2 2 > > 2 q 2 > 3 2 < > - a.x.x.x.x.x.j.x.x.x.j.x.j.]   O o & 2 < 2 2 2 2 < 3 > 2 2 2 q 2 ; - :.x.",
"Y.Y.R.Y.E.R.Y.s.< q w w q q q q T q q t q q q q ~ q 2 :.Y.Y.Y.P.P.P.P.T.R.Y.T.Y.P.<.> Q q q q q q q q q q q ~ q q T Q q q 0.T.T.",
"R.R.Y.R.R.R.R.r.> q q q q 2 q q q q q q q q q q q ~ > <.Y.R.R.Y.R.R.R.R.R.R.R.R.R.r.< Q 3 q ~ ~ q q q q q q q q q q q q 2 :.Y.R.",
"x.x.x.x.x.x.x.:.2 ' ~ q q q ' q q q ~ q q q q q q w < i s.x.x.d.x.x.x.x.j.x.x.x.j.:.3 ~ ' w ' ) ~ q q w w ~ q q q w w w 1 i d.x.",
"h.7.h.7.7.7.g.7.7.7.7.: . o 5.7.2.:.> O o O O O O O X O O o O O O - 6.6.7.2.h.a.g.2.a.a.i.*   . :.a.s.:.6 O + O O O + + O o O O ",
"l l M M M l F u u g M E.!.Q.F y g u = 1 , 1 1 # 1 0 1 0 1 1 # # < - l j J M u V M M M M g E.!.W.+.F l i > 1 # # # 0 # 0 0 # 1 # ",
"V | | +.M M F +.M *.*.V u B *.J *.u = 1 1 1 , 1 2 1 1 1 1 1 1 1 # = J F J J J V V V +.J F M l F F *.J B - < ; + 1 # 0 ; 0 1 1 0 ",
"V u u u u u u u | u u u y u u M u y % O ; 1 1 1 1 # O 1 1 , ; 1 ; - u M u y y u u y g y y u i u u y y t % O & 1 1 0 1 + + # 1 # ",
"t 8 t t t % & % % % % & % ; % - - ; o O O O > e q i e e 9 q e 8 9 8 8 t 8 t i % % & % & % % - O - - - o O O O ; > e 9 q 9 8 9 9 ",
"f.z.s.x.j.= q q q Q Q 3 q q q q q q q q q q [ x.x.x.f.x.x.z.z.x.f.x.s.f.f.z.z.% ) w q q q q e q q q q q q q q 2 J z.f.f.d.f.x.s.",
"J J F F :.% w q q q ~ ~ e w w q e e w q q 3 t J J :.J :.0.0.+.F <.+.+.+.V J *.% ) q q q w w q q q q q q q q ' 2 i J J +.+.{ 0.+.",
"V V M u 5 . q q q q q q q q q R q q q q q 2 5 *.J J F F s.*.+.+.*.M M M | u 4 . q q q Q Q Q Q ~ ) ~ R ] R R ~ < t | <.F +.+.*.*.",
"% % % $ . . & & & & ; ; - ; & & & ; & O , X . $ % % % % % % % % % % % o % % . . ; ; & & & & & & 1 , & & & & & X . $ % % % % % % ",
"q Q q Q T Q q Q ~ q q O   <.T.T.E.E.E.E.T.Y.Y.E.E.R.E.I.T.E.t ~ q q q q q w ~ R q q q q q & . 0.E.E.E.E.E.E.E.E.E.E.E.E.E.E.R.E.",
"q 2 3 q Q q q q q q q q < t u } M F j l s.s.s.+.F F F s.+.<.= q q q q q w q q ~ q q q q q q 1 5 V V M F | +.[ *.V V F F F +.+.+.",
"q q q q 2 ' Q Q q q ~ q < t M | u | M *.:.M F F M +.+.s.F J - q Q q q q q q q q R R ~ q q q 3 t | M u } | M 0.| } V V *.r.0.+.*.",
"1 q 2 2 > 2 > 8 > 8 q > 2 = : : 4 : 4 : : : : 7 : : : : : : o 2 2 2 2 2 6 3 2 > 2 2 q q q 2 1 = 4 4 4 : 4 : : : : : : : : : 7 : ",
"q q q q > G.j.C.C.C.C.C.C.C.U.U.G.C.C.C.L.T R R ~ T R ~ Q q q q q q q q q q 6 v.z.C.k.j.k.j.i.C.C.C.z.K.j.C.v.q q R R ^ T T q q ",
"q q q q > | #.+.+.*.+.+.+.+.+.*.F | <.+.+.: R R ~ ~ ~ ~ Q q q q q q q q q T 1 J +.+.<.F F l *.+.s.+.+.+.s.+.+.: q R ] ) R 8 q q ",
"q q q q > J *.+.+.+.+.| +.+.+.+.F | +.| +.= > 3 Q q q q q q q q ~ ~ q q q T > +.F F +.F F F +.F | +.s.| F { +.= & q ~ q q q q 8 ",
"3 2 < 2 & t i t u u u t y r u u t y r u t %   % 2 3 q q 3 q 3 3 3 < 3 3 3 3 & t u u y y y y y y t u r y r y t O   % < q q 3 q 3 ",
"a.a.a.2.:.:.2.7.7.2.s.> O + & + O + & O O O O O & O o - 5.r.r.g.g.g.a.r.a.2.<.2.7.7.2.7.a.; O O & O O O & O O o O O O O o > 2.r.",
"M g g F K l l g l y j - ; + # 0 + ; # ; # 1 # 1 1 ; + ; y l F u l } M M g g l l y l g y l - + # 1 1 1 # # ; # 1 # 1 # # # ; g l ",
"+.s.+.{ s.| } | M J J ; 1 # 1 # 1 # # # 1 1 # 1 1 1 ; - M J V *.M V @.s.M M s.*.*.V [ V } & + # 1 2 1 1 1 1 1 1 1 1 1 1 1 ; F F ",
"V M F u y u u y i B B ; ; + 1 # ; 0 # 6 0 1 1 1 1 1 1 & u u u u u M V M g u u u u B u i i ; + > 0 0 0 1 1 0 1 1 1 1 1 1 1 - u u ",
"; & % % o o t t t i t t q 8 8 8 9 9 e 9 e ; & ; ; ; + o & - % & % & - % % & % % i T t t i t i 8 e e 9 9 w e T - + ; ; O & & & % ",
"~ Q q q > K T.f.f.z.f.s.d.s.x.x.x.d.f.x.x.7 T q q q q q w Q w q q w ' w w q > s.T.s.f.z.s.d.s.x.f.x.s.d.x.x.f.> q q q q q q q ~ ",
"R q 2 q > x.+.F F F F F F +.| | l F l F F > q q q q q 2 T q q q 2 ~ w q q q 6 j.| M F +.{ g g M F F F +.| F M = > q 3 q q q q 1 ",
"q R q q - *.s.F F s.J +.+.+.*.:.*.*.+.*.r % q q q q q q q T q 3 q T w q q q > +.*.+.+.l +.+.{ +.J *.+.+.+.M r & U q q q q q q q ",
"& > < ; % % % % % % % % % % % % . % % % %   O & < 1 & , & 1 , & ; , & < + ; o - % % % % % % % * % . % % % % %   O & , & , ; ; ; ",
"1 1 1 0 1 1 0 1 0 0 ; 0 # > 1 O z.E.E.E.E.E.E.E.E.E.E.E.E.E.E.E.R.6 1 1 # 0 0 1 1 2 1 0 1 1 0 1 1 O j.R.E.E.E.E.T.E.E.E.E.T.E.E.",
"1 # 1 1 1 , 1 < # 1 1 1 @ 1 1 O r | g M M M g F M F g l M M M M F & 1 1 1 1 1 0 1 1 1 @ 1 # # 1 1 O t | F F F M u F l g g M g M ",
"1 1 1 1 1 1 1 1 , # 1 1 ; + 1 % t g M M M M u y M u M M M M M M F & 1 # ; 1 ; ; 1 1 1 1 1 # ; + 1 % t M u M u M u u F u M M M u ",
"; ; + ; ; # 1 ; & # # + O & & O * r 4 : : : : 7 7 : : 4 4 : r : : % - ; + ; ; + + @ , 1 + O O + ; o * 4 : r : t : : 7 : : t 4 : ",
"z.x.z.f.G.x.x.]   O o & 1 2 q 1 q 1 2 2 2 2 2 2 2 2 > - 0.x.j.x.j.j.k.j.j.j.l.k.j.i   o O ; q 0 1 2 2 2 2 2 2 6 0 q q > > = 0.G.",
"T.Y.Y.R.R.Y.T.r.- q q q Q q q q q q q ~ Q q q ~ T q 8 J T.T.E.T.Y.Y.Y.Y.Y.Y.R.Y.Y.z.& q q q q q ~ Q q q q q R q e w q w 0 5.T.T.",
"R.R.R.R.R.R.R.5.< q q q q q q q q q q q q q q q q q 0 r.Y.R.R.R.R.R.E.R.R.R.Y.Y.Y.r.< q w q q q q q q q q q w w q w q e 6 0.T.T.",
"x.x.x.x.x.I.x.:.2 q q q q q w q q w q w w q w q q q 2 i f.j.x.d.x.x.x.x.x.d.x.x.x.G < ~ w ~ q q q w ' q q w w q q w w 3 2 B d.d.",
"g.7.7.g.g.g.h.6.2.a.2.: . o 5.2.:.:.> O O O O O O O o O o O % O + : h.h.7.g.a.g.2.g.2.a.5.* .   :.5.a.1.6 O O O o + O O X X O O ",
"M g g y y g y M M M K E.!.E.l M l u - 1 1 1 1 1 1 # 1 # ; 1 1 1 1 % F l l M F K K u F y g E.Q.W.F <.l u 6 < 1 1 > 1 1 1 0 0 0 0 ",
"V | | F | M | +.*.V J M M M F J J u > ; ; 1 1 1 1 1 # 1 1 , 1 # 1 > +.<.F F V J F F F F +.+.J M F *.J M = , & 1 1 # 1 1 1 ; 1 1 ",
"u u u y u y u y u u u y y u u K y u % O ; ; 1 1 1 , + 1 1 1 < + ; > M u u u u u u y u u B t y y y u i t % & ; ; # 1 1 + + ; 1 ; ",
"t t t t t % - % & % & - ; - % ; ; & % O & O 6 R q e e 8 e 8 ] ] ] 8 t 8 i 8 i % % - & % & % - - - - - & o o & & > e q 9 e 8 9 q ",
"j.j.x.x.G.= ~ T q q 3 q q q q q 2 2 T q w 2 V f.x.j.x.T.x.I.I.x.I.I.G.x.I.I.I.% ~ q q q q q 3 q q q q q q q q < *.I.x.x.I.I.l.I.",
"J J J *.*.$ ) ~ q Q q q q q q q ' ' Q q w < u *.{ +.+.+.@.*.s.*.+.*.#.*.F F +.% ~ T q q Q T q w q q q q q q w 1 u #.+.| F F <.F ",
"*.*.*.V 5 . U ' 3 Q Q q q Q q q Q ' q Q q 1 t *.*.| *.*.*.*.*.*.*.*.*.*.*.*.4 . Q 3 q Q 3 T Q q q Q q q q ' q < t | *.*.*.*.+.| ",
"$ $ % $ . . & & & & & , & & & & & , & < , O X $ $ % & % $ & $ % % % $ = $ $ . . < , & & & & & & , & , & & & & X X $ & $ % % $ % "
};
