/* XPM */
static char *fbdc25f04a6b462acb3f5cac90ceca20hAby0bhz4F5cZBTT[] = {
/* columns rows colors chars-per-pixel */
"64 64 214 2 ",
"   c #020602",
".  c #030B04",
"X  c #080D05",
"o  c #030508",
"O  c #050D09",
"+  c #090E08",
"@  c #051306",
"#  c #081406",
"$  c #061906",
"%  c #091907",
"&  c #061409",
"*  c #091409",
"=  c #061A09",
"-  c #0B1C0C",
";  c #101E0E",
":  c #0E1C11",
">  c #0E1610",
",  c #121E13",
"<  c #0C220D",
"1  c #0D2A0E",
"2  c #062109",
"3  c #10250F",
"4  c #10280E",
"5  c #0E2311",
"6  c #0E2B11",
"7  c #112512",
"8  c #132C14",
"9  c #182C16",
"0  c #152E19",
"q  c #182E1A",
"w  c #142519",
"e  c #0E3312",
"r  c #143316",
"t  c #193517",
"y  c #133A14",
"u  c #193917",
"i  c #163319",
"p  c #19341A",
"a  c #163A1A",
"s  c #1A3C1C",
"d  c #0B320B",
"f  c #1D3E21",
"g  c #213F21",
"h  c #144415",
"j  c #144A15",
"k  c #16421A",
"l  c #1C431D",
"z  c #164B19",
"x  c #1C4A1E",
"c  c #17531A",
"v  c #1A541C",
"b  c #1C5A1D",
"n  c #165517",
"m  c #1A621E",
"M  c #1E6A1F",
"N  c #1E4321",
"B  c #1E4A22",
"V  c #1D5422",
"C  c #1E5B23",
"Z  c #214522",
"A  c #224B24",
"S  c #244E29",
"D  c #284D2C",
"F  c #235326",
"G  c #235B26",
"H  c #25542A",
"J  c #29552B",
"K  c #265B2A",
"L  c #2B5C2D",
"P  c #285627",
"I  c #2D5D31",
"U  c #2A5730",
"Y  c #305E35",
"T  c #1F6422",
"R  c #1E6E21",
"E  c #1D7222",
"W  c #236423",
"Q  c #2C632E",
"!  c #2B6A2D",
"~  c #256A29",
"^  c #30622E",
"/  c #217426",
"(  c #25762A",
")  c #2A752C",
"_  c #2A7B2C",
"`  c #247828",
"'  c #2D6431",
"]  c #2E6A32",
"[  c #276330",
"{  c #326534",
"}  c #316B35",
"|  c #346D39",
" . c #346739",
".. c #2F7235",
"X. c #2F7F31",
"o. c #347335",
"O. c #397337",
"+. c #327D36",
"@. c #35733A",
"#. c #39743B",
"$. c #367A3A",
"%. c #3A7C3D",
"&. c #3B7C41",
"*. c #29872A",
"=. c #28882B",
"-. c #2B952E",
";. c #2D8B31",
":. c #338037",
">. c #36813B",
",. c #3C833E",
"<. c #3B883D",
"1. c #329B34",
"2. c #339639",
"3. c #2DA32F",
"4. c #2FA232",
"5. c #38A93C",
"6. c #38B83B",
"7. c #43813F",
"8. c #3D8442",
"9. c #3E8944",
"0. c #3D9045",
"q. c #3DAD42",
"w. c #3EB747",
"e. c #418544",
"r. c #428C45",
"t. c #448B49",
"y. c #468849",
"u. c #429245",
"i. c #45934A",
"p. c #49954C",
"a. c #45994B",
"s. c #499B4D",
"d. c #459846",
"f. c #4C9E52",
"g. c #4B9553",
"h. c #509C56",
"j. c #45A14A",
"k. c #4AA24D",
"l. c #49AD4C",
"z. c #44AB48",
"x. c #45B54B",
"c. c #4DA553",
"v. c #4EAB54",
"b. c #4EAD59",
"n. c #51A453",
"m. c #52AC55",
"M. c #54A65B",
"N. c #55AD5A",
"B. c #59AB5E",
"V. c #4DB653",
"C. c #4EB955",
"Z. c #54B857",
"A. c #54B25A",
"S. c #59B05C",
"D. c #55BB5C",
"F. c #59BB5E",
"G. c #52B357",
"H. c #5CBC64",
"J. c #5AB963",
"K. c #61B666",
"L. c #63BB69",
"P. c #61B966",
"I. c #69BC70",
"U. c #3EC641",
"Y. c #40C347",
"T. c #44C44C",
"R. c #59C25E",
"E. c #5DC462",
"W. c #5DCC64",
"Q. c #5FD069",
"!. c #61C465",
"~. c #61CC66",
"^. c #65C36C",
"/. c #68C36D",
"(. c #64CA6A",
"). c #69CB6F",
"_. c #62D366",
"`. c #64D46B",
"'. c #65DA6C",
"]. c #69DB6D",
"[. c #62D864",
"{. c #6BCC71",
"}. c #67CB70",
"|. c #73C978",
" X c #6BD672",
".X c #66DB71",
"XX c #6BDB72",
"oX c #67D873",
"OX c #72DA7B",
"+X c #69E16F",
"@X c #6CE273",
"#X c #66E070",
"$X c #71E475",
"%X c #72EC75",
"&X c #72E37B",
"*X c #74EB7A",
"=X c #76F37D",
"-X c #79DC82",
";X c #7CE484",
":X c #79EB81",
">X c #77E782",
",X c #7BF383",
"<X c #76F380",
"1X c #88DB90",
"2X c #84EB8B",
"3X c #85EA8D",
"4X c #86F18F",
"5X c #8AF18F",
"6X c #88F191",
"7X c #91E399",
"8X c #B0FBBE",
"9X c #A7F3B4",
"0X c #B8FAC6",
"qX c #C6F9CF",
/* pixels */
"      ].+       J -     $X* *X  o !.u _.8   %.Z 8.p   #.e.r.#.  i 9.g %.      m.J       J ^       8 {     i 7 p 5   7 D r Z     ",
"      XX+       J *     !.p.F.  o n.d.+X. o L 7.n.; o Z W.E.A o % n.e.J       k.J       L Y       w '     : N A % o * ] H i     ",
"      J o       w X     8 Q , o   * L 9       Z q       F H     o 9 Z O     o s ,       3 7       * 7       - ,       : 8 O     ",
"      o           o       X     o             o                     O             o                                             ",
"    d.(.*   o g Q ;     u..X#.  o s F.7.    * r.r.    ; ~._.7 o   i.n.p     a.].{   o i d.L     q #. ..   O A A O   . I { : o   ",
"    3 $X*     + L ,     $Xy @Xo   $ $.t.    O N s.o   } p.p.] o i s.S %.    *Xu W.    * } ]     Q t O.7   0 q g 7   7 H u Z   * ",
"      +X*       L ,   @ *X< *X      Q i.      0 k.o   %.7.r.#.  s r.N 9.  . %X< '.O     ' {     ' 8 ..5   p 0 s 7 . 0 F i A . > ",
"    o ].*       L -   # $Xi &X.     Q u.      i k.  o o.u.u.} o r s.A 8.    *Xq Q..     ' {     { 0 o.7 . i r s 7   7 H p B . & ",
"    o XX*       I < O * n.oXr.O     { i.      q n.    7 '. X0   + n.S.s     v._.#.O     { }     p $.%.X   # D J & o X { ] 7     ",
"      &         X   + * - i % .   o O X         *       # *   o O . % O X   O < O         O       # X       O O     . . *   . . ",
"    @ i .       % O O - r | 7 O   . - 8 O   O N 0       # s       O 7 *     3 K * . . @ A -       * 7   X   - - O     X - .   . ",
"    s.%X*     Z #.< # - (.m.A.&   g ).i.  O { d.F.7 o   m.*XX O   $.E.q     W.c.s..   t.<.S.    ; %.o..   7 D J -   X S #.- . . ",
"      +X* o     ' 5 * 5 *Xs >X% X   ] d.X   r.F k.x       %X@     X v.8     %X7 '.. . G.6 H.* O   q O.O   s p Z 8 . . . ] - . : ",
"      @X%       I 5 * 7 ;Xu :X- O   ] p.. O t.S l.x     O *X.     . m.0   X *X< '.. O Z.7 !.% X   p O.  O s p Z r .     ] % . 7 ",
"    . @X%       I 7 - 7 OX@. X3 X . ] d.X   &. .R.u     . %XO   . . v.9 X . @XL E.  @ v.B !.# . O p O.  . i Z A 7   O   | - . - ",
"    o a.@       Z 5 - 8 O.H.Q < @ O A ' X X , d.+.X . O X s.. O . . $.<   . L A.f     s a.F       7 A O   X Z k @ . . . Z & O & ",
".     . .   o . o # - 8 i t r 3 & + @ O O . O O .   .   X   O   O   X       O   X   X   o . .       .   .   .   X     .     & - ",
". . L s.+ . . f U 7 3 9 ^ h.{ 8 % l A.] O X < s.9.    @ s.c.# O . A 7.3 O O ' G.k   . w #.S . . # H F . .   y f   X O Z K % & - ",
"  . H @X%   @ @.N K 7 t { ).e.8 - J.Q +X- . e.@.W.u   ^ G.N.L   O Z E.r   O @X' F.O O 7 d.#.. . > K $.. X X r { . . 1 { D N & < ",
"    . @X* O - { 7 Q 7 p s J.e.t 5 Q.a Q.7   a.F Z.x . &.r.d.$.O   X Z.r   X *X7 ].. O o | %.. . . i $.. O   O { .   r L p F % q ",
".     @X-   : } 8 { 7 p N K.t.i < ~.u [.8 . g.H Z.x   %.t.u.o..   . Z.y . @ %X7 ].  X   O.#.. .   i $.  X . O ]     i L s H - 0 ",
". . . @X* . @ #.Q F 7 s A H.t.a 1 c.c.'.& o ..V.#X8 O N oX`.B X X . F.i   . W.v.s.X X X @.$.  . O p +.. . . @ ] X O % @.' N % 5 ",
"  . O l @ .   - q - 0 s S | L a 1 < K 7   . O F u O O . N A . . X   s * . . 7 F - . . . 1 8 . .   # 8 . . . @ 7 . . . 5 9 @ - 7 ",
". . .   . .   . X - 8 l F K V k 4 & @ . . .   O     O . . O   X . X   . . . @ @   . . .   X . . X @ . X .   . . . . X . . $ - 7 ",
"  . j.].% O . { $.l 0 l J.;XM.N r B W.r..   < E.R.. O . S.@X@ X . t.W.i O . @.`.K X . B E.#.. . g r.,.#   . K ' . . * | @.9 < 8 ",
". . < @X& O - #.r  .0 l 2X$.3Xx d < +.t.  X . S Q.. X   < =XX   X - !.s   X % N.K @ X # 8.%.. . O.l ,.8 . O % } .   r ^ N G 3 p ",
".     +X* . 7 | 8 | 0 x 4X] 4Xx r - o.i..     g Q.. . . . =X@ . . . R.u . . . m.I . @ . #.&.. . $.u ,.8 . . & @.@ . t L u L 3 s ",
". X   @X- O % #.r } i A 2X8.;XA y - ) i.X   X l _.. . . X =XO . . X R.u . . . m.K . . . $.&.. . $.a 9.6 . . & @..   r Q N P 3 u ",
".   . XX- . O Q %.Z i Z L.3XM.x y < ..i.. . X s ).X . . O ,X@ . . . E.i . . O M.L O . . &.8.. . u i.8.& . . $ #.. . . O.&.r 5 0 ",
". . X O   O O . @ ; t Z { o.Q V y < $ @ O . . . @ . . . . & . . . . @ O O . . @ X   @ . X @ . o . & @ O . O o @ @ @ . & $ = 7 i ",
". . @ - X . . 3 g 3 t A &.B.O.V y e #.r     @ ] x X . . : S . . . = B : . O @ l 8 O & - @.8 . . @ A 6 O O . i 8 . . . 8 u - 7 i ",
". . i H @ . @ %.L L y A OX/.|.G k m.d.'.$ O %.m.XX0 . . c.,X& @ @ t.@Xs . . @.'.L O O A.r.`.& . ' @.s.- . y ' ] 1 @ 5 &. .A w y ",
". . X D & . 5 @.r o.p A 5X%.5XC k `.x '.8 O m.L J.S @ . @ =X& . . @ W.t . . @ m.L . @ Q.y @X< . >.u 9.r @ S l K s . i ' l ! 7 u ",
". . . H +   7 @.0 $.p F 3X$.5XC k `.N '.8 O m.L F.V . . O ,X& . . O W.p . @ . m.L @ O Q.y @X- @ 8.u e.i . S N J f @ u ' l Q 7 s ",
"  . O A & . $ &.B  .i A 2XM.&XG k E...$X- O i.e. Xs @ . X =X$ . . . ~.p @ O   N.L @ @ E.! @X& X O.L s.7 . l K ' 0 @ 1 @.L H 8 s ",
". . . p @ . X l L e t A y.).9.G k V c.K X O ; s.&.O . . @ g.& . @ . >.8 . @ X | s . @ u c.D O @ - | F O X $ A A @ . @ N K 8 8 s ",
". . . . . . . . . < i A { } ! G l 4 < @ . . . # O X X X O O . @ X O @ O @ @ O @ . O O O . . . @ @ @ . @ . . . @ . . X O @ < 8 u ",
". @ x N & . @ A o.i r B y./.u.K x W E.$.. @ e F.h.O . @ &.N.@ . X i.F.9 . . @.R.B . @ u a.Q @ . 8 e.| @ @ @ B L @ @ X L o.8 0 u ",
"O 7 Z f r O % %.A } r B 8.OXc.W B E.! @X- X a.&.).s . @ H ,X@ @ y _.:.d.X @ @XK W.@ @ 6 c.9.. @ %.H a.6 @ @ y 8.@ @ r #.H L 0 u ",
"O 0 l i u . 7 $.r $.r F ! ).m.~ c '.x ].r X m.' J.F @ . & <X@ . S G.L c.@ $ %X4 XX@ o & %.8.@ @ <.s i.i @ . & 8.@ . u Q x ] r s ",
"  r g u p . 5 %.u >.i V ..|.N.~ v .Xv .X0 @ v.L P.F . @ . ,X& @ Z R.Q c.& @ *X8 '.@ @ @ %.9.& O 9.l i.p O @ % 8.@ @ a  .N ] 8 a ",
"@ % J F 5 @ @ t.>.Q y T +.OXJ.( b A.J..X& X o.E.>X5 @ . @ ,X@ . - '.E.| & @ W.D.s.@ . @ &.8.O @ L u.n.; & O & 8.@ . = 9.&.B 8 a ",
". @ % < . . . < y 4 x ) 2.V.q.;.m h L 8 . @ @ B i @ & . & x @ @ O 0 x & @ O 7 V % @ @ @ 6 8 . @ & N 0 $ & % @ r & & @ 5 i < 0 u ",
". . @ $ @ . @ @ $ e C 2.w.C.w.5.E j y $ @ . & 5 @ O & @ O @ @ @ & @ @ @ O & @ 5 @ . & @ @ = @ @ & % - & * * @ & & @ @ . @ < 8 a ",
"X # I L 5 O & } V.W _ 5.7X9X;Xw.*.n.oX!.@ O U oXOX< @ @ H.:X& O & f.@Xa & $ G.`.8.& & H _.8.O @ 8 f.t.% * % #.e.@ O @ { r.8 8 y ",
"O r B f u O . % l.` -.z.0X^.0XY.-.;XK OX0 @ n.Q L.H . @ = ,X$ & @ $ Q.s O $ >Xy `.@ @ & 7.e.@ # * S i.* * * - e.@ * & $ <.r 0 a ",
"O u l s k . @ $ z._ 2.x.qXI.0XT.4.;XJ @Xi O m.' J.H @ . $ ,X% & @ @ W.u @ @ >X1 .X@ & @ 8.8.@ * % Z a.* % * $ t.@ # @ @ 9.r e k ",
". r A N u . O $ l._ 1.z.qX|.0XT.4.;XW &X7 @ c.] /.B @ & & ,X= @ & @ W.u O $ *XN Q.& & $ &.9.& @ & l i.& * * % y.@ # * $ 9.r r k ",
". & K K - @ . & q.[ =.q.1X0X-XU.-.u.&Xn.$ @ s  X/.- O @ @ &X& O @ @ E.u * & i.@X' & * @ &.%.@ * & g e.$ O & = e.$ @ $ @ r.u a V ",
"& @ & @ . @ & & = y T 1.w.x.U.6.*.n d = O @ & $ @ & @ @ & & & @ X @ @ # * + % @ $ + * & @ # @ @ O @ $ @ & & @ @ # # @ @ & 1 z W ",
"@ @ r p @ & O < B y k ` 1.5.6.3.E n a.x @ X $ &.L @ @ @  .@.# $ * 1 Q 7 @ & < H i # # - A N @ $ $ { s # $ $ 6 N @ @ # 6 F k b _ ",
"@ 7 L H r @ O H z.u 1 b ( =.;.=.b E.a.&X- # ,.c.OXt @ J ).E.H . & &.@Xp & & { .XQ & * B E.9.@ @ #.$.A.6 & @ ' i.$ & @ Q C.b / +.",
"@ i A N l O @ @ 9.i = y C R E E b XXb #Xr @ m.Q J.H & e.t.s.&.& % $ W.s @ & @ m.' @ & @ ,.r.@ @ r.B s.u & & % p.$ @ $ 2 l.T _ +.",
"@ a B N l @ @ @ >.i % e j C R T n '.V .X9 @ m.' J.J * e.t.p.&.& * @ W.s @ @ # N.' @ & % >.8.# $ i.x f.k % $ = p.@ & $ = V.b ` :.",
"O 6 K H p & @ @ >.i & 1 k v C T n E.<.$X: @ t.i.XXs # ' E.P.' % @ $ W.s * @ & b.Q $ @ % >.9.@ % %.o.A.6 & $ % p.$ # # $ l.b R +.",
"& @ s N & & @ @ Z 1 & 1 y z n b j F s.H & @ < t.| * & & &.8.* & @ $ o.7 % @ * ' s * * & A D & $ < @.F @ $ & % J $ & # $ ! y b / ",
"@ # # # @ @ @ @ & + * < y h n v j y 1 - $ & @ @ & + @ * @ & $ & @ # & $ & $ @ $ & $ * $ $ * & # # % % # $ # # # # & # $ % 1 y V ",
"O $ K ' - @ & Z @.8 @ 2 r h c c z ..(.9.@ & y (.B.% & < E.E.5 @ * @.A.i % & L b.H $ $ s c.] # $ 3 e.+.# # @ ^ %.$ # @ $.9.y 6 h ",
"@ r L A l # @ 0 e.r & < r h j c k ~.Q @X5 & c.%.).Z & | c.b.} @ $ N '.f $ # p E.Q & % 7 k.e.$ # -  .j.# @ $ k s.$ # y <.Q Q < 8 ",
"@ l F N Z # + & %.i * - 1 y j z j '.V ].r & v.' J.H & y.t.p.7.# $ # W.s $ $ # m.Q & $ = 8.e.# % % x j.@ $ @ = s.@ $ l $.F ..- 2 ",
"@ u G A l % * & %.r $ = 1 y j j h Q.C ].r % m.Q H.F $ ,.g.s.%.% * $ W.s $ # @ G.' @ $ @ 8.9.# $ = B j.# = & - f.$ & N $.V ] $ < ",
"# < o.| 9 @ * @ ,.i @ 2 6 y j j h c.E.(.= # ] ).&X8 $ s XX@Xx * # $ Q.k $ @ $ m.' $ $ $ >.9.% & - A k.# % & 2 f.$ & < i.t.N % - ",
"# # < 4 & & @ @ 8 * @ = 1 e j j h y V 6 $ @ # l 0 % # % u a & # & = u : % = % i 5 $ = = 6 8 $ $ # < r $ & % $ r = & = 5 r & $ - ",
"* # # # & & @ $ # = $ = 6 y h j h y N 2 $ @ # r < @ # * = - % * $ 1 r $ & % & $ < = @ & $ < $ $ % $ 2 $ & $ 1 < = = $ < 4 = $ = "
};
