/* XPM */
static char *_3325cbf60c04e3ade3207572619dc82UwP4GaPqc4vJYSro[] = {
/* columns rows colors chars-per-pixel */
"64 64 215 2 ",
"   c #020502",
".  c #030B04",
"X  c #080D05",
"o  c #030508",
"O  c #050D09",
"+  c #090E09",
"@  c #080201",
"#  c #051306",
"$  c #081306",
"%  c #061906",
"&  c #091A07",
"*  c #061309",
"=  c #09140A",
"-  c #061B09",
";  c #0B1B0C",
":  c #101E0E",
">  c #10150F",
",  c #0E1C11",
"<  c #0E1610",
"1  c #111E13",
"2  c #0C220D",
"3  c #0D2A0E",
"4  c #062007",
"5  c #10250F",
"6  c #11290F",
"7  c #0E2311",
"8  c #0E2C11",
"9  c #112513",
"0  c #132C14",
"q  c #182D16",
"w  c #162E19",
"e  c #192D1A",
"r  c #142519",
"t  c #0E3313",
"y  c #153316",
"u  c #193517",
"i  c #133B15",
"p  c #193917",
"a  c #163319",
"s  c #19341A",
"d  c #163A1A",
"f  c #1A3B1C",
"g  c #0B320B",
"h  c #1D3E21",
"j  c #1B3723",
"k  c #203F21",
"l  c #154515",
"z  c #164319",
"x  c #1C431D",
"c  c #154B1A",
"v  c #1C4B1E",
"b  c #164C15",
"n  c #17531A",
"m  c #1A541D",
"M  c #1C5A1D",
"N  c #165517",
"B  c #1A621E",
"V  c #1E6A1F",
"C  c #1E4321",
"Z  c #1E4A22",
"A  c #1D5422",
"S  c #1E5B23",
"D  c #214423",
"F  c #234B25",
"G  c #254D29",
"H  c #284D2C",
"J  c #245226",
"K  c #235C26",
"L  c #25542A",
"P  c #29552B",
"I  c #265B2A",
"U  c #2B5C2D",
"Y  c #285627",
"T  c #2E5D31",
"R  c #2A5730",
"E  c #315F35",
"W  c #1F6422",
"Q  c #1E6E21",
"!  c #1D7222",
"~  c #236423",
"^  c #2C632E",
"/  c #2B6A2D",
"(  c #256A29",
")  c #30622E",
"_  c #217426",
"`  c #25762A",
"'  c #2A752C",
"]  c #2A7B2C",
"[  c #247828",
"{  c #2D6432",
"}  c #2E6A32",
"|  c #326534",
" . c #326B35",
".. c #346D39",
"X. c #346739",
"o. c #2F7235",
"O. c #2F7F31",
"+. c #347236",
"@. c #397337",
"#. c #327D36",
"$. c #35733A",
"%. c #39743B",
"&. c #367A3A",
"*. c #3A7C3D",
"=. c #3B7C41",
"-. c #29872A",
";. c #28882B",
":. c #2B952E",
">. c #2D8B31",
",. c #338037",
"<. c #36813B",
"1. c #3C833E",
"2. c #3A883B",
"3. c #329B34",
"4. c #339639",
"5. c #2DA32F",
"6. c #2FA232",
"7. c #38A93C",
"8. c #38B83B",
"9. c #43813F",
"0. c #3D8442",
"q. c #3E8A43",
"w. c #3D9045",
"e. c #3DAD42",
"r. c #3EB747",
"t. c #418544",
"y. c #428C45",
"u. c #448C49",
"i. c #468A4A",
"p. c #429245",
"a. c #45934A",
"s. c #49944C",
"d. c #45994B",
"f. c #499B4D",
"g. c #459846",
"h. c #4C9D52",
"j. c #4B9655",
"k. c #509C56",
"l. c #4AA24D",
"z. c #49AD4C",
"x. c #44AA48",
"c. c #45B54B",
"v. c #4DA553",
"b. c #4EAB54",
"n. c #4EAD59",
"m. c #51A453",
"M. c #52AC55",
"N. c #54A65B",
"B. c #55AD5A",
"V. c #59AB5E",
"C. c #4DB653",
"Z. c #4EB955",
"A. c #52B256",
"S. c #54B857",
"D. c #55B35A",
"F. c #58B15A",
"G. c #55BB5C",
"H. c #59BB5E",
"J. c #5CBC64",
"K. c #5AB963",
"L. c #61B666",
"P. c #63BB69",
"I. c #61B966",
"U. c #69BC70",
"Y. c #3EC641",
"T. c #40C347",
"R. c #44C44C",
"E. c #59C25E",
"W. c #5DC463",
"Q. c #5DCC64",
"!. c #5FD069",
"~. c #61C564",
"^. c #62CB66",
"/. c #65C36C",
"(. c #68C36D",
"). c #62C969",
"_. c #69CB6F",
"`. c #62D366",
"'. c #64D46B",
"]. c #64D96C",
"[. c #69DB6D",
"{. c #62D864",
"}. c #6BCC71",
"|. c #67CB70",
" X c #73C978",
".X c #6BD672",
"XX c #66DB71",
"oX c #6BDB72",
"OX c #67D873",
"+X c #73D97C",
"@X c #69E16F",
"#X c #6CE273",
"$X c #6BE772",
"%X c #71E475",
"&X c #72EC75",
"*X c #72E37A",
"=X c #74EB7A",
"-X c #76F37D",
";X c #79DC82",
":X c #7CE484",
">X c #79EB81",
",X c #77E782",
"<X c #7BF383",
"1X c #76F380",
"2X c #88DB90",
"3X c #84EB8B",
"4X c #85EA8D",
"5X c #86F18F",
"6X c #8AF18F",
"7X c #88F191",
"8X c #91E399",
"9X c #B0FBBE",
"0X c #A7F3B4",
"qX c #B8FAC6",
"wX c #C6F9CF",
/* pixels */
"o G B.a. .  X E e D       j.T o     { a.    | G 2.r     @ =X.   , u.G |     oXF ~.      H P       r T @   +.y.b.P o     I =   . ",
"  o f.A.=     f P =     @ =.H @ o   F X.    > *.| X     o B..     ^ t.;      .W.k o     k D       : D   @ = b.v.+       F O @   ",
"    @ @   o o             o   o   @   o     @ o         @       @   o     @   o     o   @         o @         @     @   @       ",
"  @ J t.+   @ 1 j +     H v.s @ @ 0 l.L     *  .P       0.u.X     P %.=     e $.f @   < J u     O s h .   . 0 q       u F .     ",
"    U &X* o   1 T ;     '.| ).@   B. .#X=   | | a.9 @ I D.B.P o ; h.| |     C W.P     9 *.U     + G {     9 s f ;   ; U C s     ",
"      #X$ o     R ;     $X= =X    ^.f '.9   %.C 0.u @ &.q.q.+.  s y.f *.    . b.P     @ U ^     o q ^     a r a 9   r G a C     ",
"      [.+       P ,     %X= =X    Q.p `.r   *.k 0.u o *.y.y.$.  s q.x *.    @ b.P @     U {       q {     e 0 f 7   9 G s C     ",
"      oX=       P ;     Q.d.H.  o m.d.oXX   U 0.v., @ C Q.W.F o = m.t.P       b.P       U {       r {     2 C C ;   = } L u     ",
"    @ H         9 +   @ 9 { ,     = { q     O C w       G L       u D .       f 9   o   5 9       = r       : :       7 q .     ",
"      o         @ o     . . . @ o @ . @         @       .       o   . @       .                               o                 ",
"    g.).=   o f ^ ; @ . y.XX%.  o s H.*.    $ p.q.. @ ; ).`.9 o   a.m.s     d.].| o   a d.P     y %.X.    * F D .   . T | ,     ",
"    7 #X=     $ T ,   . $Xy #X.   $ &.a.    . C v.  o  .a.g. .  a f.G =.    *Xf `.  o + +.}     ^ s $.7   w u h 9   9 I j C . = ",
"      @X= .     U 2   * =X2 =X      / a.      w f.  o *.t.y.$.  f y.C 0.  . =X2 [.@   . ^ }   . { 0 +.7   s w f 0   0 L a F . ; ",
"    o @X*       U 2   * *Xs *X.     ^ a.      a l..   +.y.a. .. a f.F 0.    &Xe !..   . { |     { a +.9 . u y f 7   7 L d C   * ",
"      #X=       U 1 . = m.OXq.O     } a.  .   e v.  . 9 ]..Xw o O m.F.f     C.'.&.o     | ..    s *.$..   & P L = o .  .X.9 . . ",
"      $         .   O = ; u - .     . *     .   O   o   = $   . . . < . .   . : .     .   .     @ = X .     . #     o . = .     ",
"    # u .   .   - + * = a ..0 X o o > q . . . D 0       $ f . @ @ * q $   . 2 P = o   = F ;     . $ 1 @ @ . , ; o . . . : X   . ",
"    d.&X=   @ D +.7 = ; ).M.D.= . k `.a.. @ E g.H.7     b.-X. o . %.E.u .   Q.v.l..   y.2.B.# @ ; =.+.. . 7 G P ; . X F @.=   # ",
"    . @X*       T 2 = 7 =Xf ,X- . . } a.. . i.L l.v     . =X.     . b.6   . =X9 ].. . D.8 J.= . . w +.. . s u D 0   .   } ; . 2 ",
"      $X-   .   ^ 7 = 9 :Xp >X; X    .a.. X u.F z.v . . . =X. .   . M.w   # =X2 ].. . S.9 W.= . o a +.. . h s D w . . . } - . 7 ",
".   o #X;       E 9 ; 9 +X$.[.; # .  .s.. o 1. .E.p     . =XO . . . b.w . . $XU W.. . b.Z ~.= . . e @.. . a C F 0 .   .  .- . ; ",
"    . d.*       D 9 ; r $.J.^ 2 $ . D { X X 1 a.&.. . . . h.. . . . $.2   @ U D.f . . s f.F   . . 9 G . . . C C .   . . F = O = ",
"  o   . .   .   @ . ; w p p y 0 * + = O + . . . . . .   .     o . . . . . . . . .   . . . .   . .   .   . .       . .     . = = ",
". . U s.+ . . x U 9 2 q T h.| 0 ; f B.} . X ; h.0.. . $ f.v.= . @ F 9.5 o . E A.f . . r %.J . @ $ G J . .   y D . . . F I * = ; ",
"    L $X=   $ $.x I 9 y E |.t.0 ; H.^ @X; o t.%.Q.f . ^ B.B.U . . D ~.0 . . #X{ H.. . r s.%.. . = I &.. . . y |   . 2 | H C * 2 ",
".   . #X; @ 7 | 9 } 9 u k K.t.a 2 !.z !.0   d.J C.Z   =.y.p.&.. . . S.y . . =X9 [.. . . ..*.o . . s &.. X . . | . . a U s L = u ",
"    . $X- . ;  .r  .9 u C J.u.d 2 Q.f {.8 . s.L S.Z . *.u.p.@.. . . G.a   # &Xr .X. . . +.&.. . . u &.. . . * } . . q U p L - w ",
". . . #X-   * %.^ J r u D J.u.d 3 v.v.[.= o +.C.@X0 . C OX'.F . . . H.u . . ^.M.l.. X . @.%.. . o s &.  . . * } . . & $.{ C ; 7 ",
".   . C . . . ; w ; q f F +.U d 3 2 I 5   . * J p o . . D H . @ . . f = . . 0 J ; .   . 5 0 . . . = 0 . . . . 9 . . # 7 w $ ; 8 ",
". .   O .     . # ; q k J I A z 6 $ #   .   . O . . . . . . . . .   . . . . . . . . . . . . . . . # . . . . . . . . .   . $ ; 7 ",
". . l.[.; . o  .&.x w x L.:XN.x 8 Z Q.q.. . ; W.E.. . . V.#X# . . u.`.a . . $.'.U . O C E.%.. . k y.2.$ . . P { . . $ $.$.0 2 0 ",
"  . 4 $X- . ; @.y  .w x 3X%.3Xv t 3 &.a..   O F !.. . . 2 1X$ . X ; W.u .   & D.U . X = 0.1.. . @.f 1.q . . & +.  . u ) x Y 5 s ",
"  . . oX= . 9  .w +.y Z 7X} 5Xv y 4 o.a.. . . f ^.. . . . -X* . . . W.u . . . N.U . # . &.0.. . *.i 1.8 . . * +.. . u U f U 2 f ",
".   . %X, . ; %.y  .a D 3X0.>XZ y 2 / a.. . X x `.. . . . -X* . . # W.u . . . n.T . . . %.*.. . &.f 0.0 . . * $.. . y ^ C I 2 f ",
". . . oX;   .  .*.D a D P.3XN.Z i 3 +.a.. . . k |.X . . . <X* . . . Q.u . . # N.T . # . =.0.  . p a.0.= . . * $.. . # +.=.y 3 a ",
"  . . * . . . . * ; a F } @.U A i 2 $ # . . . . # . . . . * . . . . # . . . . # O . . . . * . . . * # . . O . # # . . # . % 0 e ",
". . * ; . . . 5 k 5 u Z =.V.@.A i g %.y   . *  .D . . . 7 L . . O - D ; * . * x 0 # . ; ..q . . # G 8 . O * y 0 . . # 0 f - 9 s ",
". . u L *   * *.^ U y F +X(. XK p A.g.].= . &.M.#Xw . . m.<X$ . . u.$Xp . . ..@XI O O D.w.].# . { o.d., . y {  .8 # ; =. .F 0 s ",
". . . L O . 7 $.y $.u F 5X*.6XS z `.Z ].0 . M.U K.F . . . 1X$ . . * Q.p . # # N.U . # !.y $X; # =.f 0.y # G C U d * y { x { 0 s ",
". . . L = . 7 +.0 &.u G 7X&.6XS z ].Z !.w O M.U K.A . # * 1X$ . . . E.s # . . M.^ . # '.a $X2 . 0.p q.s . J C P j # s { x { 8 p ",
"  . . P * . % =.F } d F :XN.+XK x W.o.+X; . g.t..Xf . # . -X$ # # . ^.p . # . N.^ # # W.^ #X* * @.U d.0 . x I { y # 6 $.U I 0 p ",
". . . f . . . C U 0 a F i.|.q.K z m b.P . # ; h.=.X . . $ j.$ . . * 1.9 # . + ..f . # f v.J * . ; ..J . . # G Z # . # Z I 6 0 f ",
". . . . . . . . . 2 y F ) +.} K x 3 2 * . . . * . + # . O . * . . O O . . # # $ . O . . . . # . * # # . # . # # . . # . # 2 w p ",
". . C C * . . J +.s y F i.(.p.K v ( W.&.. # 0 J.h.* . # =.V.* . * a.H.u # . $.E.F . * p d.^ . # 9 y.} # . # Z U # # . U  .0 w f ",
". 7 D f y . ; 0.Z } y Z 0.;Xv.~ Z Q.^ #X2 X g.9.|.C . . L <X% . u `.&.p.* # $XP Q.# # 8 v.0.# . *.L f.0 * * d =.* . y %.I I 0 f ",
"O w x s p . 9 $.y &.y J / }.N.~ c [.Z ].y . M.U K.J . * * 1X# . F S.I b.# # &X6 XX# . * 1.1.O # 2.f w.s . # % 0.# = p { x } y f ",
". y k p p . 2 1.s <.y J '  XB._ m [.m XX0 # n.^ L.G . # # 1X# # D E.^ b.* # =Xw ].# # # *.0.* * 0.x p.f * # * 0.# . f } D } 0 f ",
". & P L 8 . # i.<.( i K #.+XK.` M A.K.[.# . +.W.,X8 # . # <X# # ; XXW.} * # Q.S.f.# . * *.0.= O { p.m., * # # 0.# # - 0.*.Z 0 p ",
"# # & 2 . O # 7 d 2 v ' 4.C.x.>.B l ^ 0 # # # C u O = # * c = # O t Z = * * 7 A - # # . t 8 # . * f w $ = * $ t = * # 7 a 2 6 f ",
". . # $ . = # . % t ~ 4.x.R.r.7.! l d % # # # 2 - O . # = * * . * # # O . * * 7 # * * # * * # # * & - * ; = $ $ # * # # * ; 0 f ",
"X - U U 7 . *  .C.V ] 7.8X0X:X8.;.M..X/.# O R .XOX2 # # J.>X* . * h.$Xf * # D.^.1.O = L ].0.# # q v.y.= = - $.t.# * #  .q.y 0 i ",
". t Z h p # . - z.[ >.x.qX(.9XT.:.;XK #X8 . M.{ P.L . # - <X& $ * % !.p * # 1Xp ].$ # % 9.1.# * = G p.; = = ; 0.# * * # 2.y 8 f ",
". s C f x . # * x.] 3.x.wXU.qXR.6.3XJ #Xu O M.{ J.L . # # <X- * * # Q.f # # >X3 XX# $ # =.0.= = = D p.- = = - u.* * = % q.y t f ",
". y Z C i . . % c.] 3.c.wX XqXR.6.;X^ %X7 # m.} /.Z # # # <X- * * # Q.f * * =Xf !.$ * # 0.0.= # * D d.$ = = ; y.# * * $ p.y y z ",
"# * I I ; # # * x.( ;.e.2XqX;XT.:.p.*Xm.* # x oXU.- * # $ *X% . # # E.f $ * s.#X/ * * * *.<.# $ * k y.$ = * % 0.# $ $ # q.p i A ",
"* O = # # $ . * 4 y W 3.r.R.T.8.-.n g % # # * $ * * * * * # * * # $ # $ * = * # $ = = * # $ # # . # # $ * * $ # $ $ $ * - 3 c ~ ",
"# . y f * * * 4 Z i c ` 3.7.7.5.! M p.c * # & *.U * O = X.$.* # $ 6 U 7 * = 2 J y * $ ; Z C # % & | x * # $ 0 x # # * 3 A z W ] ",
"# 9 U L y * O L x.p 8 m ` >.:.;.B ~.d.*X; X 0.v.+Xy * P ).W.I # * 0.$Xf * * ..[.^ * * Z !.q.$ $ @.&.M.8 $ # { a.% $ # ( Z.S _ #.",
"# s Z C x . # # 0.y 4 i M ( [ ! n oXA oXu # M.^ J.L = t.u.f.=.* $ # Q.f # $ * M.^ * * $ 1.0.* $ p.Z d.f % $ - s.% $ % - z.W [ #.",
"# f Z C x * # # 1.y - 0 c A Q Q n XXS XXw $ M.U J.L + t.s.d.=.* = # Q.x # $ $ M.{ % $ - *.q.* % p.Z f.z % * = d.# $ $ - z.W [ ,.",
". 8 U L p * * # 0.t $ 3 z m S B N W.2.$X; # u.d.oXf $ { J.J.{ * $ # Q.f * $ * n.{ # - $ 1.0.$ $ =.+.n.t $ % - d.$ - % % z.M _ O.",
"* # d C $ # # * C 2 $ 2 t b M M b J f.K * = 7 y...= # - =.0.- $ # % o.9 - $ = { d = * $ Z L - * 7 $.L * % $ - P % $ $ % / i M ( ",
"# # = * # # # $ = * $ 3 i z N n b t 8 - * * # # * + * = % * % * % # = $ % * % $ $ % * $ % * $ % $ % $ $ $ % $ # $ * # $ & 3 z M ",
"# % P ^ ; # = D $.0 # 2 y l n n c o.'.q.# * p ).V.- * ; J.W.7 # = @.D.u - % U n.L $ % x b.} * $ 3 t.&.$ $ % ^ &.% $ % @.w.y 0 i "
};
