/* XPM */
static char *dae305c82681423f924ee52ffefb6a688TcKCbjKcAWphnLi[] = {
/* columns rows colors chars-per-pixel */
"64 64 217 2 ",
"   c #020502",
".  c #030B04",
"X  c #080D05",
"o  c #030508",
"O  c #050D09",
"+  c #090E09",
"@  c #080201",
"#  c #051306",
"$  c #081306",
"%  c #061905",
"&  c #091A07",
"*  c #061309",
"=  c #091409",
"-  c #061B09",
";  c #0B1C0C",
":  c #101E0E",
">  c #10150F",
",  c #0E1C11",
"<  c #0E1610",
"1  c #111D14",
"2  c #0C220D",
"3  c #0D2A0E",
"4  c #062007",
"5  c #10250F",
"6  c #11290F",
"7  c #0E2311",
"8  c #0E2C10",
"9  c #112512",
"0  c #132C14",
"q  c #182D16",
"w  c #152E19",
"e  c #192E1A",
"r  c #142519",
"t  c #0E3213",
"y  c #153316",
"u  c #193517",
"i  c #133B15",
"p  c #193917",
"a  c #163319",
"s  c #19341A",
"d  c #163A1A",
"f  c #1A3C1C",
"g  c #0B320B",
"h  c #1D3E21",
"j  c #1B3723",
"k  c #213F21",
"l  c #154416",
"z  c #154B15",
"x  c #16421A",
"c  c #1C431D",
"v  c #164C19",
"b  c #1C4B1E",
"n  c #17531A",
"m  c #1A541C",
"M  c #1C5A1D",
"N  c #165517",
"B  c #1A621E",
"V  c #1E6A1F",
"C  c #1E4321",
"Z  c #1E4A22",
"A  c #1D5422",
"S  c #1E5B23",
"D  c #214423",
"F  c #224B24",
"G  c #254D29",
"H  c #284D2C",
"J  c #235326",
"K  c #235B26",
"L  c #25542A",
"P  c #29552B",
"I  c #265B2A",
"U  c #2B5C2D",
"Y  c #285627",
"T  c #2E5D31",
"R  c #2A5730",
"E  c #305E35",
"W  c #1F6422",
"Q  c #1E6E21",
"!  c #1D7222",
"~  c #236423",
"^  c #2C632E",
"/  c #2B6A2D",
"(  c #256A29",
")  c #30622E",
"_  c #217426",
"`  c #25762A",
"'  c #2A752C",
"]  c #2A7B2C",
"[  c #247828",
"{  c #2D6431",
"}  c #2E6A32",
"|  c #276330",
" . c #326534",
".. c #326B35",
"X. c #346D39",
"o. c #346739",
"O. c #2F7235",
"+. c #2F7F31",
"@. c #347336",
"#. c #397337",
"$. c #327D36",
"%. c #35733A",
"&. c #39743B",
"*. c #367A3A",
"=. c #3A7C3D",
"-. c #3B7C41",
";. c #29872A",
":. c #28882B",
">. c #2B952E",
",. c #2D8B31",
"<. c #338037",
"1. c #36813B",
"2. c #3C833E",
"3. c #3B883D",
"4. c #329B34",
"5. c #339639",
"6. c #2DA32F",
"7. c #2FA232",
"8. c #38A93C",
"9. c #38B83B",
"0. c #43813F",
"q. c #3D8442",
"w. c #3E8A43",
"e. c #3D9045",
"r. c #3DAD42",
"t. c #3EB747",
"y. c #418544",
"u. c #428C45",
"i. c #448B49",
"p. c #468849",
"a. c #429245",
"s. c #45934A",
"d. c #49954C",
"f. c #45994B",
"g. c #499B4D",
"h. c #459846",
"j. c #4C9D52",
"k. c #4B9553",
"l. c #509C56",
"z. c #45A14A",
"x. c #4AA24E",
"c. c #49AD4C",
"v. c #44AB48",
"b. c #45B54B",
"n. c #4DA553",
"m. c #4EAB54",
"M. c #4EAD59",
"N. c #51A453",
"B. c #52AC55",
"V. c #54A65B",
"C. c #55AD5A",
"Z. c #59AB5E",
"A. c #4DB653",
"S. c #4EB955",
"D. c #54B857",
"F. c #54B25A",
"G. c #58B15A",
"H. c #55BB5C",
"J. c #59BB5E",
"K. c #52B357",
"L. c #5CBC64",
"P. c #5AB963",
"I. c #61B666",
"U. c #63BB69",
"Y. c #61B966",
"T. c #69BC70",
"R. c #3EC641",
"E. c #40C347",
"W. c #44C44C",
"Q. c #59C25E",
"!. c #5CC462",
"~. c #5DCC64",
"^. c #5FD069",
"/. c #61C564",
"(. c #61CB66",
"). c #65C36C",
"_. c #68C36D",
"`. c #63C96A",
"'. c #69CB6F",
"]. c #62D366",
"[. c #64D46B",
"{. c #64D96C",
"}. c #69DB6D",
"|. c #62D864",
" X c #6BCC71",
".X c #67CB70",
"XX c #73C978",
"oX c #6BD672",
"OX c #66DB71",
"+X c #6BDB72",
"@X c #67D873",
"#X c #73D97C",
"$X c #69E16F",
"%X c #6CE273",
"&X c #6BE772",
"*X c #71E475",
"=X c #72EC75",
"-X c #72E37A",
";X c #74EB7B",
":X c #76F37D",
">X c #79DC82",
",X c #7CE484",
"<X c #79EB81",
"1X c #77E782",
"2X c #7BF383",
"3X c #76F380",
"4X c #88DB90",
"5X c #84EB8B",
"6X c #85EA8D",
"7X c #86F18F",
"8X c #8AF18F",
"9X c #88F191",
"0X c #91E399",
"qX c #B0FBBE",
"wX c #A7F3B4",
"eX c #B8FAC6",
"rX c #C6F9CF",
/* pixels */
"    F y.+   o 1 j +     F j.j @   q x.P     + X.P     . w.u.+   @ L X.=     e =.f @   > G f     . s h       q q       s D +     ",
"    U =X= @   1 E 1     [. .`.    G.} +X=    .{ d.9   P C.F.P   , l. . .    k /.P   @ 9 -.U     + G {     9 s f ; . ; U D f     ",
"      +X+       P ,     =X= ;X    (.f {.9   *.C q.s @ =.u.w.%.  e w.h *.    @ m.P       T T       q {     e r a 9   9 G q D     ",
"      %X+       P ,     &X= ;X    !.d ].r   =.D 3.s   &.q.i.@.  s e.C -.      B.P       U U       q }     s 9 u 1   0 H y D     ",
"      %X=       P >     ~.f.J.  o N.f.}.+ @ U q.N.2   C ~.!.F   = N.y.U       n.P @     U ^       9  .    7 k F ;   = { L u     ",
"      H         1 X     r { 1     > ^ q     . D e       G L       e D .       f 1       5 9       = 9       , ;       , q o     ",
"                        . .   @ o                 @     .                     .   o                                     .       ",
"    a.`.=   @ j ^ :   . u.OX&.  @ f J.=.    * i.u.  @ , `.].9 o   d.B.u     d.}.{ @   j f.P     e -.o.    # F F #   . T  .,     ",
"    9 $X=     + T 1   . &Xy %X.   * $.s.    . h j.    ..i.f.}   e g.F =.  . =Xd ~..   + o...    U y @.9   y e k 9   9 I f C   = ",
"      %X=       U :   . ;X2 ;X      ^ s.      a x.o   =.q.u.-.  f i.D q.    =X2 }.o     ^  .     .y ..7   s q f 9   9 G a F . < ",
"      %X=       U 1 . # *Xu -X.     ^ i.      a x..   @.i.a.o.  y g.F q.  . ;Xu ^.    . |  .    { a @.9   s a f 9   9 U s Z   * ",
"    o %X=       U ; . = N.@Xu.o     } d.      a n.  . 9 [.+Xw   . V.G.c     m.[.*.. .    ....   s =.*.+   = H P *   *  .o.7 . . ",
"      #         .   + < 7 y & .     o . .       +       = =     . . ;   .   X ; . .     . +     . = . @ .   . . .   . . * .   . ",
"    . s .     . & + # = y o.9 $   @ , q . . o C 0 .     + f X @ . . 9 $   . 2 I =   . * Z ;       = 1 . @   5 ;   .   . ; X   . ",
"    g.=X=     D @.7 = ; `.M.G.* . k [.i.o .  .h.J.r   . m.:XX   . =.!.q     ~.n.g.o   i.3.C..   ; &.@.  . 5 G P ; . . G %.; . . ",
"    . $X=       U 7 = 9 ;Xd <X; . . ..d.. X u.Y x.x .   . ;X.       B.0 . . ;X7 {.. . D.8 L.& . . u @.. . f s D 9 .   . } = . 7 ",
"    . %X=   .   ^ 7 = 9 <Xu <X; . . ..i.. X i.G c.x . . . ;X. .     B.q . # ;X; }.  . F.5 /.= X . e @.. . f s D w   . . } ; . 9 ",
".   . +X=       E 9 ; 9 #X@.oX2 $ . ..d.. . =...Q.p .   . ;X$ o . . B.e     *XU !.. . B.Z /.X   o s &..   a D F 9 . . . ..& . & ",
"    . f.#       D : ; r %.!.| 2 # . F { . X 1 s.=..   . . g..   . . &.7 . . ^ F.f . . f g.F . .   9 F   . # D h #   .   D = + = ",
"  .   .   . . .   $ ; w d u a 9 = + $ . + X . .   . . . X   . . . . . @ .     . . . . . . .   . . . . . .     . . .   .   . * - ",
".   U k.= o . h U 9 ; q T j...0 - c P.{ . + ; g.q.    # g.n.= . . F q.5 . . E B.f   . 9 &.G   . $ G J . . . y k . . . F U = * = ",
"    Y &X=   # %.C I 9 q E .Xy.8 ; P.U $X; . y.=.~.f . ^ C.F.U o . D !.y . . %X{ L.. . 9 d.&.. . = U *.. . . y { .   7 { H Z * 7 ",
". . . %X= . ; ..9 } 9 u c P.y.y 2 ~.x |.9 . f.J A.F   q.u.h.&.. . . D.q . . =X9 }.. + . X.=.. . . u *.. . o . ..  . a U s J = y ",
"    . %X&   : ..q  .9 s D I.i.u 4 ~.f |.9 . k.L S.Z . =.i.a.@.. . . H.a . . =Xr @X. . . ..=.. .   s =.  . . # o..   w T f P & w ",
". . . $X-   # &.^ L 9 f F Y.i.d 3 n.n.}.*   X.A.OX9 . Z @X`.F . X . H.u   . (.B.x.. . X X.=.  . . u $.. . . * } . X ; &.} h - 7 ",
". . . c O .   ; w - w f G @.U f 8 2 P 9   . # A f o . . D G . . . . f = . . 9 U ; . . . 9 9 . . . & q . . . . 9 . . . 9 q # ; 7 ",
". . . .   . . . . ; q f J I A x 0 * . .   . . X @ . . . . X   X . . . . . . . . . . . . . X . . . . #   . .   . . . . . # $ ; 9 ",
".   x.}.; .    .*.c w C Y.,XV.x 3 F ~.w.. . ; !.Q.. . . G.+X$ . . u.(.y . . &.].P # o Z Q.&.. . h u.q.+ . . U { . . X ..%.q 4 q ",
"  . ; %X- . ; &.y X.w Z 5X%.5Xb t 3 *.s..   . G [.. . . 2 :X# . . ; !.f . . - C.U . . - q.=.. . #.f 3.q . . - @.. . a / Z K ; f ",
"  . . +X; . 7 X.q ..q Z 7X} 7Xb i - ..s.  . . k (.. . . . :X$ . . . !.s . . . B.U # . . %.2.. . =.i 2.0 . . # %.. . u U d U 5 f ",
".   . %X; . , &.y ..u F 5X-.,XZ y 2 ' s.. . . f [.. . . X 3XX . . # !.s . . . B.U . . . *.-.. . %.f q.0 . . # #.. . q { C I 5 f ",
". . . %X= . . { =.D u D U.5XZ.Z i 4 O.s.. . X k .X. . . . 2X# . . . !.d o . O V.T O . . -.q.. . f s.q.* .   $ &.. . . @.-.y 2 q ",
"  . X # . . . . = ; y F } @.^ A d 4 % # . . . . # # . . . * . . . . # o . . . # . . . . # # . . # = * . . O O # . . * O # - 8 a ",
". . . ; . . o 9 k 2 y F -.Z...J l t %.y . . # { c . . . ; L . . . % D & * . # c 9 # * ; #.9 . . # Z t . + # y t . # . 0 f - 7 u ",
". . s Y # . = =.^ U y J >X).oXJ p K.f.}.= . =.B.+Xa . . V.3X# . . i.&Xf . . X.}.T . . H.a.[.# . | X.g., . y { ..8 # ; -...F r d ",
". . . J =   7 @.y #.s F 7X=.7XS x ].C |.y o m.T P.G . . # 2X* # # # !.f . # . C.U . * ^.y &X; # -.f w.y . F C P d O u { c { 9 d ",
". .   L * . 7 %.0 %.a J 8X#.8XK x ].Z {.q . B.U P.L . . * 3X= . . . ~.s # . . C.U # . ^.y &X2 . q.d y.u # G Z P f # s | c ^ 9 f ",
". . . P * . # q.G } a F 5XV.#XI x /...-X: . s.u.oXf # . . 3X# . # . (.s . * . B.^ . # !.^ %X* # @.U g.6 # f U { q # 9 %.U L 0 f ",
". . . s # . . f U 0 a F i.'.w.K b m n.U . . 5 k.=.. . . # k.* . . * 1.8 . # + X.c + . f n.L . # , X.J . . # F b # # # Z I 9 0 f ",
". . . . . . . . # 2 u F / } / K x 8 4 # . . . # . . # # + # . # . + O # . . * # . + + * . . . # # . # . # . # . # . # # # 4 q d ",
". . C D * . . J ..u y Z p.).a.K b ^ !.&.. . y L.l.* . . -.C.# . # i.J.a # . @.Q.F # . i f.^ . . 9 w.X.* # . Z T # . # U ..q q f ",
". 8 Z h q . & q.Z O.y Z q.>Xn.~ b !./ %X2 X g.=. Xh . # P 2X# . u ].<.s.. # &XI !.# $ 9 x.q.# # -.L g.8 # # d q.# # 0 %.U I 0 f ",
"+ w f u f . 9 %.y =.y J /  XB.( n {.Z {.0 # B.U P.L # . # 3X# # F D.U m.# # ;X5 @X# # * q.q.# . q.x e.u # . * q.. . f { c / 0 f ",
". 0 D p s # 9 =.a 1.u A ' XXZ.( A {.m OX0 . B.^ Y.J . # . 3X- . F Q.I N.* % ;Xq }.# # . =.q.O # w.c i.d * # * q.# # d } D ^ y f ",
". % P L 2 # # e.<./ i K $.>XH.` m K.P.OX# . O.!.1X7 . . # 3X# * ; }.!.O.* * ^.F.g.# * # =.q.O * | u.N.5 = * # w.# # - q.=.Z q d ",
"# # ; ; # . . , d 3 b ' 5.A.r.,.B x ^ 0 # # # F a * # # = b # . * y Z * * O 7 A & # . # 8 8 # * = h q * = = # t * # * 9 s ; 0 f ",
". . # # . # # . % t S 5.r.S.t.8.! z d % # O # 7 - O # * o * # # + # # + # # # 7 # # # O = - * . = & & * = & # * # * # # # ; 0 d ",
"X % T U 9 . + ..A.~ ` r.0XwX5X9.;.B.oX/.# + L @X@X2 . # !.<X- . * j.%Xd O # K.[.q.* * L {.q.# # q n.u.= = = @.w.# . # ..e.y 0 d ",
"X y b h p . # & c._ >.v.eX).eXR.>.1XI *Xw # N.) U.H # # - 2X- + $ % ~.f * # 3Xy [.# # = 0.3.# # = G a.= = = 4 p.# # # % 3.y 0 d ",
". f Z f x . # # c.] 4.c.rXT.eXW.7.,XI +Xa + B.^ L.L # . # 2X- * # % ~.f # # 1X3 }.# # # -.q.= = = D f.= = = & i.# = = # 3.y y x ",
". y F h i # . - c.] 4.v.eX>XeXW.6.>XI -X7 # n...).F # # # 2X= # # # ~.f * # ;Xc ].# = # -.q.= $ * C a.= = = & i.# $ $ # e.y t x ",
". * I U ; . * * r./ ;.r.4XeX>XR.>.s.1Xn.# # c oX).= # # * ;X* # $ # L.d * # d.%X} * * # -.2.# $ # h u.* * * - y.# = # # u.a d A ",
"* # * # . # O * - i W 7.r.t.t.9.;.N g % # # * # # * # . = # # + # $ # $ = = * $ # = = # . & # # # # # * * = $ # # = # # % 6 b ~ ",
"# . y f # * * 2 Z i b ` 5.r.9.6.! M a.b # # % -.U # # # o.%.$ # # 8 U 5 # * 2 J s # = & F Z # # %  .c # # # 0 x # # = 3 J x M ] ",
"# 7 U L y * + J v.p 8 m ` ,.,.:.B !.h.-X; # q.n.#Xs # P ).!.I * # q.%Xf * * o.}.{ * $ Z (.q.# # &.=.B.3 # # } s.% = # / S.M _ <.",
"# a Z C c . * # w.y - i S ( ! ! N +XA +Xy X B.^ P.L * y.s.g.-.* # $ ^.f # # # C.| # * # 2.w.# # i.b g.f % = % d.% # # % c.W [ <.",
"# f G f x O # # 1.y % 0 v M V V N OXA }.y = C.^ P.P + w.s.g.-.* * # ~.f # # * K.{ # * = 2.w.= % s.x x.p & # % s.$ % * - A.W ` $.",
"+ 0 I J f * # # q.t = 6 x m M M N !.3.*X; # i.f.+Xf # T L.L.| = # $ ~.f # # * M.^ # % = 1.w.# % -.%.A.t * = & d.% # & % c.M V +.",
"* # f C * * # # C 2 # 3 i v M M z A g.P * * 2 i.X.= # - -.q.& * # $ @.6 % = = { c = % * F J # = 2 &.L = % * & Y # % = % / i M ` ",
"# # $ $ # # * # * = * 2 i z m n z i 8 & * * # # # = * = # # % * % & # $ = # % * * # * # % * = # # = = $ % # & & = # # * & 3 x m ",
"# # K ^ ; # = Z @.q = 4 t x N v v O.[.u.# * p `.Z.; = ; L./.9 # = %.C.f % % U M.P % # c x.O.= # 3 y.*.& = % ^ *.% $ % *.e.y 8 i ",
"# y U F f $ $ q y.y = 2 t l z m x ~.| +X7 * x.=.`.D * @.N.B.o.# # Z [.f = % s !.^ # * q x.0.$ & ; ..g.# # % f g.% $ i w.| / 2 0 ",
"# f Y Z F $ * * =.a = 4 g i z v z {.A {.y * B.{ J.L * p.d.d.2.% = % ^.x = % % B.^ # % * w.u.= % ; b z.# % # - g.% $ x @.A @.- 3 ",
"# x K D Z * = * =.y # - 3 i z v v ].J +Xy * B./ Y.J = -.d.g.#.= = % (.p % # # K.{ % % % 1.q.= - & b z.= * % 4 j.% % C *.J } % ; "
};
