/* XPM */
static char *result[] = {
/* columns rows colors chars-per-pixel */
"64 64 214 2 ",
"   c #020602",
".  c #030B04",
"X  c #080D05",
"o  c #040608",
"O  c #050D09",
"+  c #090E08",
"@  c #051306",
"#  c #081406",
"$  c #061906",
"%  c #091907",
"&  c #061409",
"*  c #091409",
"=  c #061909",
"-  c #0B1C0B",
";  c #101E0E",
":  c #0E1C12",
">  c #111E13",
",  c #0C220D",
"<  c #0D2A0E",
"1  c #062109",
"2  c #10260F",
"3  c #10280E",
"4  c #0D330D",
"5  c #0E2411",
"6  c #0E2B11",
"7  c #112512",
"8  c #132C14",
"9  c #182E17",
"0  c #152E19",
"q  c #182D1A",
"w  c #142519",
"e  c #0F3312",
"r  c #143316",
"t  c #193517",
"y  c #133B14",
"u  c #193917",
"i  c #163319",
"p  c #19341A",
"a  c #163A1A",
"s  c #1A3C1C",
"d  c #1D3E20",
"f  c #213F21",
"g  c #134314",
"h  c #144A15",
"j  c #16421A",
"k  c #1C431D",
"l  c #164B19",
"z  c #1C4A1E",
"x  c #17531A",
"c  c #1B541D",
"v  c #1C5A1D",
"b  c #165517",
"n  c #1A621E",
"m  c #1E6A1F",
"M  c #1E4321",
"N  c #1E4A22",
"B  c #1D5422",
"V  c #1F5B23",
"C  c #214422",
"Z  c #224B24",
"A  c #244D29",
"S  c #284B2B",
"D  c #235326",
"F  c #235B26",
"G  c #255429",
"H  c #29552B",
"J  c #265A2A",
"K  c #2B5C2D",
"L  c #285627",
"P  c #2D5D31",
"I  c #2A5730",
"U  c #305E35",
"Y  c #1F6422",
"T  c #1E6E21",
"R  c #1D7222",
"E  c #236423",
"W  c #2B632E",
"Q  c #2A6A2D",
"!  c #256A29",
"~  c #30622E",
"^  c #217426",
"/  c #25762A",
"(  c #2A752C",
")  c #2A7B2C",
"_  c #247828",
"`  c #2D6431",
"'  c #2E6A32",
"]  c #276330",
"[  c #326534",
"{  c #326B34",
"}  c #346D39",
"|  c #346739",
" . c #2E7235",
".. c #2F7F31",
"X. c #347335",
"o. c #397337",
"O. c #327D36",
"+. c #35743A",
"@. c #39743B",
"#. c #367A3A",
"$. c #3A7C3D",
"%. c #3B7C41",
"&. c #29872A",
"*. c #28882B",
"=. c #2B952E",
"-. c #2D8B31",
";. c #338037",
":. c #36813B",
">. c #3B833E",
",. c #3B883D",
"<. c #329B34",
"1. c #339639",
"2. c #2DA32F",
"3. c #2FA232",
"4. c #38A93C",
"5. c #38B83B",
"6. c #42823F",
"7. c #3D8442",
"8. c #3E8944",
"9. c #3D9045",
"0. c #3DAD42",
"q. c #3EB747",
"w. c #418544",
"e. c #428C45",
"r. c #448C49",
"t. c #468849",
"y. c #429245",
"u. c #45934A",
"i. c #49954C",
"p. c #46994B",
"a. c #4A9B4D",
"s. c #459846",
"d. c #4C9D52",
"f. c #4B9553",
"g. c #509C56",
"h. c #45A14A",
"j. c #4AA34D",
"k. c #49AD4C",
"l. c #44AB48",
"z. c #45B54B",
"x. c #4CA553",
"c. c #4EAC54",
"v. c #4EAC58",
"b. c #51A454",
"n. c #52AC55",
"m. c #54A65B",
"M. c #54AD59",
"N. c #59AB5E",
"B. c #4DB653",
"V. c #4EB955",
"C. c #54B857",
"Z. c #54B25A",
"A. c #59B05C",
"S. c #55BB5B",
"D. c #59BB5E",
"F. c #52B357",
"G. c #5CBC64",
"H. c #59B862",
"J. c #61B666",
"K. c #63BB69",
"L. c #61B966",
"P. c #69BC70",
"I. c #3EC641",
"U. c #40C347",
"Y. c #44C44C",
"T. c #56C25D",
"R. c #5CC25F",
"E. c #5DC363",
"W. c #5ECD64",
"Q. c #5FD069",
"!. c #61C465",
"~. c #61CB66",
"^. c #65C36C",
"/. c #68C36D",
"(. c #64CA6A",
"). c #69CB6F",
"_. c #62D366",
"`. c #64D36B",
"'. c #65DA6C",
"]. c #6ADB6D",
"[. c #67D86A",
"{. c #6ACC70",
"}. c #73C978",
"|. c #6BD672",
" X c #66DB71",
".X c #6BDB72",
"XX c #67D873",
"oX c #72DA7A",
"OX c #69E16F",
"+X c #6CE373",
"@X c #66E070",
"#X c #71E375",
"$X c #72EC75",
"%X c #72E37B",
"&X c #74EB7A",
"*X c #76F47E",
"=X c #78F37D",
"-X c #79DC82",
";X c #7CE484",
":X c #79EB81",
">X c #77E782",
",X c #7BF383",
"<X c #76F482",
"1X c #88DB90",
"2X c #84EB8B",
"3X c #85EA8D",
"4X c #86F18F",
"5X c #8AF18F",
"6X c #88F191",
"7X c #91E399",
"8X c #B0FBBE",
"9X c #A7F3B4",
"0X c #B8FAC6",
"qX c #C6F9CF",
/* pixels */
"    s.(.*   o d K :     e. X@.  o p D.6.    & e.8.o   - ~._.7 o o i.b.p     s.].{     p i.I     i $.|     & Z Z +     P [ : o   ",
"    2 +X*     + K >   . +Xu +X    # #.r.      M j.  o } u.s.{   9 a.A $.    &Xa Q.    + { {     K r o.5   9 q s 7   7 J s M o * ",
"      ].*       H -   @ &X1 &Xo     W u.      9 j.    $.w.e.@.  p e.C w.    &X, OX    . P [     ` r } , o t 8 f 7   0 A p Z   : ",
"      +X&       K > . @ #Xi %X.   . W r.      i j.o   X.e.u.|   t a.Z 7.    $X0 Q.      ` [     ` r X.7   t t s 7   7 J a N   & ",
"      .X-       K : . + b..Xe.o     ~ u.      q x.  . 7 `.|.9   o b.A.s   . c.[.@..     [ {   . p %.@.X . # H H #   . [ } 7     ",
"      *         X   . - - p % @     + X       . X o     * * o   . @ -       . , .       . O       * .       . .     . . O .     ",
"    . p .     o - O O - i | 7 X o o - w . . o C 8       # f       O 8 *     ; J # o . # Z -     . * > .   o ; ;   . . . - .   O ",
"    s.$X*     f o., * - ~.M.Z.&   f [.u.. o [ s.D.7 .   c.&XX o . $.E.9 .   W.x.j.o   r.>.m..   - @.} . . 2 S L ;   . S @.-   @ ",
"    . OX%       K 5 * 5 :Xa >X- . . { u.. . t.D j.k .   . &XO       n.8   . &X2 [.O . F.3 L.- . . q +.. . p p f 8 . . . Q %   5 ",
"      +X&     . P , - 7 :Xp :X- O   ' u.. . e.A k.z   . . $X.   . . n.8   . &X, [.. . C.2 !.%     t } . . f p C 9   . . ' -   7 ",
"      +X-       [ 7 - 7 oX+.].; X . } i.X . 6.[ T.a     . &X@ .   . n.9 . . oXK E.. . c.Z !.X . . q o..   p C Z 8 .     { - O - ",
"    o i.@       f : - w +.G.W , @ . Z ` X . > u.$.. . . . d.. o .   o.2 . . K F.s o . s a.Z .   o 7 Z . . O k f .   . . C * @ & ",
"      .   o       O - 9 p u p 5 & o # o . X o O   . . . .   . . .   .   . o .   .   . . . . . . .     .   .   .   . . o   . O - ",
"  . K p.* o   k K 7 ; 9 W d.[ 8 - M M.' X O , a.7.    @ a.x.* o O Z 6.2 . . [ F.s . . w @.S .   # G G . . . r C . .   Z K % & * ",
".   G +X* o # +.f K 2 9 P ).w.r , S.W @X- o %.$.W.s . ~ M.F.K . . C R.i o . +XK D.. . 7 i.@.. . * J #.  . . 8 [ . . 5 [ S M & 5 ",
"    O +X- . - { 7 W 7 t k H.w.r , W.j Q.9   s.F B.Z   $.r.s.@.  . . C.t . . &X7 ].. O . } $.  . . p #.. . . @ [ . . i K p G % 0 ",
"  . . +X-   , { w { 7 p M L.r.r 1 ~.s _.8   d.H C.N   $.r.y.+.. . . S.t   @ $X7 |.. . . X.#.  . . t $.    . # '   . 0 K s A % 0 ",
"  .   +X-   @ @.W G 7 s Z L.r.a < x.x.[.@   ' B.OX7 . M XX`.Z . . . S.0 . . Q.M.a.. X . X.#.. . o p #.. . . @ ' . . - +.' d - 5 ",
".   . z @ .   - 0 = 9 s Z } K s 6 , H 8     @ B p X . . C Z   . . . u % . . 7 J - . . . 7 7 . .   # 8 . . . O 7 . . . 7 9 # - 7 ",
". . .       .   @ - 8 s L K B j 8 # @   . . . o .   . . . . O O .   @   . . . . . . . . O O . . . @ @ . . O .   . . . . . # - 7 ",
". . j.].= .   { #.k 9 k L.;Xm.k 3 C ~.w.O . - E.T.. . . A..X@ . . t._.t . . +.`.H @ . C E.+.  . f e.,.# .   L ' . . # o.+.9 - 8 ",
".   - +X-   - @.i { 9 M 2X+.3Xz 4 2 O.u.  . O A _.O . X , <X# . . - !.p . . - M.P . . % 7.>.. . X.s >.8   . % } .   9 ~ M F , s ",
".   . +X* . 5 } 8 X.8 N 4X' 6Xz y - ( u.. . . s ~.. . . . =X@ . . . R.p   .   n.K . . . +.%.  . #.y >.i . . $ +.. . t K s K , s ",
". .   .X: . - @.i } i N 2X7.:XZ y 1 { u.. . . f _.. . . . =X# . . @ E.p . . O c.K @ . . #.7.. . $.a 6.8 . . @ +.. . i W k L 2 s ",
"  . . .X- . . [ $.C t Z L.3Xm.z y 1 X.u.O   . k ).. . . & ,XO . . @ E.s . . . m.P O @ . %.7.. @ a u.7.O . . @ +.@ . @ } %.r 5 0 ",
". . . @ . . . . @ - t C { #.K B a , $ @ . . O . # @ .     @ .   .   # o O . . @ . . . . @ . . . . & @ @ O . . @ @ . . @ @ % 5 i ",
". . O , . . o 2 f 5 t Z %.N.{ B y e +.r . . O { C . . . , A @ . . $ C - @ O $ k 8 O O 1 o.8 . . @ Z 6 O O . i 9 . @ . 9 s 1 7 p ",
".   t G X . # $.K K i Z oX/.}.F s F.y.'.# . $.n..Xr . . b.,X@ O @ r.+Xa . . } '.K O X Z.e.`.# . ` } p.: . y ] } < . - %.{ A 7 r ",
"  O . D X . 7 +.0 +.p A 4X#.4XB j `.M '.8 O b.K G.G . @ . *X& . . @ R.p . . @ c.K @ O Q.y +X, . %.a 8.i @ Z C H s . i ' k W 7 p ",
". O . A * . 7 +.r #.p Z 5X#.5XF j `.M '.8 O c.K H.A . . @ =X& . . @ W.p @ . O n.K . . '.r +X, @ 7.a w.p . A C L s @ p ] k ' 7 s ",
".   . L & . $ %.Z ' i A ;Xm.oXJ j R.X.#X- . s.t.|.s O . @ ,X# . . @ ~.s @ O O n.W @ @ E.W +X$ . o.K s.8 @ j J ` i @ 8 +.J H 8 s ",
". . . s O   . k K 8 i A u.).e.F l D x.J . O , a.%.. . @ . f.@ . @ . #.8 . O X } s O . s b.Z O O - } D O . # Z Z @ . . Z F 8 8 s ",
". . . . . . .   . , r Z Q X.' F l < 1 # . . . @ O . @ . O @ . @ . O @ O . @ O @   & o O @ O . . @ @ . @ @ . @ . @ . @ O @ , 8 s ",
". . k C % . O L X.p r N w./.y.F k ] E.#.@ @ 3 L.g.@ . @ %.m.@ . @ u.D.9 @ . o.T.N @ @ u s.W @ . 8 8.} . . @ z K @ @ . K { 8 9 s ",
"O 6 C M r . - $.z } 9 N 7.-Xx.E z ~.Q #X, . a.$.).M . . G ,X@ . t _.;.y.@ @ +XF E.@ @ 6 x.7.@ @ $.H s.8 @ . a 7.@ O 6 @.H W 8 s ",
". 0 s a u . 7 #.r #.t D W ).n.! l '.z [.r . c.P H.D @ . & ,X$ @ Z Z.K c.@ # &X3  X@ O O $.7.@ O ,.s 9.a @ @ & 7.. & a ' z Q 8 s ",
". 8 C u s . 5 %.r :.p B ( }.M.! c '.B .X6 . v.W L.G . . @ <X$ . N T.K x.@ $ &Xw '.# @ @ %.7.. & 7.k u.s O @ # 7.@ & a ' M ' w a ",
". - L D , @ @ 8.:.Q y F O.oXH./ v F.H.|.$ . +.E.;X7 . @ @ ,X@ . - @XE.} . $ ~.C.p.O @ @ %.7.& . ` e.b., & @ # 7.@ & = 7.$.N 9 a ",
"@ . - , . . O 5 a 8 z / <.B.0.-.n g W 7 . @ & N t O @ @ & z @ @ O i M & & & 7 D % @ . @ 6 r @ @ % d w # & * & 0 O @ @ 5 9 , 3 s ",
". O @ @ @ . @   $ e V 1.0.T.q.3.R g j = @ O & , # & . @ O & . @ & @ @ & . . $ 5 @ @ & @ @ & @ @ & % - & & % @ @ @ & @ @ # , 8 s ",
". % I K 7 O O { B.m ) 4.7X9X2Xq.*.n.|.!.@ + I XX.X5 & @ H.:X& @ & d.+Xa & @ Z.`.7.& & G '.7.@ O w x.u.* * % +.w.@ . @ [ e.8 7 a ",
"O r N d u O @ - k._ =.l.0XP.8XI.=.%XJ +Xw @ b.' K.A O @ = ,X& & @ $ W.a . $ >Xy `.@ @ & 6.,.@ @ * Z y.* * % - 8.$ # & # ,.y 8 j ",
". u k s k . . $ l.) <.k.qXP.qXY.3.2XD +Xt O n.K G.G . @ $ ,X- & @ $ W.s @ @ >X< .X@ & @ 7.7.O * * Z u.* - + & r.@ & O @ 8.r r a ",
"@ 8 A k u . @ # k.) <.z.qX}.0XY.3.;XK %X5 @ b.{ ^.N @ @ @ ,X= O @ # ~.s O $ &XM _.@ * @ %.7.# & & M u.* * * % r.@ & * @ 9.r r j ",
"@ & J K % @ . $ h.! &.0.1X0X-XI.=.s.>Xx.# @ s |.K.- @ @ $ %X# O @ @ R.a * @ u.+XW @ & & %.$.@ & @ f w.# & @ % w.# @ # # 8.a a c ",
"& . & @ @ @ O & 1 e m <.q.z.I.5.&.h 4 = @ @ & # & & & . & # @ @ @ @ # # X * & # @ * + & @ @ $ # @ @ # & & & & @ @ @ # @ $ 3 l E ",
". @ r p & & & 1 N y l / =.4.5.2.R b s.M @ @ $ %.J & & # } } # @ O 8 K 6 & & , D t @ # - Z M @ # # ' k # @ @ 8 j # @ # < D k v ) ",
". 5 K G r & O G l.a 8 c / -.-.*.n E.s.#X- # 7.x.oXp @ H ^.E.J O @ %.+Xs & & [ .X` & & N !.8.@ # o.#.M.6 @ @ ' u.$ # @ ! V.v ^ ;.",
"@ a N M k O @ @ 7.y - y v T R R v  XV +Xi @ n.W L.D * w.u.p.%.& @ $ W.s @ @ @ M.] @ & @ ,.7.# $ u.N p.a % & - i.$ & @ $ k.Y / ;.",
"@ a N d k & @ @ %.y - < h V T T b '.B '.i O M.] G.L + w.u.a.%.& & $ Q.s # @ @ M.` * % % :.8.# # u.k a.j # # $ i.$ $ $ - k.Y / ;.",
"& 6 K H p & @ @ $.e & 8 j x F v h E.,.+X- @ r.i..Xs # P L.L.] & O # W.s # $ @ v.` # $ # 7.7.# $ 7.X.F.6 $ & % a.@ & @ $ k.v T ..",
"O @ a M # @ @ O N 5 & , y h v v h F a.H & @ , r.} & & % $.7.* $ # # X.7 & @ & ' s # & & N A & # , +.G & # # % L $ @ # % Q y B / ",
"@ @ # # O @ @ @ @ # % , y j x c h y < % & & $ $ & & @ * # $ $ # @ # # # # % @ & # & & # $ & & & @ # & # # # # % # # # O - , g B ",
"@ # J W - @ & Z o.w * 1 e j x x l X.`.8.@ & p !.N.* & - G.G.5 @ & #.F.p $ # K v.G $ $ k c.' # # , 7.#.@ # # W #.$ # $ #.9.y 6 g ",
"@ r K A k # # 9 w.y & - e g h x j ~.] .X5 & j.$.).Z @ } x.n.} # $ M `.M $ $ p E.W # * 7 j.7.# # , } h.$ $ @ j a.$ # y ,.] W , 6 ",
"@ s D N N # X & $.0 % = 6 y h x j '.B '.y & n.W H.H @ t.u.f.$.$ $ & W.s # # $ F.W $ # & 7.e.$ & * Z h.# $ # = a.$ $ k #.B  .- , ",
"O j F N M & & & $.p # - < y h h h Q.V ].0 & M.W E.D # %.f.a.$.% # $ W.s & # $ F.` $ & $ :.8.# $ $ N h.& & $ - d.$ # M #.B ' $ 5 ",
"# , X.} 9 @ O @ %.y # 1 6 y h h g x.E.`.% # { (.%X3 $ k .X+XN * # $ Q.j # $ # v.` $ $ $ 7.8.& - - N j.& % $ - d.$ $ , u.t.M % = ",
"# # , 3 # # # $ 5 - @ = 6 y g h g y V w $ $ @ k 9 & # & s a % & & % a = % % & p 5 % & $ 6 e & $ # , y & & % $ i & & $ w e - $ = ",
"# * # & & & @ @ # % # = < y g h g e M 1 $ $ # r , & # # $ - & % % , y # & % $ = - $ = $ $ = % $ # $ 1 % & % < , % % $ 1 5 % % = ",
"@ @ W %.- & & [ f.y & = < e g h g p.E.~.$ & ` `.#X< & $ E.<X1 & - ].(.' % % 7.+XW $ $ J .X8.= = r S.j.& % a s.p.i $ , u.r.k % % ",
"@ # $ $.% # @ $ 7.r % = < e g g g Q.B  Xr # c.` G.F % $ % =X- % Z T.Q x.$ # $ Z.` & & % 7.8.= & $ A j.% & ' P +.Z % k #.G ' & = ",
"@ @ @ #.- $ & # 7.r $ $ < e g g y [.B '.y & v.W D.F # $ $ =X1 $ D C.] c.$ $ $ v.] % = $ 7.8.= = % A k.% $ ' ] +.D % N X.B ' $ $ ",
"@ & $ $.- # # # 7.a $ = < 4 4 g y W.V #X6 = j.X.!.B # $ $ *X- $ k W. .a.$ & - M.] = = $ 7.8.& = = N x.- # K ' >.N - s 7.J Q = = "
};
