/* XPM */
static char *_4d4ef0ef9ef4442c2e6e1b2940270cbsqeffX8hGZCgvvt4[] = {
/* columns rows colors chars-per-pixel */
"64 64 208 2 ",
"   c #020402",
".  c #080201",
"X  c #030B04",
"o  c #080D05",
"O  c #040409",
"+  c #09060A",
"@  c #050C08",
"#  c #0A0D0A",
"$  c #041205",
"%  c #081206",
"&  c #051A05",
"*  c #091A07",
"=  c #061309",
"-  c #0A140A",
";  c #061C0A",
":  c #0C1B0D",
">  c #101D0E",
",  c #10150F",
"<  c #0F0E11",
"1  c #110F12",
"2  c #0C1510",
"3  c #0E1D11",
"4  c #141514",
"5  c #181717",
"6  c #121C13",
"7  c #18161A",
"8  c #171919",
"9  c #191A1B",
"0  c #0D220D",
"q  c #0D2B0E",
"w  c #10240F",
"e  c #11280E",
"r  c #0E2311",
"t  c #0F2C11",
"y  c #122413",
"u  c #1A2617",
"i  c #132B14",
"p  c #182D16",
"a  c #152618",
"s  c #19231D",
"d  c #162D19",
"f  c #1A2D1B",
"g  c #0E3313",
"h  c #153216",
"j  c #143A15",
"k  c #183817",
"l  c #163319",
"z  c #1A341B",
"x  c #163A1A",
"c  c #1B3B1C",
"v  c #1A3317",
"b  c #1E2F20",
"n  c #1D3D21",
"m  c #1B3723",
"M  c #233424",
"N  c #203F21",
"B  c #134414",
"V  c #16441A",
"C  c #1C431D",
"Z  c #1C4B1E",
"A  c #174F1A",
"S  c #1C541F",
"D  c #1C5919",
"F  c #1B651E",
"G  c #1E4321",
"H  c #1F4A22",
"J  c #1E5323",
"K  c #1E5B23",
"L  c #214423",
"P  c #234B25",
"I  c #254D29",
"U  c #2A4E2C",
"Y  c #2A432A",
"T  c #235226",
"R  c #285027",
"E  c #235B26",
"W  c #255429",
"Q  c #2A552B",
"!  c #265B2A",
"~  c #2B5C2D",
"^  c #285B27",
"/  c #2D5D31",
"(  c #2F5734",
")  c #305E33",
"_  c #256526",
"`  c #2C632E",
"'  c #2C692E",
"]  c #26692A",
"[  c #30622E",
"{  c #2A752C",
"}  c #207622",
"|  c #2E6432",
" . c #2E6A32",
".. c #326434",
"X. c #326B35",
"o. c #36643B",
"O. c #346D39",
"+. c #386F39",
"@. c #39663C",
"#. c #2F7235",
"$. c #347235",
"%. c #397337",
"&. c #327C36",
"*. c #35733A",
"=. c #39743B",
"-. c #367A3A",
";. c #3A7C3D",
":. c #386540",
">. c #3C7C41",
",. c #467A4D",
"<. c #2E8D2F",
"1. c #36813B",
"2. c #3C833E",
"3. c #339639",
"4. c #32A638",
"5. c #3D8342",
"6. c #3E8A44",
"7. c #3EBA49",
"8. c #428443",
"9. c #428C46",
"0. c #428449",
"q. c #488248",
"w. c #448C4A",
"e. c #4A8D49",
"r. c #429246",
"t. c #489747",
"y. c #45924A",
"u. c #49954B",
"i. c #459A4B",
"p. c #4A9B4D",
"a. c #429845",
"s. c #50934F",
"d. c #4D9C52",
"f. c #4B9655",
"g. c #529556",
"h. c #509C56",
"j. c #4AA24D",
"k. c #41AA47",
"l. c #40B045",
"z. c #4DA553",
"x. c #4EAB54",
"c. c #51A553",
"v. c #51AB55",
"b. c #54A65B",
"n. c #55AD5A",
"m. c #5AAB5E",
"M. c #4DB653",
"N. c #4DBF53",
"B. c #52B256",
"V. c #54B857",
"C. c #55B25A",
"Z. c #58B15A",
"A. c #55BB5C",
"S. c #59BC5E",
"D. c #5CBD62",
"F. c #5AB963",
"G. c #61B666",
"H. c #62B968",
"J. c #61B966",
"K. c #56C15C",
"L. c #5CC25F",
"P. c #5CC463",
"I. c #5ECB64",
"U. c #5DC869",
"Y. c #5FD069",
"T. c #61C564",
"R. c #61CB65",
"E. c #68C36D",
"W. c #63CB68",
"Q. c #69CB6F",
"!. c #63D366",
"~. c #64D46B",
"^. c #65DA6C",
"/. c #69DB6D",
"(. c #65D667",
"). c #6BCC71",
"_. c #67CB70",
"`. c #73CC76",
"'. c #65D671",
"]. c #6BD671",
"[. c #67DA71",
"{. c #6ADC72",
"}. c #6BDE78",
"|. c #72D37B",
" X c #79DF7F",
".X c #71DE7C",
"XX c #6BE16F",
"oX c #64E26E",
"OX c #66E070",
"+X c #6DE272",
"@X c #6DEA73",
"#X c #72E574",
"$X c #72EB76",
"%X c #72E279",
"&X c #74EB7A",
"*X c #76F37D",
"=X c #79DB80",
"-X c #7EE685",
";X c #7AEB81",
":X c #79E783",
">X c #7BF482",
",X c #76F380",
"<X c #84EB8B",
"1X c #89EF8E",
"2X c #86F18F",
"3X c #8AF18F",
"4X c #87F090",
"5X c #88F191",
/* pixels */
"      {.= O     L :     +X: %X      ` y.      3 %.    =.8.9.%.      %.:       z.Q     =.: >.@   1 M ) +     X +X@ 4 M L y c   - ",
"      OXo       P -     W.8.K.      ` r.      6 $.    P K.S.P       =.-       c.Q     +.W ,.@ o 1 s ) +     o +X  O s ( L u     ",
"    O /         r +     p +.y O     a N       @ f       ( ~ O       p @     O N a     4 U s 1 4 5 9 M 5 #     /     O > i       ",
"      O                 O     O     O .                                                 4 1 4 5 5   o 5 # . O O                 ",
"  X S.I.y     d P -     ;.~.X.O   ~ ~.r.    o ..|     - T.P.>   O U *.2     6.(./   O L ,.:.4 7 s Q U 9 < s P.P.- O   P R 2     ",
"  E z.q.%.O   o T -     #Xf {.O O S.C {.4   O m ;.    [ u.t.[     : 2.3     #Xz I.  O -.i g.4 + 7 N o.4 4 q.8.c.Q   : P d z   - ",
"  X.t.>.8.      I :     #X% #X    R.x ~.a     y >.  O ;.8.9.%.      =.y     &X: [.    w.u g.=   + M @.< 9 s.*.p...  y L i c   - ",
"  ! p.5.-.      P :     #Xw +X    T.k ~.>   O y ;.  O X.9.9.X.O     ;.:     &Xi ~.    w.u g.2   1 M ) 5 5 e.=.p./   6 I i m   - ",
"  2 ^.^.z       I 2     c.R.r.O   ,.L.S.X   O y ;.  O y ~.(.d       =.3     n.I.5.O # o.q.,.4 4 5 f @.5 4 z ~.{.y   @ Q ~ :     ",
"    : 6 O       @         a O O O   y $       X #       > > O O     = @     X a     .   a # 8 4 # 5 u 4 @   6 : O     o o O     ",
"    u m       o 6         = ,     O o 6       a , .     O w       - u       - Y . O   O o =   O 4 4 4 O O O v a O O     o O     ",
"O a (.R.L     ~ U l     ..+X[ .   m ~.r.    L =.y.-     v.&XO   o y.5.L     I.B.i.O   p y.R     - [ ~     L R.!.z O   L ..o     ",
"  | p.>.;.  * ^ > P     O d...      ` e.    X.c ;.h       &Xo   d 1.c O.    $Xy ~.      I Q       a ~     5.=.p.`       ~ -   - ",
"  | u.;.,.O - W : P       p.~       ' 9.    %.c =.l     O &X+   d ;.c *.  X $X: /.X     W Q       a `     w.=.p.|       ~ =   - ",
"O R n.y.$.  o ) u P       d...O O   | y.    o.P 2.a     X $XO   r w.T ..    +XP P.      Q Q       u |     $.w.x.W     X ~ -   X ",
"  o p.B.:     z Q -       =.Y       P ..    > ;...        n.O   O ` 8.:     X.D.L       N L       6 L     - v.c.o       L %     ",
"      o         O         O   O O . X                               O             .   X         O O                             ",
"    I 8.#   O 4 m -     Y c.z     h p.Q     % O.Q O   X 9.9.o O   Q =.-     f -.z     1 T x     o v c X     h p   X   z Y $     ",
"    ! @X= .   y ) :     ^.| W.O   Z.X.+X=   ....t.y   ! v.n.^   > d.....    L T.~   O y >.~   X o I [     y z c :   : ! L v     ",
"    O /.-   O   ! :     @X% &X    R.x (.a   -.L 5.z . ;.6.r.$.  v 8.c ;.  X X x.Q       ~ [     O i  .    f i z y   i I l P     ",
"      +X-       ~ 6     #X- &XX   P.x (.y   ;.L 5.v   -.6.w.*.  z 6.G >.    X z.~ .     ! |       i |   X d i z y   i I h L     ",
"      OX#       Q :     U.y.A.O O c.t./.o O ~ 2.z.r O L P.P.P   = c.8.~       z.Q     X ~ [     X u X.    0 C L -   = | Q v   X ",
"      U X       y o     i | 3     : ` p X   O L v       T W X     h L o   X   m y       0 y X     = y       : 0     X r i X     ",
"                .       X X X   O   X                   X           o         X                   X     X         X           X ",
"    t.R.=     N ~ :   o 9.[.*.  . z S.;.X   $ 9.6.O   : R.(.y O X e.v.x     i./.X.    z u.Q X   d -.o.@   % P I $   X ( ..3     ",
"    y +X= X   = / 6   X +Xj +XX O * *.u.    X G j.    O.e.i. .  d p.T =.    &Xx I.  O % X.X.    ` h $.y O i v c y   r ~ x G @ - ",
"X   X XX-       ~ 0   $ &X0 &X      ' y.  X   d j.    ;.6.9.>.  c r.L 8.  X &X: oXo   X | ..X X | i X.r X v i c i X i I l P X : ",
"      XX= X     ~ : X $ %Xl %Xo   X ` w.  X   l z.  o $.9.w.X.  h i.P 5.  X $Xv Y.    X / ..    | l $.r X v v c r   t W x G X = ",
"      {.-     X / : o = c.'.6.@      .w.X   X d z.  X y ~.{.i   o b.Z.C   X z.~.*.O X   ....  X z =.-.o   - Q Q %   $ ..X.y   X ",
"    X =   X     X X o - 3 v * @   X o o X     X =       * # o   X $ -   X   o 0 X X   X X X X   o = o o X X X X X   X X # X X   ",
"X X X x o     X : o $ : h X.y $   o : a X @ o G i X     o c o     o i =   X 0 ^ - X X $ P : X   o $ 3       > :   X   X : o X X ",
"    a.$X-     L +.0 = : W.x.Z.- @ c W.t.@   / y.K.y   X x.&Xo O X -.P.i X   I.z.p.  X w.2.n.X   : *.$.@ X y I Q : X X I =.= X @ ",
"      XX=   X   ~ r - 0 ;Xc &X* X X X.y.X o w.T j.V X   @ $X@ X   X v.i X X $Xe ~.X X M.t D.: X   v *.  X x v L i X   X ' : X 3 ",
"X   X +X*       ` 0 : r ;Xc ;X: X X X.y.X o w.P z.Z   X X $XX     X n.i   X &X0 ^.X o V.y J.-   X v $.o X N z L i X X X  .* @ r ",
"  X X +X*     X ) y : y .X*.{.: o X  .y.o   ;.X.K.x X   X $X$ X X X z.d   X +X~ P.X @ x.H T.$ X @ d %.X   v C I r X X X X.: X ; ",
"    O i.% O   X L 3 : a *.D.` 0 % X H | @ o r y.-.X X X o d.@   X X -.0 X o ~ C.x X X z p.T X X O y P X X X L c $ X X   P = $ - ",
"X   X X   @ X X O X 0 u l k l w - o = @ o X @ @ X @ X X X X   X X X X   o X X   X X X X o X X   X X X X X X X X X X X @   X $ : ",
"X   ~ u.-     n ~ y 0 p / d.X.i * C n.| o @ : d.2.X X $ p.z.= o o Y 2.y   X | B.c X X a O.I X X % P I X   X h L X   X L ! - - - ",
"  X T +X- X % *.n ! w v ..Q.8.t : S.| [.- X 8.-.P.x X ~ n.n.! X X L P.h X @ +X/ D.o X y u.*.X X - ! -.X X X h ..X   0 X.I G % 0 ",
"X X @ +X- o : X.y ' y k c F.w.h 0 I.V (.i X i.T V.Z X 2.r.y.=.X X X V.i X o &Xr (.X @ o O.;.  X @ l -.@ X X X ..X X l ~ x W - l ",
"X   X XX; X : X.i ..y v H F.w.h 0 I.c !.q X f.W V.H X ;.w.r.$.@ X X V.k X X $Xy /.X o X $.-.X X X v &.X X X $ X.X   d ~ c W * d ",
"X X @ +X* X X =.` T y c P H.w.x q z.z./.$ X  .M.oXt   G '.~.P o X X A.l X X Y.x.j.X X X *.;.X X X v -.X X X $  .X X * *. .n : r ",
"X X X C @ X X : l : i c I O.~ c q 0 ^ w X X $ T c o X X G P X   X X k - X X i W 2 X X X e y X X X - y X X X X y X X X w p $ : r ",
"X   X   X X X X $ : d c R ^ J V t = @ @ X X X o . X X X @ X o X X X X o X X X X X X X X X X X X X $ @ X X X X @ X X o X o & : e ",
"X X j./.= X   X.-.C d C J.:Xb.C q P P.9.    3 P.K.@ X X m.OXo X X w.R.h X X =.~.Q X $ H L.=.X X N 9.2.$ X X W | X X o %.-.h : y ",
"X X : +X; X * =.l X.d G <X*.<XZ g 0 &.y.X X @ P Y.o X X 0 *X$ o . : T.z X X * n.~ $ X % 5.2.X X $.C 2.i X X * $.X o l [ G T w k ",
"X X X {.; X 6 X.h $.i H 2X .2XZ j ; ' i.X X @ c R.X o X X *X% X $ $ L.x X X @ x.~ X X X *.>.@ X -.j 2.h X @ $ $.X X k ~ c ~ 0 C ",
"X X X +X2 o : =.h X.l H <X5.-XZ g 0 $.r.X X o c !.X X X X *X$ X X X L.k X X X v.~ X $ X -.>.X X -.c 2.i X X = %.X X i ' C ~ w x ",
"  X X {.: X o | ;.L l P G.<Xb.S j 0 #.r.@ X o c ).X X X @ >X$ X X @ P.v X X @ b.~ @ X X >.2.X X x y.8.= X X & *.X X $ %.>.h r d ",
"X X X X X X o X $ : h P ..$.` J j 0 & $ X X X X & @ X X X $ X X $ @ $ @ @ X $ @ @ X $ @ X $ X @ X = $ o @ X @ $ $ X @ $ $ & r l ",
"X X $ : X X o y C w h P -.m...E B g *.j X X $ X.G o X X r I X X X & G : $ X * c t X o : *.i X X $ I i X @ @ h h X X X i c ; y l ",
"X @ v Q $ X $ ;.~ / v P =XE.|.J c v.a.[.% o -.x.}.i X X c.,X& @ X w.@Xj @ X *./.~ o o Z.r.~.& @ | O.i.0 @ h | X.q $ 0 >.X.P i j ",
"X X X T o X r *.i -.l P 4X;.1XE V (.C ^.i o v.` D.P X X $ *X% $ X $ L.x $ X $ v.| $ X Y.j OX3 X ;.x 8.h X I C ! x $ h | C ` i l ",
"X X X W = o r *.l -.z T 5X-.1XK C ~.G (.i o z.~ F.T $ X $ *X% X $ @ I.x X X X x.~ @ & Y.h #X0 o 1.c 9.l $ I G Q n $ x | C | i x ",
"X X X I $ @ & >.H  .l P -Xb. XE V P.#.%X3 @ r.q.].c @ X $ >X& o X o T.k @ $ o n.~ $ $ K.] {.% $ =.! d.r X C ^ | d $ r -.~ ^ i c ",
"X X X z o X X c ~ d l P e.Q.5.E V S z.E X @ w p.>.o $ X o f.@ X $ $ ;.i $ @ o X.C o X C z.T $ X 0 O.T o $ $ P P & X $ H ^ y y c ",
"X X X X X X X X @ 0 h P ' $. .K V q 0 $ X X $ $ o X $ $ @ $ $ @ X $ = o @ $ $ $ @ o o o $ @ X $ $ $ @ $ X $ X o X X $ o % 0 i x ",
"@ $ C L ; X X I $.h h P 0.E.a.E G ] P.-.X $ t J.d.$ X X ;.b.$ X o y.V.h $ X *.K.H $ @ j y.` $ @ t 6.X.$ $ $ Z ~ $ $ X ~ $.i i c ",
"@ q L n h X * 5.H  .l H >. Xz._ Z U.' +X0 X t.;.).G X $ W >X& X k !.-.t.X X +X~ P.$ & y z.5.$ $ -.W p.h $ $ x 5.$ $ t *.^ ^ h c ",
"@ i C l k X y -.h &.h T ' ).v._ A ^.Z ^.h X B.~ F.W $ @ = >X& X P V.~ z.$ & *X0 {.$ o = 1.5.$ $ 2.c 6.h $ $ ; >.$ $ c | C  .i c ",
"X i C k x @ 0 ;.x 1.h T { `.n.] J ^.S [.i X v.` H.W X X $ ,X% @ H K.~ z.& $ &Xi ^.& X $ 5.5.= o 6.C r.c = $ % 5.$ $ x | G  .d c ",
"$ & Q R q X & 8.1.] x E &.|.S.{ D B.F.'.= @ $.U.:Xr $ $ @ ,X& $ ; OXP.X.o & R.V.i.$ $ $ >.5.o = | 9.c.3 = = & 6.$ = ; 6.;.H i x ",
"$ X : 0 $ X $ r x t Z { 3.l.k.<.F B ` t $ $ & G l $ $ $ = Z & @ @ l H = = @ y T ; @ $ $ t t $ $ * n i % - = = g = $ @ r h 0 i c ",
"X $ % % @ @ $ o % g F 3.l.K.7.4.} B x & $ $ $ 0 = o o $ X & @ = = = = o $ & = r $ $ = $ = ; $ $ = - * ; * = % % $ = & $ % 0 i x "
};
