/* XPM */
static char *result[] = {
/* columns rows colors chars-per-pixel */
"64 64 213 2 ",
"   c #020602",
".  c #030B04",
"X  c #080D05",
"o  c #050708",
"O  c #050D09",
"+  c #080D08",
"@  c #051306",
"#  c #081406",
"$  c #061906",
"%  c #091A07",
"&  c #061409",
"*  c #091409",
"=  c #061A09",
"-  c #0A1B0B",
";  c #101E0E",
":  c #0E1C10",
">  c #121F14",
",  c #0C220D",
"<  c #0D2A0E",
"1  c #062109",
"2  c #10260F",
"3  c #10280E",
"4  c #0E330D",
"5  c #11370F",
"6  c #0E2411",
"7  c #0E2B11",
"8  c #112512",
"9  c #132C14",
"0  c #182E17",
"q  c #152E19",
"w  c #182D1A",
"e  c #142519",
"r  c #0E3312",
"t  c #143316",
"y  c #193517",
"u  c #133B14",
"i  c #193917",
"p  c #153419",
"a  c #19341A",
"s  c #163A1A",
"d  c #1A3C1B",
"f  c #1D3E20",
"g  c #213F21",
"h  c #134314",
"j  c #144A15",
"k  c #16431A",
"l  c #1C431D",
"z  c #164B19",
"x  c #1C4A1E",
"c  c #17531A",
"v  c #1B541D",
"b  c #1C5A1D",
"n  c #165517",
"m  c #1A621E",
"M  c #1E6A1F",
"N  c #1E4321",
"B  c #1E4A22",
"V  c #1D5422",
"C  c #1F5B23",
"Z  c #214422",
"A  c #224C24",
"S  c #244D29",
"D  c #284B2B",
"F  c #235326",
"G  c #245B26",
"H  c #255429",
"J  c #29552B",
"K  c #265A2A",
"L  c #2B5C2D",
"P  c #285627",
"I  c #2C5B31",
"U  c #305E35",
"Y  c #1F6422",
"T  c #1E6E21",
"R  c #1D7222",
"E  c #236423",
"W  c #2B632E",
"Q  c #2A6A2D",
"!  c #256A29",
"~  c #30622E",
"^  c #217426",
"/  c #25762A",
"(  c #2A752C",
")  c #2A7B2C",
"_  c #247828",
"`  c #2D6431",
"'  c #2E6A32",
"]  c #276330",
"[  c #326534",
"{  c #326B34",
"}  c #346D39",
"|  c #2E7234",
" . c #2F7F31",
".. c #347235",
"X. c #397337",
"o. c #317E35",
"O. c #35743A",
"+. c #39743B",
"@. c #367B3B",
"#. c #3A7C3D",
"$. c #3B7C41",
"%. c #29872A",
"&. c #28882B",
"*. c #2B952E",
"=. c #2D8B31",
"-. c #338037",
";. c #36813B",
":. c #3B833E",
">. c #3B883D",
",. c #329B34",
"<. c #339639",
"1. c #2DA32F",
"2. c #2FA232",
"3. c #38A93C",
"4. c #38B83B",
"5. c #42823F",
"6. c #3D8442",
"7. c #3E8944",
"8. c #3D9045",
"9. c #3DAD42",
"0. c #3EB747",
"q. c #418544",
"w. c #428C45",
"e. c #448C49",
"r. c #468849",
"t. c #439246",
"y. c #45934A",
"u. c #49964D",
"i. c #469A4B",
"p. c #4A9B4D",
"a. c #429845",
"s. c #4C9D52",
"d. c #4B9553",
"f. c #509C56",
"g. c #45A14A",
"h. c #4AA44E",
"j. c #49AD4C",
"k. c #44AB48",
"l. c #45B54B",
"z. c #4CA553",
"x. c #4EAC54",
"c. c #4EAC58",
"v. c #51A453",
"b. c #52AC55",
"n. c #54A65B",
"m. c #54AD59",
"M. c #59AB5E",
"N. c #4DB653",
"B. c #4EB955",
"V. c #54B857",
"C. c #54B35A",
"Z. c #59B05C",
"A. c #55BB5B",
"S. c #59BB5D",
"D. c #52B357",
"F. c #5CBC64",
"G. c #59B862",
"H. c #63BB69",
"J. c #61B766",
"K. c #69BC70",
"L. c #3EC641",
"P. c #40C347",
"I. c #44C44C",
"U. c #56C25D",
"Y. c #5CC25F",
"T. c #5DC363",
"R. c #5ECD64",
"E. c #5FD069",
"W. c #61C465",
"Q. c #61CB66",
"!. c #65C36C",
"~. c #68C36D",
"^. c #64CA6A",
"/. c #69CB6F",
"(. c #62D366",
"). c #64D36B",
"_. c #65DA6C",
"`. c #6ADB6D",
"'. c #67D86A",
"]. c #6ACC70",
"[. c #73C978",
"{. c #66D471",
"}. c #6BD672",
"|. c #67DB70",
" X c #6BDB72",
".X c #6BDE78",
"XX c #72DA7A",
"oX c #68E26F",
"OX c #6CE373",
"+X c #66E070",
"@X c #71E375",
"#X c #72EC75",
"$X c #72E37B",
"%X c #74EC7A",
"&X c #76F47E",
"*X c #78F37D",
"=X c #79DC82",
"-X c #7CE484",
";X c #79EB81",
":X c #77E782",
">X c #7BF383",
",X c #76F482",
"<X c #88DB90",
"1X c #84EB8B",
"2X c #85EA8D",
"3X c #86F18F",
"4X c #8AF18F",
"5X c #88F191",
"6X c #91E399",
"7X c #B0FBBE",
"8X c #A7F3B4",
"9X c #B8FAC6",
"0X c #C6F9CF",
/* pixels */
"      `.*       J - o @ @Xp $X.     ~ y.      q z.  o ..e.y.[   p p.A 6.    #Xp (.      ` [     ` t O.6   y y d 8 o 9 H a B   * ",
"    .  X*       I 6 . + v.}.w..     W y.      w z.    8 '.}.0   . n.Z.d     x.).O.O     [ [     a :.X.. . * D J #   X { [ 9     ",
"      *         .   . : - y % .     + X     . . +   o   # * o     @ * o     X - o       . O       * O .     + .     . . *     . ",
"    . a .       - X . - q } 8 # o o - 9     . Z 9       . g   o . . 9 *     2 L @ O   @ F -       # >   o . : -   . o   ; @   . ",
"    i.#X%     Z ..6 & : ^.b.Z.& . g ^.y.. o [ y.S.8   . x.%X. . . +.Y.9 .   E.h.h.    y.>.m.. . ; +.{ .   6 S J -   . S X.*   @ ",
"      oX*       I 6 * 6 ;Xs :X- . . ~ u.. . e.F h.x     . %X@   . . b.9     %X6 '.. . D.3 H.*     a X.. . d a Z 0   . . ' -   6 ",
"      OX*       W 6 * 6 ;Xp ;X- . . { y.. X e.A h.x   . . #X.     . b.0 . . %X, `.. . V.2 W.# . X a X.. . d a Z 9 . . . ' - . 6 ",
"      OX%       U 8 - 9 XXX.}., X . { y.. o :.[ U.s     . %X@     . b.w . . OXL T.    b.B W.# . o w X.    p Z S 7 .     } % O % ",
"    . d.@       Z - - e X.T.W , @ . A [ . . 8 y.#.X   . . s.. .     @., . . L Z.d . . d p.S . .   2 S . . . Z f .   . . A * o * ",
"    o     O   . . + - w a i p 8 & + # o . + O O     .   .   o . . . . . o . .   .   . o o .     . .   . .   . . . .   .   . @ - ",
"    L u.*     d L 8 - 0 I s.[ 9 % N D.| + . ; p.>.. . @ p.z.*   X A 5.2 .   [ D.d   . e +.S   . # F S     . p g .   . A L * @ : ",
"  . H OX:   # ..f L 8 0 [ /.q.r - S.W oX- o q.+.R.s . ~ m.m.W   o Z T.0 . .  XI S.. . 9 u.+.. . * L @.. . . t [ . . , [ D N @ 6 ",
"  . . oX= o - [ 8 ' 8 a l G.r.0 , E.s E.9 . i.H D.A   6.y.y.O.. . . V.0 . . %X8 `.. . . } +.. . o p +.. . . @ [ .   p J a H * 0 ",
".   . OX-   8 { 9 [ 8 a N J.e.t , Q.d (.9   d.H V.x . @.e.t.O.. .   A.y . . #X9 `.. .   } #.. . . p #.. . . . { .   p J s P - q ",
"  . . oX=   . +.W F 8 d A J.e.s , z.z._.@   { B.oX8   Z {.Q.A . . . A.y . . (.b.h.X X X X.+.. . . p @.. . . O { . . % $.` f - 6 ",
"    X x @ .   : q - w d A O.L d < 6 J 9     . F s . . . Z D . . . . i * . . 8 J :     . 8 9   . . % 9 . . . . 8 . . . 6 0 & - 6 ",
".   . .     .   . - 0 d P K V k 9 & . .     . . X . . . . X . X . . . o . . . . . . . . . . . . . . @ . . . . O   . . . . # - 8 ",
". . h.`.% . O [ +.l q l J.-Xn.k < B R.7.. . : T.U.O . . Z. X. X . e.E.p . . O.).J . O B Y.+.. . g w.>.+ . . J ' . . * ..O.p - 9 ",
". . - OX-   - +.t } 0 x 1X@.2Xx r , o.y.. . . S Q.. . . 2 *X. . . - T.d   . - m.L @ . # 6.:.. . ..d 5.9   . % } . . t ~ l G 2 y ",
".   . oX-   6 } t { 0 Z 3X' 3XB u - | y.. . . g (.. . . . *X# . . . T.a . .   b.L . . . @.$.. . @.u #.t . . & ... . p L d L , g ",
". . . @X-   , +.p } y A 1X$.1Xx u - | y..   X d (.. . . . ,X@ . . . Y.i . . O c.L . . @ +.$.. . @.d q.9 . . @ } . . 9 W l L , s ",
"      .X:   o ' #.Z p Z H.1Xn.x t 1 ..y.. . X g /.. . . o >X@ . @ . W.s . . O c.L O . . $.6.. . d y.6.@ . . @ +.@ . @ } $.t 6 0 ",
". . . @ . . . . @ - p A ' ..W V u , $ @ . . . . & . . . . &   . . . @ X . . . @ .   . . @ . . . . * . . O O O @ . . @ @ & % 9 q ",
". . O - @   O 6 g , t A $.M.{ V u r X.t . . @ ~ Z + . . - F @   . & Z - O . & k 9 @ . , O.0 . . @ A t . . @ t r . @ . 0 d - 8 t ",
". . t P @ . * $.~ L t A XX~.[.G l D.a.`.@ . #.c..Xq . . v.>X& @ . e.OXs . . ..`.L O O C.8._.@ . ` } p.- . t ` { 7 . 6 $.[ A 8 p ",
". . . S + . : ..q +.t S 3X#.4XG k ).l '.0 + b.L G.S . . . *X& . . @ Q.s @ . . m.L @ . E.p OX1 . #.s e.t @ S Z J s @ p ` l W 0 s ",
". X . H @ . 8 ..9 @.s S 5X@.5XC k ).B _.0 . b.L F.A . . @ >X@ @ . . R.a @ . . m.W . @ (.p OX6 . 6.s q.p . H N J d @ p ` l ` 8 d ",
". .   P @ . & $.S ' a A -Xn.-XG k T.' $X- . y.r.}.k . @ . >X& . @ O Q.a . . + m.L . @ T.Q OX& @ X.L i.6 @ d L ` p . 7 O.L H 9 s ",
".   @ a @   X l L 9 p A e./.7.G z v z.L . . , u.$.. . @ . d.@ . @ . #.9 @ . . } d O @ d z.F . . - } F . @ @ A x @ . @ A K 9 9 s ",
".   . . . . . . @ , t A ~ { ' G x 3 1 & . . . # o X . @ . @ . @ + . @ . . @ @ @ . O X + . . @ @ @ @ @ . . . . @ . @ . . @ - 0 s ",
". . N Z & . @ S { p t B e.~.t.G l ] T.+.@ . 4 J.f.@ . . $.M.@ . + y.S.y @ . ..T.B @ . u y.` . . 9 w.{ . . @ x L @ @ . L ..9 0 d ",
"O 7 Z f t . = 6.B { t A 6.XXv.E x R.Q OX, . p.#./.Z . @ H >X& . y (.;.t.. @ OXK Y.@ @ 9 z.q.@ @ +.H s.9 @ @ s 6.@ . t X.P K 0 d ",
". 0 l a s . 8 +.u @.t F Q ].c.! z _.B _.t . x.L G.F . . @ >X@ . A V.K x.@ & #X<  X@ O O $.7.@ @ 6.f 8.a . @ @ 6.@ @ f L N ' q s ",
". 0 g u d . 6 $.p ;.p F ( [.m.! v |.v |.9 @ c.` F.F @ @ @ ,X$ O B A.L z.@ & %X0 _.@ @ @ @.6.O @ 6.k y.d @ @ & 6.@ O f ' N ` q s ",
". - J J 6 . @ q.;.W u G o.XXG./ b D.G.}.@ . O.T.-X6 O . . ,X@ @ - |.T.} @ & R.V.i.@ @ @ :.6.@ O ` w.z.; & @ & 6.@ O = 6.+.B 9 s ",
"@ . - , @ . . 2 s 3 x ( <.N.9.=.m k ] 9 . @ @ Z p O @ @ @ B @ @ * t B & O @ 8 A = @ O O 7 9 @ @ = f 0 & * & & q @ @ @ 7 a , 9 d ",
". . @ @ . . @ @ $ r Y <.0.B.0.9.R h s 1 @ @ . , & O @ @ O @ @ O O @ @ O @ O @ 6 @ @ @ @ @ @ @ @ @ * - & * * @ @ @ @ @ @ @ , 9 s ",
". % L L 8 # O { N.E ( 3.6X8X-X0.&.b.}.W.@ + I {..X, . @ F.;X= @ @ z.OXs @ @ C.).6.@ O H '.6.@ @ 0 z.w.* * - +.q.@ @ @ [ t.9 9 s ",
". t B d u . @ & j._ =.k.9XK.9XL.*.=XG @Xq O b.` H.S @ . - >X* @ @ $ R.f @ $ :Xu ).& # = 6.>.. & * S t.- * * , q.@ @ @ & >.t 9 s ",
". s N f d @ . $ j.) ,.l.0XK.9XI.2.-XG .Xp + m.L F.F @ @ @ >X% @ @ @ R.s @ @ ;X< `.@ @ . $.7.* * * Z t.* * * = e.& + @ @ 7.t r k ",
". t A f s . @ & j.) 2.j.0X[.9XL.2.-XL $X, @ h.[ !.S @ @ @ >X% @ @ @ R.d . & %XN E.@ * * 6.6.* # @ l y.* * # $ e.@ # @ & 5.t t k ",
"@ & K L - @ @ & g.! %.9.<X9X:XL.*.a.:Xz.& @ l  X!.& @ . & $X& O O @ T.s * @ u. XQ @ * @ +.#.& & @ f e.@ @ & = q.@ # & & t.u u V ",
"O @ @ . @ @ . @ 1 u Y 2.9.0.L.4.%.n 4 $ @ @ * & O * @ @ @ & @ @ @ # & @ * # & $ # + * @ @ # @ @ @ @ @ @ @ @ @ @ # # # # % 3 k E ",
"@ . t f @ O @ , N u z / ,.3.9.1.R n t.x . @ $ $.I @ @ @ } } * # * 3 L , @ & , H p @ # - A x # @ % [ N * @ @ 9 l @ @ @ 6 F x b ) ",
". 6 L H t @ O H g.u 9 v ( =.=.&.m T.i.$X- + >.z.XXa O J ^.T.J . & $.OXd & & [ }.W @ & B ^.7.@ @ +.@.b.< & @ Q y.$ & @ Q B.b ^  .",
"@ d A k k O @ @ 7.t - u v ^ R ^ n `.V oXy # b.I F.P O q.y.i.$.@ # $ R.d & & & b.` @ # @ ;.6.& @ e.B p.d & # % u.& $ @ $ j.E / -.",
"@ s B N N & @ @ :.u % 7 k C T M n  XF _.0 # D.L F.P * 6.y.d.$.@ # @ R.d & @ & D.` & & # :.7.@ & y.N p.k # & - y.@ $ $ % x.m / -.",
"O 9 L H a O @ @ :.t * < k v b m n T.>.@X- # y.u..Xf @ ` F.F.` * # @ R.d & @ # x.` & & & :.7.@ # $.O.N.9 $ & = i.@ & & $ j.b T -.",
"& @ s N & @ # . Z 6 * , u z b b j F i.H & & , e.} @ @ $ #.6.% & @ & ..9 % # * ` d * # # A H @ & , ..F & # $ $ P $ # # $ Q u b ^ ",
"@ @ O @ @ @ @ @ @ * * , u k n n j u < = & & @ $ @ O @ * @ & & @ @ @ & & & & $ & & & * # @ % # % & & % # $ @ # # # # % & - < k v ",
"@ & J W - # . A +.0 @ 1 u j c c z | ^.e.& & i ^.M.- * : F.T.9 @ * @.m.a $ # L c.F & & k h.' & @ , q.@.# # @ W @.$ @ % X.8.t 7 h ",
"@ u L A l * @ w 6.p @ - 7 u z c z Q.W OX, & h.+.^.B @ } v.b.' @ @ N '.l # $ i Y.W $ * 0 h.w.& & , { g.& $ & d p.$ # u >.` W : 7 ",
"@ d H Z B # # @ #.t & 1 7 u j c j _.V _.t @ D.W G.H & r.y.u.5.$ @ % R.d # $ # b.W & % & 6.6.@ & * A g.* & $ 1 p.$ & l O.F ..- 1 ",
"* k G A Z * # & :.t @ - 7 u j z j ).V `.p & b.~ F.H # $.d.p.+.= # $ Q.l $ @ @ D.` $ @ $ 6.7.$ $ = x g.# $ # - s.$ $ N @.V ' - , ",
"* , ..[ 3 & # @ #.t @ - < 5 h z h z.Y.^.= # ' ^.$X7 & l XXOXx * * = R.k & $ $ b.` $ $ $ 6.7.& = = A g.% % & - s.$ $ , y.w.N $ , ",
"+ # 2 2 # * & @ 9 - & 1 7 u h j h u G 7 $ $ # Z p & # # i u # * % & s - & = * p 6 & $ $ 7 9 $ $ % - t # & % $ t = & & 8 t & $ = ",
"# # @ = & & & $ # & & $ < u h j h 4 l 1 = & # t , & & & = - & & & , t $ # # $ $ - $ $ $ $ - @ @ $ $ 1 $ & $ < , & $ = 1 3 & $ = ",
"@ & W #.% & * ~ s.p & = < u h h h p.T.Q.$ & ` ). X3 $ $ T.,X1 $ - `.).~ $ % 6.#X` $ & K OX7.= = t G.h.- % s t.i.0 = 1 y.w.N = = ",
"@ @ $ @.- # @ @ :.t # - < 5 h h h E.V OXt $ c.` T.P = $ = *X- $ A U.Q z.$ & $ m.` $ & $ 6.7.$ = & A h.- = ` W +.A $ N @.H { = = ",
"& @ @ #.- & & % 6.t % % < r h h u ).V _.u & x.W S.G & % $ &X- $ H V.W x.$ = @ m.] $ $ - :.7.= = = F h.= & { L @.P $ B O.A ' $ $ ",
"& & @ #.- # & @ >.t & = < 4 u h h T.C OX7 = z...Q.F & $ $ ,X- $ l E.| p.$ = = m.` - $ = :.7.= = = S z.= & W { #.A = k 6.G Q % % ",
"# # $ { - $ & $ } t % = < 4 u u 5 | _.t.% & s ).C.% # $ $ {.= $ $ x.{.k $ = = i.J % = $ } @.= $ $ N 8.- % < w.w., = % $.y.4 % = ",
"* & & $ & # $ $ * # @ = 1 4 u u u 7 1 % * % = % = = $ * $ $ = & = = = $ $ = & % = # $ $ $ - - $ $ $ $ - = % = 1 = % % = % = = = ",
"* & B A $ & @ N ` , $ $ < 4 5 u u k p.A $ * $ P } * = $ B @.- $ = f ..7 $ $ p ' l % % < L F $ - , :.G $ = = k J - % % F ` , - % "
};
