/* XPM */
static char *_9fbed5ca39649e2af4de2af28a56a68FFSLHxxlPV1fVxPQ[] = {
/* columns rows colors chars-per-pixel */
"64 64 214 2 ",
"   c #020402",
".  c #030B04",
"X  c #080D05",
"o  c #040408",
"O  c #08060A",
"+  c #050C09",
"@  c #0A0E0A",
"#  c #080201",
"$  c #051205",
"%  c #081206",
"&  c #061906",
"*  c #091907",
"=  c #051309",
"-  c #0A140A",
";  c #061B09",
":  c #0B1B0C",
">  c #101D0E",
",  c #10150F",
"<  c #0F0E11",
"1  c #120F10",
"2  c #0C1510",
"3  c #0E1D11",
"4  c #141514",
"5  c #121B13",
"6  c #18161A",
"7  c #171718",
"8  c #0C220D",
"9  c #0D2B0E",
"0  c #10240F",
"q  c #11280E",
"w  c #0E2311",
"e  c #0F2C11",
"r  c #122513",
"t  c #1A2617",
"y  c #132C14",
"u  c #182D16",
"i  c #152618",
"p  c #18221E",
"a  c #162D19",
"s  c #192D1B",
"d  c #0E3313",
"f  c #153216",
"g  c #143A16",
"h  c #193917",
"j  c #163319",
"k  c #19341B",
"l  c #163A1A",
"z  c #1B3B1C",
"x  c #1A3317",
"c  c #1C3D21",
"v  c #1B3723",
"b  c #223623",
"n  c #203F21",
"m  c #134414",
"M  c #16431A",
"N  c #1C431D",
"B  c #1C4B1E",
"V  c #174F1A",
"C  c #1C541F",
"Z  c #1C5919",
"A  c #1B651E",
"S  c #1E4321",
"D  c #1E4A22",
"F  c #1E5323",
"G  c #1E5B23",
"H  c #214423",
"J  c #234B25",
"K  c #254D29",
"L  c #284D2A",
"P  c #2A432A",
"I  c #235226",
"U  c #285027",
"Y  c #245B26",
"T  c #255329",
"R  c #2A552B",
"E  c #265A2A",
"W  c #2B5C2D",
"Q  c #285B27",
"!  c #2D5D31",
"~  c #2A5730",
"^  c #315F35",
"/  c #246524",
"(  c #2C632E",
")  c #2C692E",
"_  c #26692A",
"`  c #30622E",
"'  c #2A752C",
"]  c #297B2E",
"[  c #217724",
"{  c #2E6432",
"}  c #2E6A32",
"|  c #326534",
" . c #326B35",
".. c #36643B",
"X. c #346D39",
"o. c #39663C",
"O. c #2F7235",
"+. c #347235",
"@. c #397337",
"#. c #327C36",
"$. c #35733A",
"%. c #39743B",
"&. c #367A3A",
"*. c #3A7C3D",
"=. c #386540",
"-. c #3B7C41",
";. c #467A4D",
":. c #2C8A2D",
">. c #2C952F",
",. c #36813B",
"<. c #3D833E",
"1. c #3A883B",
"2. c #339837",
"3. c #2FA332",
"4. c #38A83C",
"5. c #3BBB3F",
"6. c #43813F",
"7. c #3D8442",
"8. c #3E8A43",
"9. c #3EBA49",
"0. c #428444",
"q. c #428C46",
"w. c #448C4A",
"e. c #478749",
"r. c #429246",
"t. c #45934A",
"y. c #49954B",
"u. c #459A4B",
"i. c #4A9B4D",
"p. c #459846",
"a. c #50934F",
"s. c #4D9C51",
"d. c #4B9655",
"f. c #529556",
"g. c #509C56",
"h. c #42AD47",
"j. c #4AA24D",
"k. c #47AB4B",
"l. c #46B34B",
"z. c #4DA553",
"x. c #4EAB54",
"c. c #51A553",
"v. c #52AB55",
"b. c #54A65B",
"n. c #55AD5A",
"m. c #5AAB5E",
"M. c #4DB653",
"N. c #4DBF53",
"B. c #52B256",
"V. c #54B857",
"C. c #55B25A",
"Z. c #58B15A",
"A. c #55BB5C",
"S. c #59BC5E",
"D. c #5CBC63",
"F. c #5AB963",
"G. c #61B666",
"H. c #62BA68",
"J. c #61B966",
"K. c #69BC70",
"L. c #42C349",
"P. c #5CC25F",
"I. c #56C25C",
"U. c #5CC463",
"Y. c #5ECC64",
"T. c #5DC869",
"R. c #5FD069",
"E. c #61C564",
"W. c #61CB65",
"Q. c #68C36D",
"!. c #64CA69",
"~. c #69CB6F",
"^. c #65C06E",
"/. c #63D366",
"(. c #64D46B",
"). c #65DA6C",
"_. c #69DB6D",
"`. c #65D667",
"'. c #6BCC71",
"]. c #67CB70",
"[. c #73CC76",
"{. c #66D671",
"}. c #6BD672",
"|. c #67DA71",
" X c #6ADC72",
".X c #6BDE78",
"XX c #72D37B",
"oX c #75DF7E",
"OX c #6BE16F",
"+X c #64E26E",
"@X c #6CE273",
"#X c #6BE772",
"$X c #71E475",
"%X c #72EB76",
"&X c #72E279",
"*X c #74EB7A",
"=X c #76F37D",
"-X c #79DB80",
";X c #7CE484",
":X c #75EB81",
">X c #79EB81",
",X c #7AE685",
"<X c #7BF383",
"1X c #76F380",
"2X c #84EB8B",
"3X c #85EA8D",
"4X c #86F18F",
"5X c #8AF18F",
"6X c #91E399",
"7X c #88F191",
"8X c #B0FBBE",
"9X c #A7F3B4",
"0X c #BCFCC9",
"qX c #C8FAD1",
/* pixels */
"      o                   #   o                                       #             # o 4 < 4 7 7   + 7 1 #   #                 ",
"  . A.T.r #   a J -     *.(.|     W ~.t.    X | |   # = U.U.3     P $.:     0.(.W     H e.^ 6 6 p U R 7 1 p T.U.2     J U 2     ",
"  Y z.e.@.    X J :     .Xk  Xo o S.N  X4     v *.    ( y.y.{     - *.w     $Xz T.  o &.s f.4 O 7 P =.< 4 e.0.c.R   5 J s z   + ",
"   .u.-.-.      K :     &X= %X    W.l `.i     r -.  # -.0.w.X.      *.5     *X: |.    e.t f.O   O b o.@ 7 a.@.i.{   5 H r c   - ",
"  E i.7.*.      J :     $X0 OX    U.l _.w #   r *.     .q.w. .      *.>     %Xr ).    e.t f.-   < b | 7 7 e.%.i.!   5 J a c   = ",
"  : {.).z       K -     v.W.r.#   -.P.S.  o # i -.  # r (._.s       -.5     C.Y.-.# < | e.;.7 7 6 s o.7 7 j (.}.w   + R E 3     ",
"#   2 3   #     O o     + i o o o o i +         =       : > # #     = o     + y o     o 5 = 7 4 < 4 t 4 O   5 : o o   + @       ",
"    i v #     O 5         % , o   # + 2       i 4       o r       = i       = P + #   # + -   o 4 4 4 o     j u +       @ #     ",
"# i (.W.H   o W K j     { @X` #   z ~.t.    H *.w.-     n.*X    @ t.<.H     T.B.t.o   s t.R     =  .W     H W./.k     S { - #   ",
"  ( i.<.*.  - E 8 J       d.{       ) w.     .z -.a       *X+   i ,.z  .    %Xr (..     T R       i W     0.%.i.!       E @   - ",
"o } y.*.0.  - T > K       s.(       } w.    X.l %.f       *XX   j *.z @.    %X: _.      T R       i W     e.$.i.{       W %   * ",
"o J n.w.X.# + ^ s H       d.| #     } r.    | J 7.e       %Xo   r w.K |     @XJ U.      U E       i !     +.q.v.R       E -   + ",
"  o i.B.:     z L -     # =.K   #   J X.    5 *.| +     o n.      ( 0.:     } U.H       n H       0 P   # * v.z.-       H @     ",
"      o         #         o       #                       .         o       #     #   o         # o                     .       ",
"    K 0.@ # # 5 v -     K z.z o   f s.R     % X.R       8.q.@     L %.@     s &.z     2 U z     + z z       u u       k P +     ",
"    W %X= o   i ! 3     (.| !.#   Z.| OX-   ..{ t.r   E n.n.W   5 s.| |     H E.R   # 5 -.W     @ K ( .   0 k N :   : W N z     ",
"    o OX% #     W 3     #X* :X    Y.z ).r   &.S 7.l # *.6.8.+.  k 1.z *.      x.E       W (     # y }     j i k r   i I j S     ",
"      @X=       R :     $X- %X    Y.l `.r   *.S 7.k   %.q.r.$.  k q.D *.    . x.R       W )       i }     s y j w   r K f H     ",
"       X=       R :     Y.t.S.o o c.p. XX   ! <.c.3   D Y.U.J   = c.7.R   .   x.R       W !       i }     8 N D - . = } T j     ",
"      K o       r X     y { 3     2 ( y     o H j       I T       j H X       z i       8 r .     @ r       > 5       w u . .   ",
"                o       . .   # #     o       . .               o   #         .   o                                             ",
"    p.!.-     z ( :   X q.|.%.  # z S.<.    = r.8.  # 3 W./.y o . y.v.k     u._.| # . j u.R     j *.X.    $ J J $   . ! | 5 .   ",
"    0 #X= .   = W 5   . #Xj @X.   - #.w.    + N j.    X.y.u.}   j i.J *.  . &Xl Y.. o % }  .    ( f @.r . y j c r   w E k S . - ",
"    o _.:       W 8   $ *X8 *X      ) u.      y j.    *.0.q.%.  z r.H 7.  . *X8 _..     (  .  . } y  .w   z y z y   a K j D . : ",
".   . OX-       ( 8 . $ $Xj &X+     ) r.    . j j.    +.q.t.X.  a i.J 7.  . %Xj ).    . { } .   } f +.r   k f z w   e T z S   ; ",
"    o  X= .     W 8 + = c.|.q.+     } t.      j z.. . r (.}.y o + b.Z.N     x.).&.      | |     j *.$.X   - U R = + X  . .r     ",
"      %         X   + - : j * + .   + +         $       - -       $ -       o > +       + +   .   - X . .   + X     . . $   . . ",
"    $ k .     . * X $ - f  .r X o o : i + . X H y +     % z .   . . y $   . 8 Q = . . = J *     X % r   X   : :   . +   > + . . ",
"    j.%X&     H $.8 = : !.v.S.- . n `.t.X   | t.S.r     M.*X+ . X *.P.u X . Y.j.j.    t.<.n.X   : %.@.  . 0 K R : . . K %.:   $ ",
".     OX=     . W w - w >Xl *X* . . } t.. X q.K j.B .     *X$ .     v.y   . %Xe ).. . V.q P.- .   x +.. . z k H y .     } * . 8 ",
"      @X*       { 8 : w >Xl >X: .    .t.. X w.J j.B   . + *X.     . v.f   . %Xw _.. . V.y D.- . . s +.. . z k S f .   . } : . w ",
"  . . #X:       ^ r : r oXX.}.: X .  .t.X   <. .I.l   . $ %X$   . . v.j   X .XW U.  . x.D E.$ o . k $.. o j S K e   . .  .* + * ",
"  . + t.=       H 8 : i @.D.) 8 $ + J { + + r r.&..   . + s.. o . . @.8 . . W B.z . . z u.U . . . 8 U . X $ N N .     . J = $ - ",
".     . . . . .   X 8 u j l f r = @ % + + . O + . + . . .   . . $   +   +     X . . . . +     .   . .     .   X . . .     . $ : ",
"  . W u.=     z W r : u ! s.} y * N n.{ + X w i.<..   $ i.z.- .   J <.0 + . | B.z   X i %.T   . = K I . .   j H . X . J E = = : ",
"    T &X- . $ @.c W r f { ].0.y ; F.{ +X*   -.-.Y.z . ) v.n.W . . J U.f   . @XW P..   r y.%.  + - W #.. . . f { .   8  .L S & w ",
".   $ OX* . 3  .i ) 0 k z F.e.f w R.M /.y . u.I M.J   ,.q.u.%.. . . V.x + . %Xr _.. + + @.%.  . + j &.. X . + | .   a E z T - y ",
"  . . #X; . : X.i  .r h D G.w.f 8 Y.h `.w . y.E B.B + *.q.r.+.. . . A.j   $ %Xy _.  .   +.&.. . . j #.  . . $  .. . a E k R * j ",
". . . @X*   $ %.( I r z D H.q.l 9 c.k._.$ . X.M.+X0 . H {.(.J X . . A.j   $ Y.v.j.X   + +.&.. .   k *.. . . $ }   + * -.{ c : w ",
"    . N + .   : y 8 i z J X.( v 9 8 R r .   X I l + . . S P . . . . h * . X i T : . . . y y   . X - y X . . . r . . X w a & * r ",
". .   + . . . . + : y N U W F M y & $   . . + + + . . . . X . . . . . + . . . . . . . . + +   . . $ . X . . . . . . . X . $ : q ",
". . j._.*   + } &.N y N G.;Xv.N e H U.q..   : U.I.. . . Z._.X . . e.Y.f . . $.(.E . . D U.%.X . c q.1.= . . E { . . @ @.$.f : y ",
". . ; #X* . ; @.f  .y H 2X$.2XN d 8 #.t.. . + J R.. . . 0 =X% . X ; E.h . . : n.E $ + - 7.,.. $ @.M <.y . . * @.. . f ) N Y 8 h ",
"  . . OX: . 3 X.y @.j N 4XO.4XB g ; ' t.  . . N R.X . . . =X% . . X P.k . . . x.! . . . $.,.. . *.g *.y . . = X.. . h R z W q z ",
". . .  X2 . : $.y  .k J 2X-.,XB d 8 ) t.X   $ z /.X   . + 1X$ . X . Y.k   . . x.W . . $ &.-.. . $.z 0.y . . = $.. . y ( S E 0 l ",
".   . @X: . + { *.H j J H.2Xm.B g 8 +.t.  X X N ~.. . . + >X& . . $ U.k $ . + b.! + . . -.7.. . l t.7.$ . . & $.. . $ @.-.y 0 j ",
"  . X . . X + . & : j D } @.( F g 8 & $ . + X . & . . . X $ . . . . $ + . . . . . . $ . X $   . . = $ . . = . $ $ . $ = & * y a ",
". . $ 8 .   + 0 S 8 j D -.m. .F m d @.f . . $ ) S + . . 8 J . . . & S : $ . & N y . . 8 X.y $ . $ K y $ . . f f . $ . y z ; r j ",
". . l T + X $ *.( W j J -XQ.XXF h B.p._.& . *.v.@Xs . . c.<X$ $ X w.#Xl $ . $._.! . + A.r.(.$ . { +.t.3 . l {  .y . : -. .D r k ",
". . X K &   8 $.y @.k I 4X*.5XG M (.N ).y + v.W F.K . $ $ <X$ . $ $ P.k . . + n.W X $ R.j +X8 X ,.l 8.j . J S T l $ j { N ( y l ",
". .   Q = + w +.j $.k I 4X&.5XG N ).D ).y + x.W D.J . . . <X& . . $ Y.k $ . . v.{ . . R.f #X: $ 7.l q.j . T D R c $ l { N { y k ",
". . . K =   ; -.J } k D ;Xb.-XY M S.O.&X: + y.7.{.M . $ $ <X$ . . + Y.l . $ + n.W $ $ U.) @X& . @.W u.r . N R ) j . w &.E T y z ",
"  + $ l + . X N W y j J w.~.q.Y m F z.E . . 8 i.-.+ . $ $ y.= + $ $ *.q . $ X } z + $ z j.K + $ : X.I X . $ J J $ . . B Q y y l ",
". . . . . . . X $ 8 j D }  .) Y N 9 8 $ . X X $ X X . $ = . $ . X + $ $ $ . $ $ $ + X $ $ + $ X $ $ $ . . $ X + $ $ $ X & : y l ",
". . N H = . $ K @.f j D e.Q.6./ D _ P.&.. $ e J.g.= X . -.m.$ . X r.S.u X $ $.I.D $ + g u.W $ . y 8.X.$ $ $ V W $ $ X W +.y y z ",
". e H c f . ; <.D } f D -.oXx./ B U.) OX8 X u.-.~.c . $ T <X& . j /.,.t.X $ #XQ U.$ $ q z.7.$ $ %.T i.y $ $ g 7.$ . y @.Q W f z ",
"+ u z g l . w @.j &.f I ) ~.v._ V ).D ).e + v.! F.I . $ = <X$ . J V.E x.+ $ *X9  X& + = *.7.$ $ <.c r.k $ $ = 7.$ $ l } N { a l ",
"X y H h z . e *.l ,.j F ' [.Z._ C |.C |.y $ x.{ H.I $ . $ 1X& $ D I.( z.$ & *Xy ).$ $ $ *.8.+ = 7.N r.l + $ & 7.$ $ v } S } y z ",
". * R T 8 + $ q.,._ g Y ,.XXS.' Z C.F.}.$ $ O.U.,Xw . $ $ 1X$ $ : |.U.O.= = W.A.u.= $ $ *.7.= = { r.v.> = $ - 7.$ $ ; 8.*.D y l ",
". $ ; 8 $ X + 0 l q B ' 2.M.h.:.A m ( y $ $ $ D j $ = $ = B $ $ X f D = $ $ w U : . $ $ e y $ $ ; c y = * = $ f $ = = w j 8 y z ",
". X $ $ + X $ $ & d Y 2.9.N.9.3.[ m g * $ $ $ : & + $ $ @ = = $ = $ $ % = $ $ w $ $ $ + = ; $ $ = * : = - - & = $ $ $ $ & ; y z ",
"$ * W W 0 + .  .N./ ' 4.6X9X3X5.:.b.(.E.$ @ ~ {.}.w $ $ D.>X; . = s.#Xl $ $ C.(.7.- = T ).7.$ $ y s.q.- - * $.0.$ $ $ | q.y y l ",
". f B z h $ . - k.[ >.h.0X^.8X9.>.&XY $Xa + c.} H.T $ . ; <X& + $ & R.z = $ :Xg (.& $ * 6.<.$ = - J r.* - * ; 0.* % = * 1.d y M ",
". l S c M . $ & k.] 2.l.qXK.0XL.3.2XT .Xj = v.{ F.T $ $ $ <X; & $ $ Y.z = $ :X9 _.$ = = ,.7.= - - D y.- - - * w.$ % = & 1.f f l "
};
