/* XPM */
static char *_e6cfbd6a6d945daf0cac7c4e17c5ed96hbVU3wHA5frVdYD[] = {
/* columns rows colors chars-per-pixel */
"64 64 214 2 ",
"   c #020502",
".  c #030B04",
"X  c #080D05",
"o  c #030509",
"O  c #050D09",
"+  c #090E09",
"@  c #080201",
"#  c #051206",
"$  c #081306",
"%  c #061A06",
"&  c #091907",
"*  c #051209",
"=  c #09140A",
"-  c #061B09",
";  c #0B1B0C",
":  c #101D0E",
">  c #10150F",
",  c #0E1D11",
"<  c #0E1610",
"1  c #111D13",
"2  c #121412",
"3  c #0C220D",
"4  c #0D2B0E",
"5  c #062007",
"6  c #10250F",
"7  c #11280E",
"8  c #0E2311",
"9  c #0F2B11",
"0  c #122513",
"q  c #132C14",
"w  c #182D16",
"e  c #152618",
"r  c #162D19",
"t  c #192D1A",
"y  c #0E3313",
"u  c #153316",
"i  c #193517",
"p  c #143A15",
"a  c #193917",
"s  c #163319",
"d  c #19341A",
"f  c #163A1A",
"g  c #1A3B1C",
"h  c #0B320B",
"j  c #1D3E21",
"k  c #1B3723",
"l  c #203F21",
"z  c #16431A",
"x  c #1C431D",
"c  c #164C1A",
"v  c #1C4B1E",
"b  c #134414",
"n  c #1B551D",
"m  c #1C5A1D",
"M  c #185418",
"N  c #1C671E",
"B  c #1E4321",
"V  c #1E4A22",
"C  c #1E5422",
"Z  c #1E5B23",
"A  c #214423",
"S  c #234B25",
"D  c #254D29",
"F  c #284D2A",
"G  c #264328",
"H  c #245226",
"J  c #235C26",
"K  c #255429",
"L  c #29552B",
"P  c #265A2A",
"I  c #2B5C2D",
"U  c #285627",
"Y  c #2E5D31",
"T  c #2A5730",
"R  c #315F35",
"E  c #1F6422",
"W  c #1D7222",
"Q  c #236423",
"!  c #2C632E",
"~  c #2B6A2D",
"^  c #256927",
"/  c #30622E",
"(  c #207425",
")  c #25762A",
"_  c #2A752C",
"`  c #2A7B2C",
"'  c #247828",
"]  c #2D6432",
"[  c #2E6A32",
"{  c #326534",
"}  c #326B35",
"|  c #346D39",
" . c #346739",
".. c #2F7235",
"X. c #347236",
"o. c #397337",
"O. c #327D36",
"+. c #35733A",
"@. c #39743B",
"#. c #367A3A",
"$. c #3A7C3D",
"%. c #3B7C41",
"&. c #26852A",
"*. c #29872A",
"=. c #2E8D2F",
"-. c #2B952E",
";. c #2D8B31",
":. c #338037",
">. c #36813B",
",. c #3C833E",
"<. c #3A883B",
"1. c #329B34",
"2. c #339639",
"3. c #2DA32F",
"4. c #2FA232",
"5. c #38A93C",
"6. c #38B83B",
"7. c #43813F",
"8. c #3D8442",
"9. c #3E8A43",
"0. c #3DAD42",
"q. c #3EB747",
"w. c #418444",
"e. c #428C45",
"r. c #448C49",
"t. c #468A4A",
"y. c #429245",
"u. c #469149",
"i. c #45934A",
"p. c #49944C",
"a. c #45994B",
"s. c #4A9B4D",
"d. c #459846",
"f. c #4D9C51",
"g. c #4B9655",
"h. c #509C56",
"j. c #42AD47",
"k. c #4AA24D",
"l. c #49AD4D",
"z. c #44A949",
"x. c #45B54B",
"c. c #4DA553",
"v. c #4EAC54",
"b. c #51A453",
"n. c #52AC55",
"m. c #54A65B",
"M. c #55AD5A",
"N. c #5AAB5E",
"B. c #4DB653",
"V. c #4EBE53",
"C. c #52B256",
"Z. c #54B857",
"A. c #55B25A",
"S. c #58B15A",
"D. c #55BB5C",
"F. c #59BB5E",
"G. c #5CBB64",
"H. c #5AB963",
"J. c #61B666",
"K. c #63BB69",
"L. c #61B966",
"P. c #69BC70",
"I. c #3EC641",
"U. c #40C347",
"Y. c #44C44C",
"T. c #59C25E",
"R. c #5CC462",
"E. c #5ECC64",
"W. c #5FD069",
"Q. c #61C564",
"!. c #61CB65",
"~. c #65C36C",
"^. c #68C36D",
"/. c #62C969",
"(. c #69CB6F",
"). c #63D366",
"_. c #64D46B",
"`. c #64D96C",
"'. c #69DB6D",
"]. c #62D864",
"[. c #6BCC71",
"{. c #67CB70",
"}. c #73C978",
"|. c #66D571",
" X c #6BD672",
".X c #66DB71",
"XX c #6ADB72",
"oX c #6BDE78",
"OX c #73D97C",
"+X c #69E16F",
"@X c #6CE273",
"#X c #6BE772",
"$X c #71E475",
"%X c #73EC76",
"&X c #72E37A",
"*X c #74EB7A",
"=X c #76F37D",
"-X c #79DC82",
";X c #7CE484",
":X c #79EB81",
">X c #77E782",
",X c #7BF383",
"<X c #76F380",
"1X c #88DB90",
"2X c #84EB8B",
"3X c #85EA8D",
"4X c #86F18F",
"5X c #8AF18F",
"6X c #88F191",
"7X c #91E399",
"8X c #B0FBBE",
"9X c #A7F3B4",
"0X c #B8FAC6",
"qX c #C6F9CF",
/* pixels */
"    e k     o + 2         + ;     o . 1       e <       o 0 @     = w       = l @ o   o . = @ o 2 2 1       d w o       O o     ",
"  e ).!.A     I F d     ] XX{ @   d |.r.    A $.r.=     B.*Xo   + u.8.A     E.M.i.o o w i.L     * { I   @ j /.).t   @ j ] +     ",
"  ! s.$.$.@ = P ; S       f.] @     ! i.    } g $.q       *XX   e $.g }     *X0 _.      H L     @ e Y     w.$.s.]       I = @ * ",
"  } s.$.w.  = K 0 S       f.Y   @   ! r.    } a $.r     @ *Xo o i $.g +.    *X; `.      K L       e I     t.+.s.{       I +   ; ",
"o D S.u.} @ X R e G       p.R o @   ] y.  @ { D 8.0       *X    0 r.S  .    @XS Q.  @   L L     @ e { @   X.e.n.L       I =   X ",
"  o f.n.;     k L =     @ %.G     @ S |     < $.{         n.    o ! 8.;     } H.A       l B       , G     = v.k.=       B +     ",
"      o           @           o o           @     @             @     @     o   @               o                               ",
"    S w.+ @   1 k =     F b.g     r s.K     $ | I     . w.r.+ o   L @.=     w #.g     > H d     . d l       w w       d A X     ",
"    I #X+ o   0 Y ,     _.{ /.@ @ A.[ XX= o { { p.0   P M.A.L   , f.{ {     B Q.L   . 0 %.!     + S ! .   0 d g ;   ; I A d     ",
"    . @X=       L ,     #X& *X    !.a `.0   $.B 8.d @ $.9.9.+.@ w 9.j #.      v.L   o @ I I     o w ]     w e d 0   e S u B     ",
"      +X+       L ,     %X= *Xo   E.g ).0   @.A <.a o @.9.e.+.  d 9.B $..     v.L       I Y       q ]     r w d 8   0 K u B     ",
"      XX=       L ,     E.i.D.  o b.d.'.X o ! ,.b.0 o B E.R.S   = b.w.L       c.L       I !     . e [     8 x V = o = [ K i .   ",
"      F .       0 X     0 ] , .   ; ! w       A r       H K       i A X     o j 0 @     3 0 .     + 0       ; ,   .   8 w o   . ",
"                  o @   . . o   o o   o       o   @     o         o .       @   o                 .                   o   o     ",
"    u./.=     l I ;   . e..X@.  @ d F.,.. . * e.9.    ; !.).0 o . u.n.d     a.`.{ @ o d i.L     r $.| .   # S S X . . T { ,     ",
"    6 @X* o @ = I 1   X @Xp XX.   + O.i.    o B k.o . } u.s.~ o r s.S $.  . %Xf E..   $ } } .   I u X., o r i g 8   0 L f B . = ",
"      @X=       I ; o # *X5 *Xo     ~ i.  .   u k.    $.8.e.+.  g e.A 8.  . *X; `.o   . I {   . { q X.8 o d u g w   q D d V . , ",
"    . @X=       I 3   & $Xf &X.     ! r.      r k.o . X.e.y.} o u s.S 8.  . %Xi ]..     ] }     [ r X.0   i u g 0   9 L f B . * ",
"      XX=       I 1 . + b. X9.O     ! i..     s c.o . 0 `. Xr   O m.S.x   . v._.+.O   . { { .   d $.#.X   = K L #   X { } 8 o . ",
"      & .   .   .   O ; ; i ; . .   O X   o   . #   @   = = . o . . * .     X ; .   .   . X       = . . .   . X .   . . =   .   ",
"    # d .     . ; X # ; u | 0 $ @ o ; w . o   A q .     X l       X 9 = .   3 P = o . X S ;     o $ 1 .     3 ;       . ; + . . ",
"  . a.%X=     A X.8 * ; /.n.S.* X l /.i.. . { d.D.8   . v.*X$     $.R.w   . E.c.s.. . r.<.M.X . ; $.X..   0 S L 6 .   S @.= . . ",
"  .   +X*       I 8 = 0 :Xd *X; . . } r.. . t.H k.v   . . *X. . . . n.0   . *X8 _.O . C.0 R.;     w X.X X g d A r . . . [ = . 3 ",
"    . @X=   .   Y 8 = 0 *Xf :X; X . } p.. . r.S k.v . o . %X. o .   n.u . # *X3 `.. . Z.7 G.;   . d +.  . g d A q . . . [ ; . 3 ",
". . . .X;       ] 0 ; 0 OX+. X3 X . [ i.+ . $.} T.a . . . %X# . . . n.w   # $XI R.. . v.V /.X . o i X.. o s G S 0 . . . [ ; . ; ",
"    o p.#   .   A ; ; e X.R.! 3 * . S ] . . 1 i.#.X   . X f.. . . . @.6     I A.g   . g a.S .   O 0 S . . X x x . .   . A = O = ",
"  .   .   o . . . X 3 w f d s 8 = + $ . O . O O .   . .   . o . . . o . . .     . . . . X .   . .   . . . . .   . . . . .   # ; ",
".   I s.* . o g I 0 ; w Y f.[ q ; j M.[ X . , s.,.. . . f.c.= .   S ,.6 o X { C.g . . e @.D . . # H S   . . u A . . . A P * * ; ",
".   H @X; o $ @.j I 0 w ! (.w.u - H.! +X; . 8.%.E.f . I n.C.I .   A T.u . . #X! F.. . 0 i.@.  o = I +.. . . w ] . . 8 [ F B * 3 ",
"  . . @X;   ; } q ] 6 d l H.w.u 3 W.f ].q . a.H B.S . 8.r.y.+.. X X Z.r o . %X0 '.. X . X.@.X . O i #.. . . # { . o s I g K ; w ",
".   . @X;   ; [ e { 8 d B J.e.s 5 E.g ].0 . p.K Z.V . $.r.y.X..   # D.u . # %Xe  XX .   X.$.. .   i #.. . . # }     q I g K ; r ",
". . . +X& . # +.! H q g S J.t.f 4 c.c.'.* o ..B.+X3 . B |._.S X . X D.u . . E.n.s.X . . +.$.. .   f #.. . . X [ . X ; +.[ g ; 3 ",
"  . . B . . o , s - w g S X.! k 4 3 L 0 . . X C a .   . A D . . . . g =   X q K ; . . . 0 0 . . . & 0 . . . . 0 . . # 3 w # ; 0 ",
". . . . . . . . # ; e x H P C z 0 # # . . . . X . . X . .   . X . . . . X   . # . . . . . # . . . # # X . . . . . .   . # # ; 7 ",
". . k.'.* . . { #.x r x J.;Xn.B y S E.9.. o ; R.T.. X . S.@X# X . u.).u . . +.).P X O V T.@.. . j e.<.X . . L ] . . * +.+.w 3 0 ",
"  . ; @X& . ; +.r | r v 2X+.3Xv y 5 O.r.. . + S W.X X   3 <X#     - Q.i . . ; M.I . X # 8.%.. . X.z ,.q . . & X.. . r ! x U 6 g ",
". . . '.- . , | w X.u x 5X[ 4XV p - X.y.. . . l W.. . . . =X$ . . . R.f . . . v.I . . . +.8.. . $.p ,.q . . # +.. . i I g I 3 x ",
". . X '.; . ; @.u } s V 3X$.:XV p - ..i.. .   g !.X . . . <X+ . . X R.d . . . b.Y . # . #.%.. # +.g 8.q . . * +.. X r ! x I 3 f ",
". . . oX; o . [ $.G i S L.2Xm.V p 5 X.i.. . X x {.X . . * ,X* . . # R.f . . O m.Y . . . %.%.. . a i.8.O . . # +.. . * +.%.u 3 s ",
". .   # X . . . # ; i A [ +.! C p 3 % # . . . . # . . . . # . . . . # O O . . * # . . . X $ . . # * # X # . O # . # . O # & 0 i ",
". . O ; X . . 3 j 3 f S %.N.| C p y +.u . . # [ A . . . 8 D . . . % A ; # . * x 0 . . 3 +.q . . * D 9 X O . u u # . . q g - q f ",
". . i L # . = $.] T u S OXK. XH z C.d.`.* X $.v.@Xr . . c.,X# . . r.#Xa . . +.`.] X O A.9.`.* . ] X.s.; . p ! } 4 # ; %.| B 0 s ",
". . . S X . 6 +.q O.d S 5X,.5XZ x _.x ].w O n.I H.S . . # <X# # # . E.d # . O n.I # O W.s #X5 X %.f e.u . S A L f . f ] z ] e f ",
". . . H O . 0 +.r #.d S 5X@.5XZ z ).S `.q . n.I H.C # . O ,X$ . . X E.d . . O n.! . # `.u @X8 # 8.f w.s # D A L g # f ] x ] q a ",
". . . K * . * 8.S [ d S 2Xm.OXJ z L.X.&X; O i.e.|.g X # # <X* . . . !.d # . X n.I # # T.! $X% . X.T s.9 # z P ] u # 0 +.I P 0 g ",
". . X d # .   j P u f S t.[.9.J c n c.P . . ; g.%.X . . # g.* . # # $.9 . * X X.g . # g b.H . . ; | H X . # S S # # # A U 7 w g ",
". . . . . . # . X ; u S ! X.~ J x 4 5 # . X X # O + . # O . . * X * * X # . * # X O O * X X . # # . . # . # # # . # # X * 5 q g ",
". . x S * . . H } f u S w.^.y.J v ^ R.#.. # 9 G.f.# . X %.M.# # . y.F.r . # +.F.V # . p y.] # . 0 9.| # X # v P # . $ I } q u g ",
". 9 B j u . - 8.x X.r V 8.-Xc.Q V R.[ #X5 X a.$.(.j X . K ,X# . p ).#.y.# # #XP E.# . 9 c.8.# # $.K a.q * # f 8.O O q +.L P q x ",
"O q g g a . 0 #.u #.p H ~ (.m.^ M `.V `.q # v.Y G.K . # * ,X% . S D.P v.# # %X7 .X* O * >.9.. . ,.x 9.f . # % 8.# * g [ v ] r f ",
". w l f d . 8 $.f >.s C _ }.n.^ n `.C .Xr # v.! L.H # . # <X% . A D.! c.# # >Xr `.# # * $.8.* * 8.x i.f * # # 8.# # f [ A ~ q g ",
"# ; L H 4 . # r.>.! p J O.OXF.` m C.H. X* # X.R.>X3 # # # <X# . ; +XR.| # # W.A.a.# # * %.8.O * ] e.b.8 * X & 8.# . - 8.$.V r f ",
". . ; 3 # . X 3 f 6 v ) 2.Z.j.=.E b ] 9 . # # S i X * . * V # # = u V * * . 8 C ; # # # 9 q # # & j q # = & # u * # * 8 i 3 q g ",
". # # * . * # # # y Z 2.j.Y.x.4.W b f % # # O 3 * O # # # # * # O # # X * # # 9 # # # # # & # # # ; ; * ; * # * # * # X # ; 0 f ",
"X & I I 8 O O } B.N ` 0.7X9X2Xq.*.n. XR.# X L |.oX3 # # G.:X- * * c.#Xf # # S._.8.* O K `.8.# # w f.9.= = & +.w.# # # [ y.q q f ",
". p B g a # # * l.' =.j.0X~.8XI.-.-XP @Xr # n.{ K.K . # - ,X* * # % W.f * # *Xp `.# # # 7.,.# # = D i.; = = - r.# # * % <.u q z ",
". f B g z . O & j.` 1.l.qXP.0XY.4.;XP @Xi O n.I H.K # # # ,X; # # # E.g # # :X4 .X# = # %.8.= = = B i.= = * & r.# = = # 7.u 9 z ",
". u S x f . # % l.` 1.l.qX}.0XY.4.OX! &X8 # b.} ^.S # # # ,X& * # # !.g $ # *XB ].# = # %.9.$ = # B d.= = * & r.# = $ # y.p u z ",
"# * P P ; # O * k.( *.0.1X0X-XI.-.d.>Xb.# # x XXK.; # # * &X* # # # F.a * * p.+X] # = # $.$.# % # A e.* * * & w.# $ # # e.p f C ",
"* # X # # # * * 5 p N 1.q.x.I.6.&.M 4 & # # * # # * # * * # # # # $ # & = * * # # = = * # # # # # # % * * * # # & # & # = 9 c E ",
". * u g X * * 5 V p c ) 1.5.6.3.W n y.c # # % %.I * * # | %.O # * q ! 8 # = 3 U p # $ ; S B # & & { x # # & 0 v # # # 8 H z m ` ",
"# 8 P L p * O K z.p q n ) ;.;.&.N R.a.&X; $ 8.c.OXp # L ~.R.K # * %.#Xg * * { '.] * * V /.9.# # @.#.n.4 # % ] y.% ; # ~ V.m ( O.",
"# f S B x . # # ,.p - p n ( W W m .XC @Xi X n.! G.U + w.i.s.$.# = # E.j # * # n.I * * # ,.8.# % i.V s.g # # - p.# # # % l.E ) :.",
"# f S g x * # # 8.u ; 9 c Z E W M .XC `.r # n.Y H.K = w.r.p.%.* & % E.g # * = B.] & & # ,.9.* # y.x s.z ; # - p.# & & - l.E ) :."
};
