/* XPM */
static char *eff4f36475f24b98baaeb0afca2ce227RTj6dE7kS7aS7Uso[] = {
/* columns rows colors chars-per-pixel */
"64 64 200 2 ",
"   c #020402",
".  c #080201",
"X  c #030B04",
"o  c #080C05",
"O  c #040408",
"+  c #09060A",
"@  c #050C08",
"#  c #0A0D0A",
"$  c #041205",
"%  c #081206",
"&  c #091A07",
"*  c #051209",
"=  c #0A140A",
"-  c #061C0A",
";  c #0C1B0D",
":  c #051A05",
">  c #10150F",
",  c #101D0E",
"<  c #0F0E11",
"1  c #110F12",
"2  c #0C1510",
"3  c #0E1D11",
"4  c #141514",
"5  c #181717",
"6  c #121C13",
"7  c #161618",
"8  c #18161A",
"9  c #161B19",
"0  c #1C1E1D",
"q  c #0C220D",
"w  c #0D2B0E",
"e  c #10240F",
"r  c #0E2311",
"t  c #0F2C11",
"y  c #122413",
"u  c #1A2617",
"i  c #132B14",
"p  c #182D16",
"a  c #152618",
"s  c #19231D",
"d  c #162D19",
"f  c #1A2D1B",
"g  c #0E3312",
"h  c #153216",
"j  c #143A15",
"k  c #183817",
"l  c #163319",
"z  c #1A341B",
"x  c #16391A",
"c  c #1B3B1C",
"v  c #1E2F20",
"b  c #1D3D21",
"n  c #1B3723",
"m  c #233424",
"M  c #203F21",
"N  c #253D2D",
"B  c #16441A",
"V  c #1C431D",
"C  c #174F1A",
"Z  c #1C4C1F",
"A  c #1C541F",
"S  c #1C5919",
"D  c #1E4321",
"F  c #1F4A22",
"G  c #1E5323",
"H  c #1F5A24",
"J  c #214423",
"K  c #234C25",
"L  c #264328",
"P  c #254D29",
"I  c #2A4C2B",
"U  c #2D432B",
"Y  c #245226",
"T  c #285027",
"R  c #235B26",
"E  c #285B27",
"W  c #255329",
"Q  c #2A552B",
"!  c #265B2A",
"~  c #2B5C2D",
"^  c #2F5734",
"/  c #2D5D31",
"(  c #305E33",
")  c #256526",
"_  c #2C642E",
"`  c #2C692E",
"'  c #26692A",
"]  c #30622E",
"[  c #2A752C",
"{  c #2E6432",
"}  c #2E6A32",
"|  c #326534",
" . c #326B35",
".. c #36643B",
"X. c #346D39",
"o. c #386F39",
"O. c #39663C",
"+. c #2F7235",
"@. c #347235",
"#. c #397337",
"$. c #327C36",
"%. c #35733A",
"&. c #39743B",
"*. c #367A3A",
"=. c #3A7C3D",
"-. c #386540",
";. c #3C7C41",
":. c #467A4D",
">. c #36813B",
",. c #3C833E",
"<. c #3D8342",
"1. c #3E8A44",
"2. c #418443",
"3. c #428C46",
"4. c #428449",
"5. c #49834A",
"6. c #448C4A",
"7. c #4A8D49",
"8. c #429246",
"9. c #489747",
"0. c #459149",
"q. c #45934A",
"w. c #49954B",
"e. c #459A4B",
"r. c #4A9B4D",
"t. c #429845",
"y. c #50934F",
"u. c #4D9C52",
"i. c #4B9655",
"p. c #529556",
"a. c #509C56",
"s. c #4AA24D",
"d. c #4DA553",
"f. c #4EAB54",
"g. c #51A553",
"h. c #51AB55",
"j. c #54A65B",
"k. c #55AD5A",
"l. c #5AAB5E",
"z. c #4FB555",
"x. c #53B357",
"c. c #54B857",
"v. c #55B35A",
"b. c #58B15A",
"n. c #55BB5C",
"m. c #59BC5E",
"M. c #5CBD62",
"N. c #5AB963",
"B. c #61B666",
"V. c #62B968",
"C. c #61B966",
"Z. c #56C15C",
"A. c #5CC25F",
"S. c #5CC463",
"D. c #5ECB64",
"F. c #5DC869",
"G. c #5FD069",
"H. c #61C564",
"J. c #62CB65",
"K. c #68C36D",
"L. c #63CB68",
"P. c #69CB6F",
"I. c #63D366",
"U. c #64D46B",
"Y. c #65DA6C",
"T. c #69DB6D",
"R. c #65D667",
"E. c #67CB70",
"W. c #6BCC71",
"Q. c #73CC76",
"!. c #65D671",
"~. c #6BD671",
"^. c #67DA71",
"/. c #6ADC72",
"(. c #6BDE78",
"). c #72D37B",
"_. c #79DF7F",
"`. c #71DE7C",
"'. c #6BE16F",
"]. c #64E26E",
"[. c #66E070",
"{. c #6DE272",
"}. c #6DEA73",
"|. c #71E574",
" X c #72EB76",
".X c #73E27A",
"XX c #74EB7A",
"oX c #76F37D",
"OX c #79DB80",
"+X c #7EE685",
"@X c #7AEA81",
"#X c #79E783",
"$X c #7BF482",
"%X c #76F380",
"&X c #84EB8B",
"*X c #89EF8E",
"=X c #86F18F",
"-X c #8AF18F",
";X c #87F090",
":X c #88F191",
/* pixels */
"    | }.* O   e W =     J.%.S.. . y f.0.    @ T  .    K c.v.W O O z =.,     K J.Q   O | M =.    o J T       4.XX7 + # W U N O @ ",
"    O {.%   .   K 2     }.% XX      _ 6.      6 %.  . &.2.3.@.    .  .;       g.T     %.= ;.O   . f Q       9 _.4 4 y M i M O = ",
"      {.% O     K ;     |.- XX      _ 0.      y @.  O =.<.6.X.       .6       d.Q   O &.; ;.+   1 v ( +     $ {.+ 4 m J y c   = ",
"      {.X       K =     L.2.m.      ` 6.      3 @.  . J Z.M.K O     @.;     . g.Q   . o.T 4.# o 1 f ( +     * {.  O u ^ J i     ",
"    O / O .     ; +     d %.y .     a c       # f       Q ~         f @       M y     , I s 4 4 7 0 m 5 +     |     O 6 p       ",
"      O                 O     O     .                     O           .     O         O 4 1 4 7 4 O @ 5 # .   O         .       ",
"  X Z.F.y     d K 2     =.U.|     ~ U.0.    @ | { O . = S.S.,     L &.;     3.U.~ O . N 2.( 7 7 s Q I 8 1 f H.S.= O   K W 2     ",
"  Y g.3.@..   # Y ;     (.z (.O O M.V Y.4   O n =.    _ w.w.] .   = =.;     |.c D.    =.f p.4 O 4 U -.4 4 5.:.s.Q . 3 K f z   @ ",
"  } w.;.;.      P ;     |.%  XO   D.c U.d O   y =.  O =.<.3.o.      =.3     XX- T.    6.u p.#   O m O.# 8 y.&.r.{   y J i b   = ",
"  _ r.<.=.      P =     }.; {..   S.k U.r . O r =.  O  .3.6. .      ;.;     XXy I.O   4.u p.4 . 1 m | 4 8 7.&.r./   3 K d b   % ",
"  = !.Y.c       P ;     g.J.3.  . ;.S.m.  .   a <.  O y R.T.d       ;.3     b.J.<.O < | 3.:.7 4 9 v O.4 4 c U./.y   @ ~ Q 3     ",
"O   = 6   .     @ O     @ p O O O . i o         #     . ; , O .     % @     @ i O     O y * 7 4 # 4 s 4 O . 6 =       @ #       ",
"    d z O .   # ;         # = O   O @ 6     O a >       O y   O   = p       = L o .     X =   O 4 4 3 O     z d O       # O     ",
". a U.F.J     ~ I d     | {._ .   z !.3.    D =.6.=     z.XX    # 0.<.J     F.x.q.O   p e.T     = | E O . J F.I.c     D { % O   ",
"  _ r.=.=.. = E ; P       r.{ .     ` 3.     .c *.i       XX+   i >.c  .     Xy U.@     P Q     . a ~     <.&.r./       ~ #   = ",
"O } r.=.2.O = Y e K       u.{   .   _ 3.    %.k =.d     . XX@   f =.c %.     X; !.      W ^       a _   . 6.%.r.{       ~ %   ; ",
"O K k.7. .  % ( f J     . i.| O      .0.    | K ,.i       XXX   y 6.Y |     {.K H.      Q E       d /     @.3.f.T       _ =   $ ",
"  @ r.x.;     c T =       &.K .     K  .  . ; ;.| @     O k.O     _ <.;      .S.J       M F     . ; J .   ; h.d.%       D #     ",
"      O                           O   O     .           .       O . O .     . O   O             O O O                   X       ",
"    K 2.# . O 6 n #     I d.n O   d r.Q     % X.E       1.3.o     I %.%     f $.z     > P c     O c c X     d p   @   z J X     ",
"    ~ }.= O   y { 3     U.| L.    b.} '.=   | | e.y   ~ k.v.Q   3 u.| | X   D H.~   O y ;.~     # P {     t z c ;   ; ~ J c     ",
"      '.% O O   E 6     }.= |.X   J.c Y.y   *.D <.z . *.1.1.%.  l 1.c *.    X f.Q   .   ~ ~       i _     f i z y   i P l J     ",
"      '.*   .   Q ;     |.= XX  O S.k R.y   =.D ,.z O &.<.3.&.  z 1.D =.X     g.Q       ! {       d _     l i z r   a P h F     ",
"      {.#       ~ ;     F.e.m.    g.e.T.o O ~ <.g.e   F S.D.K X = g.2.~       g.~   X   _ _       p  .    q D J ;   % } W z     ",
"      P X       y o   . i { 3     ; _ p   X X D d       W W       h J X     X b y .     q y   X   = i       , ;       r p @     ",
"      O                 X X   o O     O       X X                 O X             O                                       X     ",
"    9.J.=     c _ ;     8.Y.%.O . z m.=.    % 3.1.@   q L.I.a O X 9.g.z     e.T.| O   l e.~     h *...    % P K $   X ~ | 3   X ",
"    y {.= X   & ~ 6   $ {.l {.X O % $.w.    X D s.     .6.e.}   f r.K =.    XXx D.@   &  . .    _ z %.r X h z c y   y ! x D X = ",
"X   X {.=       ~ 3   $ XXq XX      _ 0.      l s.    =.3.3.%.X c 8.J <.X X  Xq T.X     _  .  X { i +.r X z d c t X i Y l K   3 ",
"      '.=       ~ q X % |.l .X      _ 0.      h d.    @.3.8.X.  h r.K <.  X }.h G.    X ~  .    { l @.y   z h c y   y Q z F   = ",
"      {.=   X   ~ q X % g.^.3.@     } 0.X   X l d.  X y Y.~.d   @ j.b.c     h.U.%.@     | |   X z =.*.X   & W Q @ O X  . .r   X ",
"    X %         @   @ = q h = $ X   @ $   X   X *   O   = % X     X - @     o q X X X X X X       % o @ X   X X   X X X * X   @ ",
"X   $ x X     X ; @ $ ; h  .y o   O ; i X O X D i X X   o c X   X $ i &     q ~ = X   $ K ; X   X % 6 X o O ; ;   X X X , X X X ",
"    e. X;     J @.r * 3 L.k.b.* X M P.0.X @ | q.m.e     f.oXo X   =.A.p X   G.s.r.X X 6.,.k.X   ; &. .X   r T Q ; X X K #.= X X ",
"  X   {.%     X ~ r = r @Xc XX; X X } w.X X 7.Y s.Z   X X XXX       x.i   X  Xy Y.X @ x.t M.; X X h @.X X c z J i X X X ` = X q ",
"      '.;     X { q = y XXz $X; X X } 7.X o 3.K s.Z X   X XX@ X X X h.i X $ XXq T.X   c.t M.= X   z @.X X c z J d   X X } ; @ e ",
"X   X {.-       / r ; y `.%.~.; % X  .w.o X =.| Z.k   X $ XX$ X X X h.f   X {.~ F.X   h.K H.% X @ f @.X X z D K t X X X } ; @ - ",
"  X O e.%     X J 3 ; i %.M._ q % X F { X @ y w.*.X X X X u.X     X %.e X X ~ x.k X X c e.Y X X @ y T X X X J V X X   X K = X = ",
"      X   X     @ X q f x k l w ; + % o o @ @ $   X   X X   @ X $   @ .   @ @ X X X X X o   X   X   X     X     X   @     X = - ",
"@   _ w.=   @ M ~ y ; p / u.} y ; V k.{ % X ; e.1.X X $ r.d.=   X K ,.e X X { h.c   X a %.W   X % P Y X @ X j D X X   K ! = * ; ",
"  X Y }.=   % &.c ! y h ~ E.2.h - m._ T.-   2.*.D.k X _ x.h.~ @ X K A.h @ X [.{ Z.X X y w.&.@ X = ! *.X X X h { X X q  .I F * r ",
"  X X {.- @ q | i ` y z V N.2.h q D.B R.i X e.Y x.F   <.6.t.%.X X X c.h   $  Xy T.X @ o X.*.  X @ z *.X o X $ | X X d ~ z Y = d ",
"X   $ '.-   ;  .i | y z J B.3.z q D.x R.t X i.W c.F X =.6.0.@.@   X n.h X $  Xi T.X @   @.*.  X   z *.X X X $  .X X p ~ c W - h ",
"X X X '.-   $ &._ T i k K V.6.z w d.d.Y.@ O +.z.].i   V U.U.F @ o X n.z   X I.h.r.o X o %.*.X X X z *.  X X $ } X X & &.} c ; r ",
"  X o V $ X X ; f - d c P %.~ x w ; ! y X X @ G z X X X J J X X X X k = X X i Y ; X X X w i   $   & i X   X $ y X X X r d $ ; e ",
"X X   @ X   @ X X ; d V Y ! G B i - X X X X X @ X @ o @ X o X o X X X X X X X X X @ X   @ o X X $ $ X X X X X @ X X X X X : ; y ",
"X X s.T.= X    .*.V h V B.+Xj.V w K D.3.  @ ; S.Z.X X   b.{.$ X X 3.J.l X X &.U.Q X X K A.%.X X M 3.,.% X $ Q { X X % %.%.p q w ",
"X X - {.; X ; %.h  .f V &X%.&XC g q $.0.X   @ K I.X X @ q $X$ X o ; H.z X X & k.~ X o & <.=.X X @.V ,.i   X & @.X X h ] V E e z ",
"  X X '.; X 3 X.i @.d V =X+.=XZ g q [ 0.X   X c J.X X X X oX% X X X A.z X X X h.! X X X %.<.X X *.j =.i X X $ %.X X h ~ c ~ q V ",
"X X   '.;   ; &.h  .h K *X;.+XZ g q } e.X X o V U.X X X X oX% X $ $ A.z X X @ h.~ $ X $ *.>.X X &.B 2.i X X $ %.X X h _ D ! e k ",
"X X @ {.; X @ ` =.J l K N.&Xj.F j q +.e.X X o c P.o X X @ %X$ $ X $ F.l X X @ h./ X X X ;.:.X X k 0.3.$ X X $ &.$ X $ @.;.h q l ",
"X   X $ X X X @ % q l J  .@._ G j q : $ o X @ X : X X X X $ X @ $   $ @ @ X @ X $ X X X $ $ X X X $ $ X @ @ @ $ X $ X $ $ & r z ",
"X X X q X X @ e V q l K ;.l. .G j g %.h X @ X  .J X X X q Y $   X : J ; $ @ $ B y X @ q %.h @ $ % K i X $ @ h h @ $ X d c - y z ",
"X X z W $ X % =._ ~ l F OXK.).Y c x.t.^.% X =.f.(.p X X d.$X$ X X 6.}.k $ X %.T._ @ X b.1.U.$ @ { %.r.; $ h {  .w X q ;. .K t z ",
"X X X Y $ X q %.d @.z Y -X=.=XH V I.B R.h @ h.~ M.K X X @ $X$ $ $ X S.k $ X X h._ X * G.h {.q o ;.x 1.h X K D W c $ l _ B _ i x ",
"X X X T # X y %.h *.z K -X$.-XH B I.F Y.i @ h.~ N.Y X $ $ $X% @ @ $ S.c X @ $ h.! $ @ Y.h {.q $ <.x 1.l $ K J ~ x @ z { V { i z ",
"X X X P % X % <.K } z F +Xj.#XR B S.+..X3 X 9.2.~.V $ X $ oX$ @ X $ J.z $ @ X h._ X $ A.` |.- X #.~ r.w @ B ! { l $ y *.E W i c ",
"X X X x $ X X V ~ i l K 7.P.1.Y B A d.E @ X q y.=.X X X $ i.$ X $ X ,.y @ $ o @.b X $ c s.P X X ; X.T X X $ P K $ $ $ Z E y i c ",
"X X @ X @ X X   $ q h K _ +.} H B w q $ X X X $ @ o $ $ @ $ $ $ X X * X X $ @ $ X $ # X X o X $ $ $ $ X X $ $ $ X $ $ X $ q i c ",
"@ X V F = X X T  .z h F 4.K.t.R D ' S.*.X $ g M.a.o X X ;.k.$ @ % 0.m.z $ @ @.S.F @ $ j e._ X $ y 1. .$ X $ F ~ $ $ X ~ @.y d B ",
"$ q K c h X - 2.F  .l F <._.d.) C F.{ {.e X e.;.E.J @ X Y $X= X l G.*.8.$ $ '.E D.$ $ t d.<.@ $ =.W e.h * $ j <.$ @ h &.! ~ d c ",
"@ i V x j X y $.h *.l G ` W.h.) C Y.Z Y.h X h./ N.W $ X $ $X$ $ K n.~ f.$ $ XXw /.$ @ $ >.<.$ $ ,.V 1.z $ $ * <.$ * k { V ` i c ",
"X d M j z @ r =.z >.l H [ Q.k.' G Y.Z T.y $ f._ C.Y $ X $ $X% $ F Z.! f.$ : XXh T.$ $ * =.1.@ * <.V q.x * $ * <.$ $ x } J ` h j ",
"$ - Q T w @ $ 3.>.' h ) $.).m.[ S x.M.T.$ $ @.S.#Xe $ $ $ $X: $ - T.S.X.* % J.c.e.* $ $ =.<.* * _ 8.g.r * * : <.$ $ ; <.=.Z i c "
};
