/* XPM */
static char *_0d39f2762c242dae24150f2f29fe145ip7zI3nIfYFhGMLy[] = {
/* columns rows colors chars-per-pixel */
"64 64 216 2 ",
"   c #020402",
".  c #030B04",
"X  c #080D05",
"o  c #040408",
"O  c #050C09",
"+  c #0A0E0A",
"@  c #080406",
"#  c #051205",
"$  c #081206",
"%  c #061A06",
"&  c #091907",
"*  c #051209",
"=  c #09140A",
"-  c #061B09",
";  c #0B1B0C",
":  c #101D0E",
">  c #10150F",
",  c #0F0D12",
"<  c #0E1D11",
"1  c #0E1610",
"2  c #141514",
"3  c #121C13",
"4  c #18161A",
"5  c #0C220D",
"6  c #0D2B0E",
"7  c #062007",
"8  c #10240F",
"9  c #11280E",
"0  c #0E2311",
"q  c #0E2B11",
"w  c #122513",
"e  c #1A2617",
"r  c #132C14",
"t  c #182D16",
"y  c #152618",
"u  c #162D19",
"i  c #192D1A",
"p  c #18211D",
"a  c #0E3313",
"s  c #153216",
"d  c #143A15",
"f  c #193917",
"g  c #163319",
"h  c #19341B",
"j  c #163B1A",
"k  c #1A3B1C",
"l  c #1A3317",
"z  c #0B320B",
"x  c #1D3E20",
"c  c #1B3723",
"v  c #203F21",
"b  c #223623",
"n  c #134414",
"m  c #16431A",
"M  c #1C431D",
"N  c #1C4B1E",
"B  c #174F1A",
"V  c #1C541F",
"C  c #1B5618",
"Z  c #1B651E",
"A  c #1E4321",
"S  c #1E4A22",
"D  c #1D5322",
"F  c #1E5B23",
"G  c #214423",
"H  c #234C25",
"J  c #254D29",
"K  c #284D2A",
"L  c #264328",
"P  c #235226",
"I  c #235C26",
"U  c #255329",
"Y  c #29552B",
"T  c #265A2A",
"R  c #2B5C2D",
"E  c #285627",
"W  c #2D5D31",
"Q  c #2A5730",
"!  c #315F35",
"~  c #1F6723",
"^  c #246524",
"/  c #2C632E",
"(  c #2B6A2D",
")  c #26692A",
"_  c #30622E",
"`  c #2A752C",
"'  c #297B2E",
"]  c #217724",
"[  c #2E6432",
"{  c #2E6A32",
"}  c #326534",
"|  c #326B35",
" . c #346D39",
".. c #36663B",
"X. c #2F7235",
"o. c #347235",
"O. c #397337",
"+. c #327C36",
"@. c #35733A",
"#. c #39743B",
"$. c #367A3A",
"%. c #3A7C3D",
"&. c #3B7C41",
"*. c #467A4D",
"=. c #29872A",
"-. c #29882C",
";. c #2B952E",
":. c #36813B",
">. c #3C833E",
",. c #3A883B",
"<. c #319B33",
"1. c #339639",
"2. c #2FA232",
"3. c #38A83C",
"4. c #38BC3C",
"5. c #43813F",
"6. c #3D8442",
"7. c #3E8A43",
"8. c #3DAD42",
"9. c #3EB747",
"0. c #418543",
"q. c #428C45",
"w. c #448C4A",
"e. c #468A4A",
"r. c #429246",
"t. c #45934A",
"y. c #49954C",
"u. c #459A4B",
"i. c #4A9B4D",
"p. c #459846",
"a. c #50934F",
"s. c #4D9C51",
"d. c #4B9655",
"f. c #539656",
"g. c #509C56",
"h. c #42AD47",
"j. c #4AA24D",
"k. c #45AE4B",
"l. c #48AC4C",
"z. c #41A249",
"x. c #45B54B",
"c. c #4DA553",
"v. c #4EAB54",
"b. c #51A453",
"n. c #52AB55",
"m. c #54A65B",
"M. c #55AD5A",
"N. c #5AAB5E",
"B. c #4DB653",
"V. c #4DBF53",
"C. c #52B256",
"Z. c #54B857",
"A. c #55B25A",
"S. c #58B15A",
"D. c #55BB5C",
"F. c #59BB5E",
"G. c #5CBC63",
"H. c #5AB963",
"J. c #61B666",
"K. c #63BB69",
"L. c #61B966",
"P. c #69BC70",
"I. c #3EC641",
"U. c #40C347",
"Y. c #44C44C",
"T. c #59C25E",
"R. c #5CC462",
"E. c #5ECC64",
"W. c #5FD069",
"Q. c #61C564",
"!. c #61CB65",
"~. c #66C16C",
"^. c #68C36D",
"/. c #69CB6F",
"(. c #64CA69",
"). c #63D366",
"_. c #64D46B",
"`. c #65DA6C",
"'. c #69DB6D",
"]. c #65D667",
"[. c #6BCC71",
"{. c #67CB70",
"}. c #73C978",
"|. c #66D671",
" X c #6BD672",
".X c #67DA71",
"XX c #6BDB72",
"oX c #6BDE78",
"OX c #74D97C",
"+X c #6BE16F",
"@X c #64E26E",
"#X c #6CE273",
"$X c #6BE772",
"%X c #71E475",
"&X c #72EB76",
"*X c #71E37B",
"=X c #74EB7A",
"-X c #76F37D",
";X c #79DC82",
":X c #7CE484",
">X c #79EB81",
",X c #77E782",
"<X c #7BF383",
"1X c #76F380",
"2X c #88DB90",
"3X c #84EB8B",
"4X c #85EA8D",
"5X c #86F18F",
"6X c #8AF18F",
"7X c #88F191",
"8X c #91E399",
"9X c #B0FBBE",
"0X c #A7F3B4",
"qX c #B5F8C3",
"wX c #BCFCC9",
"eX c #C6F9CF",
/* pixels */
"  { y.&.0.      H =     %XX &X    !.g ].y @   0 &.  o %.0.q.O.      %.3     =X- '.o   w.y f.+   o b .., 4 f.O.i.}   w G r x   $ ",
"  T i.6.#.      J ;     #X8 $X@   Q.k ].0   @ w %.     .q.w.|       %.<     =Xr ).    w.e f.= o , b } 4 4 e.#.i.R   3 H r x   = ",
"  ; .X'.h       J 1     n.!.q.    &.T.F.    @ y &.    w ).'.i       &.<     S.E.*.o + ..0.*.4 2 2 b ..2 2 h _..Xw   O T R ;     ",
"    ; 3         O @     O y   o o   t O         +     @ 1 ; o       X o     . r     @   y + 2 2 + 2 p 2 X   3 1   o o . O @     ",
"    y h o     + ;         X >     @ . 3       y 2         3       ; t       $ L       o . +   @ 2 2 3 @ @   h y @       +       ",
"@ y ).W.G     R K u     } oX_ @ @ h |.w.    G %.w.=     B.=Xo   + t.&.G     R.M.t.o   i t.Y     $ } R     A !.).i     G } +   o ",
"  / y.>.&.  = E : H       s.[       / q.     .k %.s       =X@   t $.k o.    =Xw _.      P Y       y R     6.#.i.[       R =   = ",
"o [ y.&.0.  = Y : H     @ s./       ( q.    o.h #.g       =XO @ u %.k  .  . &X; '.      U Q       y R     e.O.i.[       T $   = ",
"o H M.t.|   X [ y H       a.[ o     [ t.    } U 7.w       =X    0 w.P }     %XH R.      Y Y       e !     o.q.v.K o     / $   # ",
"@ X i.A.;   o h K ;     @ #.L   @   H |   @ > %.}         M.    o / 0.;     | F.A       v G       w G     = n.b.$       G +     ",
"    @       o           @ .           o                 @ . @         o                         @                               ",
"    H 0.+   @ 2 c =     J c.b     r j.Y     X  .Y       q.w.O   @ K O.=     i $.h @   > P f     . h k     . t t       h G .     ",
"    T $X$ o   w [ ;     _.} (.  @ M.{ #X=   } } t.y   T A.M.R   3 s.} }     G Q.Y   @ w %.R     + U /   . w l k ;   ; R G h     ",
"      XX* @ @   Y ;     #X& =X    !.h `.w   #.x 6.g @ %.7.7.o.  g 7.k %.    . c.R       R R     @ y {     y y g w   y H g G     ",
"    . XX$       Y <     #X; =Xo   E.f ].r   %.G q.g   O.6.w.O.  g 7.A %..     n.Y     . R /       r [     g r h w   w U s G   . ",
"      #X$     o Y ;     E.t.F.  o c.u.'.. @ R >.b.:   H E.R.S   = b.0.R       c.Y @ @   W W       t {     0 A A ;   = [ Y g     ",
"      K .       w X     e / <     1 / t     . G i       P U   .   s G .     o x 3       5 w .     $ y       5 ; .     5 t .     ",
"                  o     . . .                 o .       .         o . .       . . o                 .     o           o       . ",
"    p.(.=     k / :     q.'.O.  @ c F.>..   $ q.7.    ; !.).y @ . e.b.h   . t.'.[     h t.R .   u #.} .   $ H H # . . R } < o   ",
"    8 #X=     + R 3   . $Xf #Xo . $ $.w.    . A j.o   | t.t.{   g i.H $.  . =Xj !..   X | |     / g O.0   t g k w   w U h M o % ",
"      +X=     . R ;   # =X5 =X      / t.      s j.  o %.7.q.$.o h r.G 6.  . &X; '.o   . W }     [ r | w o f u k r   r P h H o ; ",
"    . #X= o     R w . # %Xg *X  .   ( w.  .   u c.o . o.q.q.| o l i.H 6.  . &Xg )..   . [ |   . [ s o.w   g g k 0 o q Y j S o % ",
"    . XX=       W ; . + b..Xq.O     { t.  . . u c.    w `. Xt   . m.S.k .   n.).$.o   . [ } .   h %.$.X . $ U Y *   . } | 0   . ",
"      #     .   .   . ; 5 g - X     O X       . + .     $ = . . . # = . o   . 5   .   . . X     o = . . .   X .   . . X O .   . ",
".   # g .     . & O X ; u | w # o . 1 t   O X A u .     * k   @   X r $ . . 8 T $ .   $ J ;   . . $ w   @ . 3 ; .   . . : X   . ",
"    u.&X=     G O.0 % ; (.M.S.= . k ).t.. X ! t.D.w   . v.=XX   . %.T.t .   !.j.i.. . w.>.M..   ; #. .. . 0 H Y ; .   H o.; . . ",
".   . +X=   .   R 0 = 0 =Xk >X& . . | t.. . e.P j.M   . . =X. . o   n.r . . =Xw `.. . Z.q G.; .   l o.. . k h G t . . . { & . 5 ",
"    . +X%       W 0 1 0 >Xj >X; X   | t.. . w.J l.N   . . &X. o . . v.r   . =X5 `.o . Z.0 R.= . @ g o.. . k h G r . . . { = . 0 ",
"  . . #X= .   . W q ; w OX@.'.; X . | t.X . %.{ T.j .   . &XX .   . n.t . . XXR R.. . c.H Q.#   . i O.. . s G H 0 . . .  .; . ; ",
".     y.# o   . A < ; y o.R./ 5 $ . H [ . . w t.$.. . . . s.. . . . $.8 . . R S.k . . k u.H . . O w H . . . A k . .   . H * O = ",
"    . . . o . .   X ; t g f g w % + $ O O X O X .   . . . . o . . . . @ . . . . . o . . X .   . . . . . .   . . . . . o   . # - ",
".   T y.+ .   k W w 5 i W s.| r & x M.[ X . ; s.6.. . . i.c.$ .   H 6.w     [ C.k . . y O.H . . # U J   . . s v . . . H T = * ; ",
"  . E $X=   # O.x R 8 l ! {.0.q 5 D./ @X; O 0.$.E.f . / M.C.R . . G R.s   . #X[ F.. . w y.#.. . * R $.. . . u } . . 0 } J S % 0 ",
"  . . XX; . ; | w ( w g v H.q.s 5 E.M W.r . t.D B.N . &.w.r.#.. X . Z.l . X =X0 '.. X .  .%.o . o g $.. . . . } . . g R h U % t ",
". . . #X;   < { y | 0 g M J.e.j 7 E.j ).w . d.U A.S . %.w.r.o.. . . Z.s . # &Xy  X. . . O.$.. . . g $.. . . # | .   t R k Y = u ",
". . . #X& . . $./ U t h H L.w.j q c.c.'.* o  .B.@Xw . A |._.H . . . F.g . . E.n.j.  . . O.#.. . . g $.. . . # | . . & #.{ x - 0 ",
"  .   M . . o ; u 5 r k H o./ h q 5 T w   . . D j . . . G J . o . . k = . . w U < . . . 6 w . . . ; r . . . . w . . . 0 t # - w ",
". . . . . . . . X & r M P R D m w % # X . . . X . . X . X X . . . . . X . . . . . . . . X . . . . . # . . . . . . . . . . # 5 w ",
". . j.'.= . . } $.M u A H.:Xm.M q S R.7.  . < R.F.. . . S.XXX . . e.!.g . . $.).Y X O A T.#.. . v q.,.$ . . Y [ . . $  .$.t 5 9 ",
"  . ; $X; . ; O.s | u A 3X#.3XM a 5 +.t.. . O H ).. X . 5 1X# . X - R.g . . & M.R . X % 6.>.. . o.k 5.r   . % o.. . s _ x I : k ",
". . . '.; . ; | r o.u M 6X{ 5XB d 7 ` t..   X k E.. . . . -X$ . . . T.k . . . v.W . . . #.&.. . $.d 6.r . . * O.. . l R k R 5 M ",
". . . #X< . < #.s  .l S 3X6.3XS a 5 X.t.. . . v ).# . . . -X# . . . T.l . . . v.W . . . %.&.. . $.k 6.q . . * @.. . r / M R 5 f ",
"  . . XX1 . . { %.G l S G.3Xm.N d 5 X.r.. . X v {.. . . X <X# . . X !.k . . O m.W # # . &.&.. . f t.6.* . . # #.. . # o.&.s w s ",
". . . . . . . . # ; g H { @./ D j 5 % # . . . . # . . . . # . . . . # X * . . * . . . . # # . . X * # # . O O # # . # # # & w g ",
". . X ; X . . 5 A 5 g H &.N.| I d a $.s . . # | G . X . 0 U . . . - G ; * . $ k q O . 5 O.r . # # J q # O . s r # . . t k - w g ",
". . g Y # . $ %.W R g H ;XK.OXD k B.r.@X$ . #.n.oXg . . c.<X# X . e.$Xk . . @.'.R O * D.7._.# . [  .y.< . f { { q . < &.| H r g ",
". . . J * . w O.r $.g H 4X>.6XD m ].S W.r X n.R H.H . . . <X# . . # E.h # # # n.W # . W.j $X< . :.j 7.s . H A Y j # f [ M / r j ",
". . . U + . 0 o.s $.g H 6X$.6XF M ].A `.r X n.R H.D # . # <X* # # . T.f . . . v./ . O W.s $X; # 6.k 0.g * J A T x . g / M { r h ",
". . . J * . % 6.J [ g H :XN.OXT m R.o.*X; X p.0. Xk . . # <X# . . X !.h O # X M.T # # R./ #X* # O.R y.q # m T [ g . 9 $.T Y w k ",
". . X h # . . k R r s H e./.7.I m V c.T . O 5 a.&.X . # . d.* . # # %.q # . X | M X . k c.P # . <  .P X . # H H # # # H T 9 r k ",
". . . . . . . . # 0 g H / X.{ I m 6 5 # . . . # X X # . O # . # . # * X . # * # X O O X X . . # # # # . # . . X . . # . # 5 r k ",
". # A G # # . K o.s s S 0.^.p.I A ) R.$.. # a G.s.# . # &.M.# . X t.D.u # . O.T.S # # d r.[ # . q 7.| # # # N W # # . R o.r r M ",
". q G v r . & 6.S | g S 6.;Xc.^ N R.{ $X5 # u.&.{.A . # P <X# # g ).:.p.# # #XT R.. # q c.6.# # %.U i.q * * g 6.. * s #.U T s k ",
". u M g f # 8 $.s $.f D ( [.n.^ B '.N `.r . n.W H.U . # # <X# # S Z.T v.# # =X9 XX% O * :.7.# X >.x r.g . # % 6.* * f [ M ( u k ",
". u A d h . 0 %.g :.s P ` }.M.) V .XV XXr # v.W J.U . . # <X# . S T.R c.* # =Xs `.# * # %.6.O # 6.M t.f * # % 6.# # h | G ( r k ",
". - E E q . # w.:./ d I +.OXF.' C C.H._.# # o.R.,Xw X # # 1X% # ; .XR. .% # !.Z.u.O * # &.6.* * [ 7.c.w * # * 6.# # - 6.%.S s f ",
". . ; 0 # . X 8 j 6 B ` 1.B.l.-.Z n R r # # # J l # * # * N # # O s S * * * 0 P & # * # q r # # - x t * = % % r * # # q h 5 r f ",
"# . # # . . # # % a I 1.h.Y.9.3.] n j % # # # 5 # O # * O # * # * # * $ * . # 0 # # * # # - # # * & = % = = * % * # # # * ; r j ",
". & T W 0 X O | B.^ ' 3.8X0X3X4.-.n. XQ.# O W |.XX5 . # G.>X% O * c.#Xj # # A.).6.* * Y W.6.# # t s.7.; = = #.6.# # # [ 7.s r j ",
"X s S x j # # & l.] ;.h.wXK.9XU.;.;XT *Xq * b./ G.U # * - <X& O # % E.j # % ,Xj _.# # & 0.,.# = = J r.; = = ; 0.# # * % ,.s r j ",
". j M x k # # # k.' <.x.eXP.wXY.2.,XI #Xg O n.[ G.U O # # <X; # # % E.k * # >X6 XX# # # >.6.# = * G r.; ; $ = w.% $ $ % 7.s a m ",
"# r S A d # . % k.' <.k.eX}.wXY.<.:XT *Xq # b.{ ^.J # # % <X- * # # !.k # # =XA ).# = # &.7.= = * G t.% $ $ & w.* $ $ # r.s r m ",
"O % T R - . * * z.( -.8.2XqX;XI.;.p.*Xb.# # A  XK.- # # # *X# $ # # R.j * * t.@X{ # = # &.%.# $ # x q.* * * - 0.# $ $ # q.g j V ",
"* . # # # # * # 7 d ~ 2.9.x.9.4.' C z % # $ O % * * # # $ $ # # # $ $ $ * * = # # + % # # # $ # # # # * * * * % $ $ # # - 6 B ^ "
};
