/* XPM */
static char *cce9584bfe7344b498836cf6206d07a7a1aUQYFFB5Xx2WxC[] = {
/* columns rows colors chars-per-pixel */
"64 64 193 2 ",
"   c #3F0815",
".  c #3F0713",
"X  c #4A060D",
"o  c #44090F",
"O  c #4C0C0F",
"+  c #530B0F",
"@  c #5D0D0D",
"#  c #58120E",
"$  c #420715",
"%  c #4A0613",
"&  c #440914",
"*  c #4B0B13",
"=  c #400718",
"-  c #400819",
";  c #4E0D18",
":  c #530C12",
">  c #5D0D10",
",  c #4E1113",
"<  c #4D101B",
"1  c #531213",
"2  c #5C1514",
"3  c #5D1C13",
"4  c #581A18",
"5  c #650D0C",
"6  c #63110E",
"7  c #6B120C",
"8  c #6D1B0C",
"9  c #71160D",
"0  c #731B0D",
"q  c #7A1D0D",
"w  c #660B10",
"e  c #631411",
"r  c #621E14",
"t  c #6A1D14",
"y  c #641F19",
"u  c #6B1D18",
"i  c #6E1611",
"p  c #731B12",
"a  c #5F2013",
"s  c #7D230E",
"d  c #76230A",
"f  c #622015",
"g  c #6D2214",
"h  c #6B2218",
"j  c #6B2918",
"k  c #722314",
"l  c #7C2413",
"z  c #742B15",
"x  c #7D2A15",
"c  c #7F2F18",
"v  c #75291B",
"b  c #763116",
"n  c #7C3316",
"m  c #7F3816",
"M  c #74301B",
"N  c #7F3719",
"B  c #5F1E23",
"V  c #5D212A",
"C  c #5C2B36",
"Z  c #662A2E",
"A  c #682A29",
"S  c #662F38",
"D  c #494949",
"F  c #545454",
"G  c #5B5B5B",
"H  c #714448",
"J  c #714A51",
"K  c #605F60",
"L  c #636363",
"P  c #6C6C6C",
"I  c #747474",
"U  c #7B7B7B",
"Y  c #872D0F",
"T  c #8C310F",
"R  c #8F390E",
"E  c #91380F",
"W  c #832612",
"Q  c #842B14",
"!  c #8C2E13",
"~  c #882D18",
"^  c #902F12",
"/  c #833616",
"(  c #8D3012",
")  c #833916",
"_  c #8E3913",
"`  c #813719",
"'  c #8D341B",
"]  c #823919",
"[  c #8B3D1A",
"{  c #913711",
"}  c #923B12",
"|  c #903619",
" . c #933C1C",
".. c #923C21",
"X. c #8E4114",
"o. c #954115",
"O. c #9A4514",
"+. c #9A4913",
"@. c #9A4A19",
"#. c #974A14",
"$. c #954125",
"%. c #98482F",
"&. c #984728",
"*. c #9A4B33",
"=. c #9E533C",
"-. c #9D5136",
";. c #805048",
":. c #8B5046",
">. c #9E5640",
",. c #A05B44",
"<. c #A25F49",
"1. c #9A644E",
"2. c #9F685B",
"3. c #A4614B",
"4. c #A76849",
"5. c #AD714D",
"6. c #AB6E5A",
"7. c #A56957",
"8. c #AC715E",
"9. c #855E65",
"0. c #9E7C7E",
"q. c #917179",
"w. c #966B6B",
"e. c #AE7360",
"r. c #AD7C6C",
"t. c #A57669",
"y. c #B27B65",
"u. c #B27C6B",
"i. c #A27F7F",
"p. c #B4806F",
"a. c #A1807A",
"s. c #B68271",
"d. c #B2857D",
"f. c #BA8C7D",
"g. c #B3887C",
"h. c #C1957D",
"j. c #9C7C81",
"k. c #858585",
"l. c #8C8C8C",
"z. c #949494",
"x. c #9B9B9B",
"c. c #A58586",
"v. c #BC8E81",
"b. c #B28580",
"n. c #BE9182",
"m. c #B79789",
"M. c #B39A98",
"N. c #A3A3A3",
"B. c #A9A9A9",
"V. c #B8A2A4",
"C. c #B5B5B5",
"Z. c #BCBCBC",
"A. c #C09382",
"S. c #C49D89",
"D. c #C6A297",
"F. c #C4A49D",
"G. c #C7A89E",
"H. c #CBAC9E",
"J. c #C8ACA7",
"K. c #CEB0A2",
"L. c #D1B4AB",
"P. c #CCBCBE",
"I. c #D3BCB2",
"U. c #D0BEBA",
"Y. c #D7C1B9",
"T. c #D8C1B9",
"R. c #C4C4C4",
"E. c #CCCCCC",
"W. c #CFC4C7",
"Q. c #D9C7C1",
"!. c #DDCBC5",
"~. c #D9CBC9",
"^. c #DFD1CC",
"/. c #D3D3D3",
"(. c #DCDCDC",
"). c #E4D6D1",
"_. c #E3DAD6",
"`. c #E7DCD9",
"'. c #E9DFDC",
"]. c #E9E1DD",
"[. c #E4DFE0",
"{. c #E3E3E3",
"}. c #ECE6E4",
"|. c #EBEAEA",
" X c #F1EDED",
".X c #F4F4F4",
"XX c #F8F7F7",
"oX c #F9F9F9",
"OX c white",
"+X c #FEFEFE",
"@X c #FDFDFD",
"#X c #FDFDFD",
"$X c #F9F8F7",
/* pixels */
"+.+.+.+.+.+.+.+.+.+.+.+.+.#.j $ $ 1 o.o.+.+.+.+.+.#.+.+.+.+.o.X 5 _ +.+.+.#.#.X $ o 2 } +.+.+.+.+.+.+.+.+.+.0 : + > $ $ $ = % y ",
"_ _ { E { R E E { _ { E R R Q r , _ _ _ _ E { { { { { { { } ' l Q T { _ _ _ ( l % O k R { { { { { { { { { E _ 8 w 5 @ + $ $ j / ",
"^ ! ! ! ( ( ( ( ( ( ( T ( ( ( u 4 O.{ ! ! ( ( ( ( ( ( ( ( ( ( $.3.8.8.-.| ! ( ( * % # s ( ( ( ( ! ! ! ( ( ( _ R l w 7 Q e % n } ",
"! ! { ( ( ( ( ( ! ( ( ! ( ! ( g 1 } ( ^ ^ T ( ( ( ( ( ( ( ( s.).XX#XoX.XL.,.' _ % 2 8 W ( ( ( ( ( ! { ! ! ( ! ! 0 7 x _ s : x } ",
"^ ^ ( ( ( ( ( ( ( ! ( ! ( ( ( k 1 _ ( ! ! ( ( ( ( ( ( ( | D.+X+X+X+X+X+X+XoX}.f.B t Q ! ! ( ( ! ! ( ( ! ( T ( l 8 d } { ( 2 t x ",
"T ^ ( T ( ( ! ( ( ( ( ( ! ( ! i 4 } T ( ( ! ( ( ! { ! ( f.oX+XoXC.z.x.(.+X+X+X+X~.Z p ! ^ ( ( ( ( ( T ! ! ( ^ } +.} ( | ( 4 1 k ",
"! T ( ( ( ( ( ( ( ( ! ^ ( ! q @ 1 ( ( ( T ^ ! ! ! ^ T =.}.+X+Xk.D D D G B.R.oX+X+XW.r ! ( ( ! ( ! ( ( ( { ! ! ( ^ T ^ ! ( 2 M  .",
"! ^ ! ( ( Y T ( ! ^ Q 9 ~ 9 5 : 1 ( ( ! ( ! ( ! 7 7 ~ G.+X+Xx.D D L F D D D L /.+X+Xw.( Q 7 Y ! ( T ^ ( ! ! T T ! T ~ 9 Q 2 j ( ",
"( ( ( ( ( ( ( q 9 7 6 + 6 7 : $ $ 1 e : 5 7 7 6 % S J..XoX.XG D P |.l.D D D D P #X#XP.l x X Q 9 l ( ( ! ( ! ( ( ( Q e : % & & r ",
"2 2 e 2 3 2 2 : + % X $ O % % $ $ & % % % : % < q.|.#X+X#X(.D D Z.XXC.C./.l.D D (.#X[.B 1 X 4 : 2 2 2 3 2 2 3 4 e 2 % $ $ % & ; ",
"f f f f y y & & $ * r f a & 1 r 4 * 3 f r r f M.#X+X+X|.C.I D F (.(.(..XoXC.D D /.#X{.A f f f r r r r 3 & & $ 1 f f f f f f a f ",
" .@.o.o.o.o.k * ; z o.o.o.g c o.) j _ o.o.o.K.+X+XXXN.D D D D k.[.[.XXoXoXk.D D |.#X].&.o.o.o.O.+.} O.[ e % 2 m o.} O.} +.o.o.o.",
"{ ( ( ( ( R _ 3 3 X.T T R _ _ ( _ } R T ( -.oX+X.XU D D D L k.E.|.{.XXXXE.F D l.+X+XK.( ( ( ( o.} ( ( ( W : N _ ( ( ( T O.{ ( T ",
"( ( ( _ ( ! 7 O a o.Y T T ^ ( ( ( ( ( Q ( D.+X+Xz.D D P /.oXoXoX{.XX/.l.D D F [.+XoX<.( ( ' ! _ ( T T ( Q 1 ] _ / ( ( ( ( T ( ( ",
"( ( ! ( ^ ! 7 + a o.T ( ( ( ( ( ! ( ( ( ( Q.+XXXF D P {.oXXXoXXX{.z.D D D G Z.#X+X!.{ ! ( ( ! ! ( ! ( { Q 1 ) } ( ( ( ( ( ( ( ( ",
"( ( ! ( ^ ! 7 O a o.T ( ( ( ( ( ( ( ( ( ( Q.+XXXD D P |.XXoXXX XL D D K l.{.#X#X}.>.( ( ( ( ( ! ( ! ! ! Q 1 ) } ( ( T ( ( ( ( ( ",
"! ( { ! ! ! 7 X f o.T ( ! ( ! ! ! ! ( ( ( S.+X+Xl.D F l.|.XX.XE.K D D E.+X+X+X X7.( ! ! ( ( ( ( ( { ! ! Q 1 c _ ! ( ( ( ( ( T ! ",
"( ( ! ! ! W 5 % r { T ! ( ( T ^ ( ! ( ( ! >.+X+X|.L D D l.N.B.B.B.D D P {.+X#XG.{ ( ! Y s ( ( ! T ! ! ! Q : l ( ( ( ( ( ( ( ( ( ",
"! ! Q ! W 5 % $ 1 x ( ( ( ( ~ W Y ! ! ( ( ! U.+X+XN.D F /.[.{.oXXXB.D D I  X+X|...^ ! s 6 W T T ! W Q ^ k ; g Q ( ( ( ( ^ ! Q Q ",
"Q p p l 5 @ %   . 2 Q Q Q Q p 5 7 Q Q Q c p c.+X+Xl.D I .XXXoXoXXX.Xx.D D C.+X+Xg.Q Q t O @ x c i 5 7 l %   o r Q Q Q Q Q Q 9 9 ",
"1 1 1 1 + O , * & , 1 * * * * 1 : 1 * 1 1 1 c.#X+Xl.D U .XXXXXXXXXXX.XG D I oX+X{.A 1 : * : 1 1 , 1 1 1 , * * 1 1 1 * ; : * * : ",
") ` ) ) ) ) ] ] ` / b & - $ a ) ] M 1 z N ` m.#X#Xx.D F {.XXXXXXXXXXXXC.D D R.+XoXr.m ) ` m m m N N ) ) ] ) N m ) z o $ $ $ j ` ",
"_ o.o.R R +.} _ _ R R j & b ) E E ( x _ O.+.I.+XoXU D K /.{..XXX|.oXXX{.L D U oX+XT.E E E E { +.} } +.+.{ { { { { ( h & % j / { ",
"! { { ( T } T ( ( ! ( x O [ } ( T ( ( ( } } _.+X|.F D N.(.{.XX[.|.XXoXoXN.D F {.+X|.( ! ( ( ( } _ _ } } _ ! T ( ( ( x : y ) ( ( ",
"! ! ( ( ! ( ( ( ( ( ! Q O X.[ ( ( ( ( ! ! ' XX+X/.D D C.{.(./.XXXXXXXXoXR.D D R.+X+Xe.( ( ( ( ( ( ( ( ( ! ! ( ( ( ( Q 1 X.} ~ ( ",
"( ( ( ! ( ( ( ( ( | 3.r.0.n.n.n.f.A.v.v.v.G.oX+XR.D F Z.{.U E.oXXXoXoXXX(.G D U +X+X_.n.n.n.n.n.n.n.n.f.f.<.| ( ( ( x 1 N _ ! ( ",
"( ( ( ( ( ( ( ( ,.T..X@X+X+X+X+X+X+X+X+X+X+X+X+X/.D D z.U D R.oXoXXXoXoX(.P D D |.+X+X+X#X+X+X+X+X+X+X+XoX.XT.>.( ( x O $ k ^ ( ",
"! ( ( ! ( ( ( >.`.+X+X+X+X+X+X+X+X+X+X+X+X+X+X+XoXU D D F U |.oXXXoXXXXX{.l.D D {.+X+X+X+X+X+X+X+X+X+X+X+X+X+X`.-.( x * % k ^ ( ",
"( ( ( ( ( ! ' L.+X+X/.k.I I I I I I I I I I I I I L D D k.B.R.oXoXoXoX|.|.N.D D P I I I U I I I I I I U k./.#X+XF.p x 1 j / ! ^ ",
"! ( ! ! ( ( *. X+X|.F D D D D D D D D D D D D D D D D D D D U /.(.(.(.Z.E.P D D D D D D D D D D D D D D D F {.+X XZ 4 % 2 e 2 p ",
"k k g k k k :.XX+XC.D D P P P P P P P P P P P P P P P P P P C.C.R.E.C.P P P P P P P P P P P P P P P P L D D Z.+XXXJ =         1 ",
"3 3 3 3 3 3 ;.XX+XR.D D D D D D D D D D D D D D D D D D D D D D D D D D D D D D D D D D D D D D D D D D D D l.+X#Xi.3 3 3 3 3 3 ",
"@.@.@.@.@.@.5.XX+XC.D D k.z.k.k.k.F D U l.k.P D F l.l.F D D P x.I D D D D I k.k.U D L x.P D D I D D I x.G D P +X+XS.+.@.+.+.@.@.",
"#.} ( ! ( ! =..X+X(.D D F U D D P D k.F D D K I D P L D D D D k.D D D D I K D D F k.D I F D L N.F D P L D D z.+X+Xh.^ T ^ ! ^ ^ ",
"{ _ ^ T ( (  .Q.+X+Xk.D F U D F D G L D D D D U D L K D D D D k.D D D F I D D D D L G D k.D P U L D l.D D U .X+X.X3.T ( T ^ T ! ",
"( ( ( ( ( ! ( v.+X+Xx.D F z.I k.K U F D D D D I D P K D D D D l.D D D G I D D D D F P D k.D U D U D U D D {.+X#XD.{ ( ! ! ( ( ! ",
"( ! ( ( ( ( ( K.+X+Xz.D F I D F F L K D D D D I D L L D D D D k.D D D G I D D D D G L D I G k.D k.P L D L +X+X^.$.! ! ( ( ! T ( ",
"T ( ! ( ! ( %.}.+X|.G D F U D D D D U D D D F U D P L D D P D l.D D F L U F D D D k.D D G x.G D I l.F D x.+X+XI.| ! { ( ( ( ( ! ",
"{ T ( ( ! ! =.XX+XR.D D U z.F D D D L U I I U F F k.k.I I z.L x.I I U P G U I I U L D D D x.D D D z.D D R.+X+XXXu.( ! ( ( ! ( ( ",
"! ! ( ( T ^ =.oX+XR.D D G G D D D D D F G G D D D G G G G F F G G G G D D D G G D D D D D D D D D F D D G x.+X+X^...( ( ( ( ( ! ",
"! ! _ ( ' ( ,.XX+X/.D D D D D D D D D D D D D D D D D D D D D D D D D D D D D D D D D D D D D D D D D D D D /.+XXX<.( ( ( _ ( l ",
"O % X o & X H oX+XB.D F C.Z.Z.R.Z.Z.C.C.C.C.Z.C.C.C.C.C.R.C.Z.Z.Z.C.C.C.Z.C.Z.C.C.C.C.C.C.C.Z.Z.Z.R.Z.C.F D B.+XoXH o X % & % o ",
"m ` m z & b 1.oX+XB.D G .X+X+X+X#X#X/.E.R.E.XX(.|.E.{.(.+X(.{.R.|./.|.R.oX/.{.(./.Z./.R.{.(.+X+X+X+X+X.XG D B.+XoX1.m b , $ $ 4 ",
"} o.) z g _ 4.oX+XN.D G .X+X+X+X+X+X#X[.+X(.(.R.#X/./.{.+X#X[.E././.#XC.(./.|.|.oX/.oX(.(.(.+X+X+X+X+X.XF D B.+XoX4.o._ g * 4 z ",
"! T z z o.( 3.XX+XB.D F .X+X+X+X+X+X#X[.+X(.+X{.oX{.oX.X+X+XE.[.E./.oX/.oX{.|.|.#X/.+X[.#X X+X+X+X+X+X.XG D B.+X$X3.( ( ! e b o.",
"( ^ E } ( ( 3.XX+XB.D G .X+X+X+X+X+X.X(.+X(.#X{.{.(.{.(.+X+X/.XX(.oX.X(.oX(.{.{.XX/.#X(.(.(.+X+X+X+X+X.XG D B.+XoX3.! ( ! 2 b o.",
"( ! ( ( ( ( 3.XX+XC.D D F F F F F F F F F F F F F F F F F G F F F F G F F F F F F F F F F F F F F F F F D D C.+XoX3.! ( ! 2 b o.",
"( ( ( ( ( ( 8.oX+XR.D D D D D D D D D D D D D D D D D D D D D D D D D D D D D D D D D D D D D D D D D D D D C.+X#X6.( ( ( 2 b o.",
"( ( ! ( ( ! u.+X+Xz.D F z.x.z.z.l.F D D D D F U D D D F z.x.z.z.P D D z.x.z.z.U D D U x.l.L z.z.x.z.z.z.F D l.+X+Xu.( ( ! 2 b o.",
"! T ( ( ( ( e.#X+XC.D D D l.D D F z.D D D D l.N.D D D D D U D D P I D D U D D G k.D D k.D U D D L P D L L D k.+X+Xu.( ! ( 2 z { ",
"T ! ( ! ! ! =..X+X.XP D D l.D D D I G D D D l.P P D D D D U D D D z.D D U D D D z.D D k.D G D D L P D F F D l.+X+Xu.! T s : e W ",
"{ ( ( ( ! { ) F.#X+Xx.D F l.D D D l.F D D L L D z.D D D D U D F I P D F U D D G k.D D k.D D D D L L D D D D Z.+X#X2.! l 5 % : i ",
"W Q Q Q Q Q Q 7.oX+Xx.D D C.k.x.l.I D D D l.D D U F D D D B.l.l.x.P D D x.l.l.x.U D D k.D D D D L P D D G x.oX+X{.Z v e & . $ 2 ",
"1 ; ; 1 % & < V.+X+Xx.D D z.D U L D D D F B.z.l.x.l.D D D U D D D U D F U D D D L P D k.D D D D L L D l.+X+X+X.X9.% : % % * O , ",
") h 3 b & & C |.+X.XP D D l.D D l.F D D U G D D D k.D D D U D D D P F F U D D D F I D k.D D D D L P D G {.+X+XM.> @ 5 @ # z ) ) ",
"} ! Q ) ) ) p.oX+XB.D D G z.F D L z.F F N.F D D D k.I F F k.F F G l.D F k.F F G k.F F z.F D D D P I D D k.+X+Xd.W W W Y Q ( { { ",
"( ( ( ( } } y.+X+Xz.D F U k.G D L l.I U l.K D D F U l.L U k.U U U G D U k.U U U L D P k.I D D F U k.G D I +X+Xf.! ( ^ T ! ( ! ( ",
"( ( ( ! | ! 4.XX+X/.D D D D D D D D D D D D D D D D D D D D D D D D D D D D D D D D D D D D D D D D D D C.+X+X8.( ( ( ( ( ( ( ( ",
"( ! ( ( ! ! ..!.+X+XC.U P P I k.I P P P P P x.C.I P P P P P P P I l.k.P P P P P k.l.P P P k.x.I P P I B.oX+X}. .( ( ( ( ! T { ! ",
"( ( ! T ^ ^ ( e..X+X+XoX.X.XXX+X.X.XXX.X.X.X+X+XXX.X.X.X.X.X.X.XXX#XoX.X.X.X.X.X+X+XXX.XXXoX+XXX.XXXoX+X+X$X8.! ! ( ! ( ! ^ ^ ! ",
"( ! ! ! ! ( ( ( 7.).#X+X+X+X+X+X+X+X+X+X+X+X+X#X+X+X+X+X+X+X+X+X+X+X+X+X+X+X+X+X+X+X+X+X+X+X+X+X+X+X+X+X'.y.! ( ( ! ( ( ( ! ( ( ",
"! { ! T ( ( ( ! ^ ..6.f.d.j.i.d.v.n.A.A.n.n.s.r.v.n.A.b.b.v.d.n.j.b.f.n.n.n.A.n.f.s.n.A.A.v.t.j.j.c.f.u.%.( ! ( ( ( ( ( ( ( ^ ( ",
"! ^ ( ( ( ( ( ! ( Q 9 i : % % 2 0 q ~ ( ( ( ( ( ! ! q @ 6 8 + 4 $ 1 l ( ( ! ( ( ! ~ ! W 0 p : & $ * t ( ( ( ( ( ! ( ( ! ( ( ! ! ",
"u t t t y t t u t e : *     $ % % @ y h u u u u u u 1 & % % $   $ $ 4 t y t t y t t t e + : $ $ - $ ; y t y t t t t t t t t t t "
};
