/* XPM */
static char *_2f5154b501a4e3ec3e8b34a3e57d308sDZedzj8Hmq9l63h[] = {
/* columns rows colors chars-per-pixel */
"64 64 164 2 ",
"   c #3F0718",
".  c #3F081A",
"X  c #46070F",
"o  c #49070E",
"O  c #470B0F",
"+  c #4C0B0E",
"@  c #520C0E",
"#  c #5F0D0E",
"$  c #5C180E",
"%  c #430715",
"&  c #490713",
"*  c #450914",
"=  c #4B0B13",
"-  c #420618",
";  c #460B18",
":  c #4A0A18",
">  c #510E13",
",  c #5E0C10",
"<  c #4E1012",
"1  c #521113",
"2  c #5A1411",
"3  c #640E06",
"4  c #690E06",
"5  c #640E0C",
"6  c #690E0A",
"7  c #6E1104",
"8  c #65110D",
"9  c #6A120B",
"0  c #70140A",
"q  c #72190B",
"w  c #610E11",
"e  c #651110",
"r  c #752717",
"t  c #7C2715",
"y  c #7E2A14",
"u  c #7F2B1B",
"i  c #7E3715",
"p  c #852E0F",
"a  c #8D2F0F",
"s  c #8D310F",
"d  c #832713",
"f  c #852814",
"g  c #852B14",
"h  c #802C16",
"j  c #832D16",
"k  c #842C14",
"l  c #852C15",
"z  c #872C14",
"x  c #872D14",
"c  c #862D15",
"v  c #842E15",
"b  c #862E14",
"n  c #852D16",
"m  c #842D17",
"M  c #872C16",
"N  c #862F16",
"B  c #852C13",
"V  c #892C11",
"C  c #8B2D11",
"Z  c #892E10",
"A  c #8A2E10",
"S  c #8A2E11",
"D  c #892C12",
"F  c #8A2C12",
"G  c #8A2D12",
"H  c #8A2D13",
"J  c #8B2D13",
"K  c #882E13",
"L  c #8A2E12",
"P  c #8B2E12",
"I  c #8A2E13",
"U  c #8B2E13",
"Y  c #8D2F11",
"T  c #8E2F11",
"R  c #8F2F11",
"E  c #8D2F12",
"W  c #8D2F13",
"Q  c #8E2F12",
"!  c #8E2F13",
"~  c #8F2F13",
"^  c #8A2D14",
"/  c #892E14",
"(  c #892E15",
")  c #8B2F14",
"_  c #882D16",
"`  c #892C17",
"'  c #8D2F14",
"]  c #8E2F14",
"[  c #8E2F15",
"{  c #8C2E12",
"}  c #862F18",
"|  c #852D18",
" . c #873212",
".. c #8B3310",
"X. c #8B3012",
"o. c #8A3112",
"O. c #893312",
"+. c #8C3010",
"@. c #8D3010",
"#. c #8C3011",
"$. c #8D3011",
"%. c #8D3111",
"&. c #8E3010",
"*. c #8E3011",
"=. c #8D3210",
"-. c #8D3211",
";. c #8E3210",
":. c #8C3012",
">. c #8D3012",
",. c #8C3013",
"<. c #8D3013",
"1. c #8C3113",
"2. c #8E3112",
"3. c #8D3212",
"4. c #8C3213",
"5. c #883115",
"6. c #8C3014",
"7. c #8D3011",
"8. c #863C16",
"9. c #8B3E16",
"0. c #83311A",
"q. c #843A1A",
"w. c #8C3E19",
"e. c #903312",
"r. c #923F13",
"t. c #913E16",
"y. c #963E1C",
"u. c #913E19",
"i. c #8F4115",
"p. c #8D4017",
"a. c #8E4115",
"s. c #8D411B",
"d. c #8D4219",
"f. c #974613",
"g. c #914115",
"h. c #904017",
"j. c #934116",
"k. c #954017",
"l. c #934615",
"z. c #934516",
"x. c #964415",
"c. c #974716",
"v. c #924315",
"b. c #9A4317",
"n. c #994515",
"m. c #994715",
"M. c #994515",
"N. c #964916",
"B. c #994A11",
"V. c #994913",
"C. c #994914",
"Z. c #994815",
"A. c #9A4914",
"S. c #9A4815",
"D. c #9A4816",
"F. c #984814",
"G. c #904219",
"H. c #924218",
"J. c #964018",
"K. c #934519",
"L. c #98471A",
"P. c #9A4519",
"I. c #954819",
"U. c #964420",
/* pixels */
"A.A.A.A.V.V.V.A.A.A.A.A.A.l.= % = l.B.A.A.A.V.A.A.A.A.K.= 3 l.m.V.A.l.* - o  .f.A.A.A.A.A.A.A.l.9 & 5 % % % % < l.V.A.A.A.A.A.A.",
"s s s s s s s s s s s s s X.v = G.3.s s s s s s s s $.$.6.E s s s E $.v & 8 m.s $.s s s s a X.s r.9 5 5 5 % = s.s s s s s s s s ",
"X.$.S X.$.X.X.$.S $.X.$.$.$.a = g.s E $.X.X.s X.$.$.$.$.E s E s E $.$.S % & 9 D $.X.$.$.X.$.s E s y.4 9 d.8 > r.X.X.$.$.s X.X.X.",
"$.$.$.$.E E s $.$.$.$.$.$.$.) = k $.$.$.X.$.$.$.$.$.$.$.$.$.E $.$.$.$.S = } ) E $.$.$.$.X.$.E $.S 7 9 y.$.v > h $.$.$.$.E $.$.X.",
"$.$.$.$.$.$.$.$.s E $.E $.$.b = g.s E $.s E s E $.$.$.$.$.$.E $.$.$.E S % 5 ) ' E $.$.$.$.$.$.$.$.A.m.e.a D = 1 g.s E s $.E s E ",
"X.$.X.E X.$.X.a E E s S $.v 4 = b E $.E E E S E E $.$.E E s E S s $.$.) % o S E ' $.$.$.$.$.$.$.$.<.$.s D j < i.$.s ' $.s E $.$.",
"$.E $.E $.E E E S S D 9 d 4 5 : g S v ) E g 5 5 g S S E E $.E 3 z R R h % * ) D 9 S S E ~ ' R ~ E E ' g 4 t = y $.s E H.b E $.b ",
"b b b b b b b g 9 6 w & 5 5 &   = w > 8 5 5 & = 8 9 g b b v ) % 5 ) g & ; % 8 t > y 9 j S v v v v b g 8 & : * 1 j v v > + g v @ ",
"1 @ 1 > 1 1 1 = ; % > = > = * = - = < = = = = = > = = = = 1 1 = = 1 1 = : = = 1 = > + 1 1 1 = = = 1 1 = = = = = > 1 1 = - = = = ",
"g.a.g.g.g.a.8.1 - 1 8.d.9.1 8.9.1 p.i.a.g.g.a.a.g.d.= % = 9.a.a.g.g.a.a.i.l.a.a.a.g.a.g.i.9.= * 1 9.g.g.d.i.i.g.t.g.g.d.= - * d.",
";.;.e.e.;.$.$.q.1 8.3.$.3.t.3.3.t.3.$.$.;.e.e.e.$.$.b X p.3.e.e.s P.s $.3.m.;.e.e.;.m.3.$.3.h = 8.$.e.$...l.e.$.$.e.e.m.v * h $.",
"E s $.$.$.$.) 9 = g.e.$.$.$.s s e.$.$.$.s s $.$.$.$.$.* N.X.$.$.$.$.s $.$.e.$.$.$.$.s s $.X.) = l.3.$.$.$.e.$.$.$.$.$.<.$.* $.$.",
"s $.$.$.$.$.S 9 = i.$.$.$.$.$.$.$.$.$.$.$.$.$.$.$.$.X.* l.$.$.$.$.$.$.s E E $.$.$.$.$.$.$.$.S < g.$.$.$.$.$.$.$.$.$.$.<.X.X S $.",
"E $.$.$.$.$.S 5 = i.3.$.$.$.$.$.<.$.$.$.$.$.$.$.$.s X.* l.X.$.$.$.$.E $.$.$.$.$.$.$.$.$.$.X.S = g.s $.$.$.$.$.<.$.$.$.S 6.* 6.$.",
"$.a $.s s E g 8 > g.<.$.E E $.<.$.$.E E E E ' $.$.$.$.* f.$.$.a $.$.s E $.$.E E $.$.$.E $.$.b = b R $.$.$.$.$.$.$.' C E ' % S s ",
"$.E E E E z 5 = * y <.$.$.E E S $.$.$.E S j 9 v S S v * k E $.E $.$.E E $.E S 9 g E E ' S E j : j E s $.$.$.E S E $.) v } % m X.",
"S b v 4 j 9 # % - = j S b g 8 9 g b v g 8 = & 5 5 8 :   o k v b g S 6 b S v g = 5 b k 8 9 j = - = k b g b b g 9 j g = 5 =   O h ",
"> = 1 = = = = * ; = = : % : = = < : < = = = = = = : : = = = < = : ; = < > < > = = = = = : = = = = = = = * = = = > = * = : = = < ",
"g.l.g.l.j.l.l.l.l.g.8.> % < 9.l.9.1 i.l.l.l.i.l.l.l.l.g.l.v.d.+   + d.l.g.l.l.g.l.j.v.f.v.v.l.v.l.G.9.> % - 1 9.g.l.l.l.l.l.l.g.",
"3.3.s m.s ;.m.s s $.X.j = i.3.s X.) $.f.f.3.l.3.s $.s s s s s b % l.3.$.$.$.$.s 3.s f.s f.V.s s $.$.a k * < w.s $.3.m.s s s $.$.",
"E E $.s $.$.$.$.E $.$.S = l.$.$.E $.$.$.$.$.s $.a $.$.$.$.$.$.) % A.p $.$.$.$.$.$.$.s $.s s $.E $.E E g = w.3.e.$.' s $.X.$.$.$.",
"a a e.s E $.$.$.s a $.S = g.3.$.$.$.$.$.$.$.$.$.s R R R a E s $.% d.9 $.a E R a s $.e.s $.$.a E E E a g = 9.$.' R $.s R $.a a E ",
"$.$.$.$.$.$.$.$.$.$.a j < g.$.$.$.$.$.$.$.$.$.$.$.$.s a $.$.$.' % @ ) S E $.$.$.$.$.E $.$.$.E S S E $.p * > v R $.$.$.$.$.$.$.$.",
"$.$.$.$.$.$.$.$.E a b > = g.$.E $.$.$.$.$.$.$.$.a E D E E e.$.S % # S 9 z s $.$.$.$.$.$.$.$.E ) q g S g ; > b E $.$.$.$.$.$.$.$.",
"$.<.$.<.E E E <.X.) k , & y S X.$.<.<.<.<.<.<.<.$.) 9 k g a E j % % 5 v 5 z g E $.S g g D E E s t.q 9 t = r k b E $.<.<.<.<.<.<.",
"<.<.<.<.' ' 6.6.' ) 9 % % = v 6.<.[ 6.6.[ ) 6.6.' 6.} = O m ) : - % = v o 5 = g ` 8 > 5 6 v ' ) <.9.= : % % = < } <.<.<.<.6.6.6.",
"& = : : = = = = o = % % % % & & & & ; : & & % : & % = % % o * % % % - * % * % O O & X % & = % = = % % % % % % % & : * % * = : = ",
"l.l.l.l.K.l.K.N.l.l.l.K.g.9 5 5 w o % % 5 5 5 5 5 5 3 3 5 5 5 5 l.H.X % O K.K.m.m.l.l.l.l.l.l.m.P.l.l.l.l.l.K.N.l.L.= % & g.K.l.",
"s m.m.s $.$.$.3.$.m.e.$.$.E ) ) ) k @ d.X.X.6.) ) z ) ) ) ) ) S X.s b * G.$.$.$.;.A.A.;.s D.;.$.$.s P.s $.s $.$.X.s m = d.s $.s ",
"$.$.$.$.$.$.$.$.$.$.a s $.$.X.$.S g @ v.$.$.$.X.E E <.$.E S X.$.$.$.S & A.$.$.$.$.$.$.$.$.;.s $.$.$.$.$.$.$.$.$.$.X.6.& m.E $.$.",
"$.$.$.$.$.$.$.$.$.$.$.$.$.$.$.$.6.D > v.$.<.$.$.E E $.$.E $.$.$.$.$.X.* I.$.$.$.$.$.$.$.$.$.$.$.$.$.$.$.$.$.$.$.$.$.6.* l.E $.$.",
"$.$.$.$.$.$.$.$.$.$.$.$.$.$.$.$.b O : g.3.$.$.$.$.' $.$.$.$.$.$.$.s v = I.<.$.$.$.$.$.$.$.$.$.$.$.$.$.$.$.$.$.$.$.$.6.& l.e.$.$.",
"E E E E E E E E E E E $.E S E s S 5 = j.X.E $.' D 4 S E E $.s $.E s S   + X.$.E E E E E E R E E $.$.X.E E E $.$.E $.) % % b E E ",
"$.$.$.S $.$.$.$.E $.$.$.$.) 7 z X.m @ h X.E S 5 6 z E E $.E ) $.E ` 5 % m $.$.$.$.$.$.$.$.$.E S E ) s $.$.X.E E E ' 5 & 5 D s a ",
"6.6.S ) 6.6.S 6.S 6.S S ) S v 9 5 X % = j 4 5 & w 4 g S ) } o b 5 5 X % X 5.S 6.S 6.X.S ) S S g 5 + g 6.6.) S j 5 3 % % % 5 ) ) ",
"= * O = * % * O * % % % * : = * & % % % = * * * % % = O % = * = O & % * * % - % O * * = = * = = * * = * * % % % = % % = % * % & ",
"N.N.N.N.i.< N.N.d.< * = i.N.N.N.N.K.N.N.N.N.p.= % = s.N.N.N.N.A.N.l.N.N.G.= % = d.N.N.N.N.N.N.N.f.N.N.N.d.> % < H.N.N.N.f.N.= G.",
"a X.X.S + L.s X.$.h 1 d.3.$.$.$.m.s $.$.$.X.X.y > H.X.$.X.$.a P.$.s m.$.s h = d.3.$.l.V.f.3.m.$.E s $.E X.h 1 d.$.s m.m.s $.I.s ",
"$.$.$.$.K.s s $.E g 1 g.$.$.$.$.s $.E $.$.$.E b 1 v.s $.$.$.$.$.$.$.a $.s b : 8.$.$.s s $.$.$.$.E $.$.$.$.g 1 g.3.$.$.s $.$.s $.",
"$.$.E s <.E E $.E ) 1 g.$.$.$.$.' E $.$.E s E b 1 l.$.$.$.$.E $.$.E E s X.b X 2 S E E E R s ' $.E $.$.$.$.g 1 g.$.$.E E $.$.E E ",
"$.$.$.E $.$.$.$.E b 1 a.s E $.$.$.$.$.$.$.X.E g 1 g.$.$.$.$.$.$.$.$.$.$.$.b = i $.$.$.$.$.$.$.$.$.$.$.$.$.g 1 g.3.$.$.$.$.$.$.$.",
"$.$.$.$.$.$.$.$.E b > b $.E E b a E E $.$.$.E g > } $.$.$.$.$.$.$.$.$.$.E S % = y b s $.$.$.$.$.$.$.$.$.$.g 1 t.s $.$.$.$.$.$.$.",
"$.$.$.$.$.$.$.$.$.b 1 k E E S 2 j S E $.$.S E g = ) k X.$.$.$.$.' ) ' $.$.b % * > 2 v $.$.$.$.E $.$.$.$.$.p > v $.$.$.$.$.E $.$.",
"$.X.$.X.X.$.X.$.S k > y E s $.9.@ 9 g S a s S k 1 m + k 6.S $.X.) 4 ' $.a j * # 8.i.$.s X.$.$.S $.S S E g 5 & e X.S $.$.S E S s ",
"S p b b b b S b k = % = k b p  .q.= = 8 v ) y = - = % # 5 4 }  .v & 8 v v X - * 8 p b b b a z S j 5 > f 8 % % = y 9 h ) 6 5 5 ` ",
"= 1 = = = = * = = = = = * = : : < = : = > > = : * = = = % % * < = * + > = = = - & = : : * = = = = & % : & * : = = = > = = = * : ",
"l.g.d.+ d.= = < 8.a.g.d.= % * < 9.g.l.g.v.v.l.a.l.g.g.s.= ; = i.v.v.v.v.l.v.i.9 5 # % * = # 5 5 5 5 5 4 5 9 a.v.g.a.l.g.g.g.: - ",
"$.$.$.b $.g.g.9.$ b e.;.h + i.j.;.$.$.$.s s f.f.;.$.e.$.g % a.$.s ;.s A.s 3.$.S S j = * w.S S S ) S S ) S S s s $.$.$.$.$.s b % ",
"$.$.$.$.$.$.$.3.H.s $.X.S = l.3.$.$.$.$.<.' $.e.$.$.$.$.S * V.s ' $.$.s E s ;.R E a k = i.X.$.$.E E E $.$.$.$.$.$.$.$.$.$.$.6.% ",
"$.$.$.$.$.$.$.$.s X.E s v > l.$.$.$.$.$.$.$.$.$.$.$.$.$.X.% m.s $.$.$.$.$.E E $.a s g > 9.s $.$.E E $.$.$.$.$.$.$.$.$.$.$.$.g % ",
"$.$.$.$.$.$.$.$.$.$.$.s S = g.$.$.$.$.$.$.$.$.$.$.$.$.$.X.* l.$.$.$.$.$.$.$.$.$.$.$.g = > p $.$.$.$.$.$.$.$.$.$.$.X.$.$.E E = ; ",
"$.$.$.$.$.$.$.$.$.E E E g = k $.a E $.$.$.$.$.$.X.S X.S X.% s X.R $.$.$.$.$.E a E E t = 5 S $.$.$.$.$.$.$.$.$.$.$.X.$.S E E w % ",
"$.$.a E s E X.s E S S z 8 & 8 g ) S E a $.S s E g 5 g 4 j % m $.R E $.$.E s E g g 8 : % y E a $.$.$.s a E $.$.$.' S z 4 a D j & ",
"b v p g b b b k b j 9 5 & % % 5 4 g b g b b g k 8 & 5 : = - + h b g g b g v k 9 5 & % % = j b g g b g k k b k b k e 5 O 5 j &   ",
"1 ; 1 : : = 1 1 1 1 1 = = = % & = = = = = = = * % % & & % = = 1 1 1 1 1 1 < 1 < < < = = = ; ; = 1 1 1 1 1 1 1 1 > = < = = 1 = = ",
"i.+ d.=   @ i.i.w.i.d.i.H.t.9 e w 6 6 5 5 # = - > 5 8 w 8 t.i.l.i.g.g.g.g.H.i.H.i.i.i.i.w.1 - 1 9.a.g.l.g.g.i.g.g.g.g.g.g.l.i.i.",
"s v $.j = i.3.$.e.s $.$.e.s $.S S S S S d 0 8 = q.S S S S s s P.s s s 3.s e.s 3.s j.e.$.$.h : i.3.$.e.m.m.s $.$.e.$.s e.3.s A.s ",
"$.$.E E ; A.$.E $.$.$.$.$.$.$.$.$.$.E S 9 t.9.= + b E $.$.$.X.s $.$.$.$.$.$.$.$.$.s $.$.$.S = g.3.$.$.$.$.$.$.$.$.$.$.$.$.$...s ",
"$.$.$.E = N.$.$.$.$.$.$.$.$.$.$.$.$.$.6.f.e.b 1 a.s X.$.$.$.$.$.$.$.$.$.$.$.$.$.a S q ) 6.S = l.3.$.$.E e.s $.$.$.$.$.$.$.$.$.$.",
"$.E E ) * N.$.$.s $.$.$.$.$.$.$.$.6.$.$.$.a g 1 d.;.$.$.$.$.$.$.$.$.$.$.$.$.$.$.E E t.9 @ y < g.e.$.$.$.$.$.' $.$.$.$.$.$.$.$.$.",
"E $.$.0.= l.$.E $.$.$.$.$.$.E ' ) S <.$.$.$.g * = v E E $.$.$.$.$.$.$.$.$.$.$.$.$.$.3.j.e & * H.$.$.$.$.' ' ' ' $.$.$.$.$.$.$.$.",
"E ` 5 * * X.E $.X.$.$.$.$.$.S 9 @ ` <.$.$.S 5 % = S $.E $.$.$.$.$.$.$.X.$.$.$.$.E ' ) 9 5 # & 8 X.$.$.) 4 9 S ' $.$.$.$.$.$.$.$.",
"5 % % %   O 6.S 9 S X.6.<.<.X.H.8 % = k 9 # =   = v $.[ 9 S $.3.<.<.6.6.$.$.$.' 6 w % % ; - % % | 6 5 5 o , 5 < 5.6.X.$.$.6.4 ) ",
"%   % % - . % - - * - = - - * - % %   - - % - - - * - - . * -   * - * * - - - - - % %   % % %   % % - %   % %   % - * - - - - - "
};
