/* XPM */
static char *_c84cc58565e46c9f113c09a8b421aefYbZFfcfNFnuu9jJg[] = {
/* columns rows colors chars-per-pixel */
"64 64 149 2 ",
"   c #1F0E02",
".  c #210F02",
"X  c #251102",
"o  c #2C1503",
"O  c #2F1904",
"+  c #301703",
"@  c #341A04",
"#  c #3B1E04",
"$  c #361C08",
"%  c #3A1E08",
"&  c #3E2004",
"*  c #3E2109",
"=  c #461F05",
"-  c #452304",
";  c #492505",
":  c #4D2904",
">  c #44240A",
",  c #4B260A",
"<  c #47280D",
"1  c #4D290C",
"2  c #502607",
"3  c #512B05",
"4  c #502708",
"5  c #532B0A",
"6  c #5A2E0A",
"7  c #55300C",
"8  c #5D310C",
"9  c #4E2C10",
"0  c #542E11",
"q  c #582F11",
"w  c #563011",
"e  c #5C3313",
"r  c #63350D",
"t  c #66380E",
"y  c #6B3B0E",
"u  c #723E0F",
"i  c #623614",
"p  c #643816",
"a  c #653916",
"s  c #663916",
"d  c #673916",
"f  c #663815",
"g  c #653916",
"h  c #6F3E10",
"j  c #683A16",
"k  c #693A16",
"l  c #683B17",
"z  c #6A3B17",
"x  c #6A3C17",
"c  c #6B3C17",
"v  c #6F3D17",
"b  c #6B3C16",
"n  c #623918",
"m  c #663C18",
"M  c #683D18",
"N  c #683D19",
"B  c #6B3C18",
"V  c #6A3D18",
"C  c #6B3D18",
"Z  c #6A3D19",
"A  c #6D3D18",
"S  c #6F3D18",
"D  c #6D3E18",
"F  c #6C3E19",
"G  c #6E3F19",
"H  c #6D3E19",
"J  c #703F11",
"K  c #713F11",
"L  c #703E18",
"P  c #713E18",
"I  c #713F18",
"U  c #723F18",
"Y  c #713F18",
"T  c #6E4011",
"R  c #6F4019",
"E  c #6F431C",
"W  c #6F401A",
"Q  c #724011",
"!  c #734111",
"~  c #724211",
"^  c #734312",
"/  c #754312",
"(  c #764312",
")  c #774513",
"_  c #744211",
"`  c #784412",
"'  c #794612",
"]  c #784613",
"[  c #7B4612",
"{  c #7A4613",
"}  c #7A4713",
"|  c #7B4713",
" . c #7A4612",
".. c #7C4813",
"X. c #7E4813",
"o. c #7F4813",
"O. c #7F4913",
"+. c #7D4814",
"@. c #7D4914",
"#. c #7E4814",
"$. c #7E4914",
"%. c #7F4A14",
"&. c #7D4914",
"*. c #704019",
"=. c #71401A",
"-. c #71411A",
";. c #72411A",
":. c #73411A",
">. c #71421A",
",. c #73421A",
"<. c #73431B",
"1. c #74431B",
"2. c #77431A",
"3. c #75441B",
"4. c #72431C",
"5. c #71441D",
"6. c #74451C",
"7. c #75451D",
"8. c #76441C",
"9. c #77451C",
"0. c #77461D",
"q. c #74431B",
"w. c #78431A",
"e. c #79451B",
"r. c #78461C",
"t. c #78471E",
"y. c #78451C",
"u. c #77481E",
"i. c #79481F",
"p. c #79481F",
"a. c #7A4920",
"s. c #804711",
"d. c #834913",
"f. c #834A13",
"g. c #804914",
"h. c #804A14",
"j. c #804B14",
"k. c #814C14",
"l. c #814C15",
"z. c #834C14",
"x. c #834C15",
"c. c #834D15",
"v. c #844D15",
"b. c #864D14",
"n. c #834C14",
"m. c #884C14",
"M. c #894E15",
"N. c #8B5015",
"B. c #8D5116",
/* pixels */
"+ 1 7 8 8 5 1 : ; > @ @ # @ # # & & - & & o O < w 7 w w 0 1 0 % # 1 8 t 8 7 7 7 ; = # @ # # # & - - - - * o O 1 w e e e e w w * ",
"^ v.c.v.c.+.^ T r ; = - ; : : 3 3 : 3 3 : & e E E W E 6.e.t.u.n } c.v.v.c.%.^ T 8 2 = - ; 3 3 3 : 3 : : : & n 5.W W *.e.3.p.u.e ",
"^ k.c.b.B.c.g.o.y ; = ; : 3 : : : : : : : - E u.d d R 3.1.<.<.i ] k.k.v.m.c.k.k.t ; - ; : 3 : ; : : : : : > E 6.n f v 1.5.<.<.e ",
"y } &.%.+.+.g.b.y ; = ; : : ; - - - - - & > W E <.z v <.<.<.N e T } &.&.k.&.&.k.y ; = ; : : ; - - - - - - > N 6.5.x v <.<.W S i ",
"8 ^ &.m.f.....` r = = ; : : ; - ; ; - - > > e N <.v N v L <.W i r u ..m.k.[ ` ` 8 ; = ; : : - - - - - : - & e W <.W S N L L L e ",
": r y y y t r 8 2 ; - - - - ; - - - - - # $ q e n i d d d z n 6 6 r t y t t r 8 5 ; = = - - - - - - & - & @ w e i i n d f z n 6 ",
", 8 8 8 8 6 6 6 5 2 - o # # & & $ $ @ @ X X > 0 5 0 0 w 6 w 0 * ; 6 r r 6 6 6 5 3 2 - o & & & & & O @ O X o > 9 1 0 0 w w 5 1 = ",
": 6 6 6 ; - - - - = # & # - & + X $ * 1 1 1 1 , < % O > 1 7 6 1 5 6 6 5 ; - = ; & & & & & & & @ o * * 9 9 9 9 1 1 % & f ~ ^ ^ b ",
"_ u t 5 ; - - ; : 3 3 3 3 3 3 - 9 E E N L 7.t.t.p.M i v.f.f.k.k./ y y 5 ; - - : : 3 3 3 3 3 3 - 9 4.W N S e.e.t.a.m h k.c.v.m.v.",
"f.s.[ 5 = ; : 3 : ; - ; : : : & n a.S m B w.1.1.*.i b %.v.M.M.M.g.g...5 = ; : 3 : ; - ; - : : & N u.W d v 1.3.<.L i b &.&.k.f.k.",
"k.k...5 = ; : : : - ; ; - : - & e a.q.F c <.<.<.R f f ` &.&.k.&.g.b...2 = ; : : : - ; - - : ; & e u.<.S x <.<.<.S n f / s.k.c.} ",
"..&.u 2 = ; : : ; - - - - : - & q F Y Y S S S L *.i r y &.M.f.[ o.` u 2 = : : : : ; - - - ; - & w N S <.S v L L S d 8 y ` f.s...",
"t r 6 2 = > - ; - - - - - - & # 1 e m p d m N N x e 5 8 y y u y t r 6 4 ; = - ; - - - - - - & @ 1 n p p d M d N d e 5 8 t y t r ",
"6 5 5 2 - O + # & # # @ O O o X % , , 9 9 5 0 1 , > # 2 8 8 8 6 5 5 5 ; = o @ $ & # # @ o o o X $ > , , 1 1 1 9 > & # - 4 5 5 ; ",
"> , 2 5 > * & * * O X @ * > & & > - > # @ % & # # # # - : 7 : & > 5 5 0 1 > > > & O o $ > < - > > > > = + & & # # @ & & & - # + ",
"w W W <.<.7.7.p.u.w h c.c.c.c.} J y r 2 - > - - : : 3 3 3 3 3 O n <.W S <.7.p.a.u.w T c.k.f.v.&.~ y r 1 - - - : , 2 3 3 3 3 2 @ ",
"7.6.x d v 1.3.3.<.e ~ g.c.v.B.v.g.b.u = = : 2 3 : - : : : : : & p.5.M f L 1.3.6.L e / g.k.N.B.v.g.c.y ; = ; : 3 : : : - : : : & ",
"W 7.1.x v 1.<.<.L e h ] +.+.o.` g.v.K , = ; : 3 : - - - - - & & W 3.1.x v <.<.W S e h ` &.+.g.` g.v.h 4 ; ; : : ; - - - - - - & ",
"m W 3.W S S L S S e t _ b.m.b...+.` t ; - : : : : - - - - : & & d W <.W S S L S S e t ~ g.m.g.&...[ t = = : : : - - - : - - - & ",
"e n d x d z c L c 0 6 t h K y K y r 6 ; = - ; - - - - - - - & & e d d d M d N S d 0 6 t y ~ y y t r 6 ; - - - ; - ; - - - - & O ",
"> 0 0 0 w e e 0 5 > , 6 r r 8 8 6 6 5 ; # O # $ * * # # + O o X < 1 1 0 5 0 0 5 1 $ ; 6 8 t 8 6 6 6 4 4 # + # # & # # @ O O o X ",
"1 5 , - $ & & # # # & ; 3 : : & > 5 e w 5 5 5 1 1 @ O - 1 7 5 5 1 5 , > # # * # $ & - , 3 3 : # > 5 e e 0 q 0 0 1 @ * 7 8 8 8 7 ",
"J y 8 2 - - - ; : : : 3 3 3 3 + e L W <.<.7.7.a.p.5 b v.v.v.v.] ~ y 8 2 - - - : : : 3 3 3 3 : @ p F Y 4.q.e.7.a.6.w ^ c.c.c.c.@.",
"g...t ; - : , 3 : : : : : , : & a.4.z d L e.7.7.*.e ^ k.v.N.B.v.k.g.y ; - ; : : : : ; : : : : & a.4.N p L e.q.q.R i ] c.b.N.B.c.",
"g.v.h ; = : 3 : ; - - - : - - & 4.7.<.z L 1.<.<.v e h ` o.o.g.] k.b.u ; = : 3 : ; - - - : - - & W 7.<.d v 1.<.<.R e J ` o.+.+.] ",
"....r ; - : : ; ; ; : - - - - & d S <.W N S L L v e t / m.M.v.g...` r ; = 2 : : : - - - - : - & n S <.<.v x L L R e t ` b.m.f.+.",
"h r 6 2 - ; : - - - - - - - & @ e d z z z z v v z 0 6 i J u J h y t 5 ; - - ; ; - - - - - - & @ e d d x d z S W b 0 6 i J u u y ",
"6 6 4 2 # O # # & & & & # @ + X 1 0 0 0 w w e w 5 = ; 8 r r 8 6 6 5 2 2 = + # # & & # # # O o X 9 5 0 0 0 w w 7 : * : 6 r r 8 6 ",
"= - - # @ @ # # # o X o O * % % > * * % @ * < : < * - 5 5 5 ; = - - - # @ # # # # O X O $ * > > > > > * # & < 1 1 - , , 5 2 - # ",
"- - ; : : : 3 3 3 & * n N E S 1.6.6.7.N e +.v.f.c.+.` y t 5 ; = - ; ; : : 3 3 3 3 & > M E S S 1.7.a.a.N 8 &.c.c.v.&.` h r 5 ; > ",
"; 3 3 : : : : : : - 1 6.N d d 1.t.7.q.B b k.k.f.N.v.k.` u 2 ; - : 3 3 : : : : : , > q q.N p z w.t.7.4.m b k.v.v.N.N.g...u 4 = ; ",
"; 2 , : ; - ; : : & 7 6.6.N z <.q.4.<.d f } k.&.c.&.&.c.` 5 ; ; : : : ; - - - ; - & w a.4.B k 1.1.q.F i b } +.} c.} g.b...4 = ; ",
": : : - - - - - ; & 1 S 1.1.W S L S v z i J &.M.g.o.o.g.J 4 = ; : : : - - - - : - # 1 x 1.1.<.B L L L d r J &.m.m.g.` &.J , = ; ",
"- : - - : - ; ; - $ > n z c N B z L v z 6 r y u K h h t 6 4 = = : - - - : - - - - # > n d z z B z S S i 5 r y h u y y t 6 2 = - ",
"& - - - - & $ & # o $ 6 q e e e i i i 0 ; 6 r t t 8 6 6 6 2 , @ # > - & & & & & # X % 0 6 0 e e e e e 5 - 6 r t r 8 6 6 5 4 ; @ ",
"@ @ # + o O @ # $ + $ > > > % = > * # # $ ; 3 3 5 , ; , 5 4 : % & & * # o O @ @ & $ $ > > > % % * $ # # # ; : 7 5 ; - , 5 5 4 > ",
"M M M e : / &.+.k.` ^ y t 6 ; = > - ; : : : 3 3 5 - @ i W W W <.3.3.7.N 7 ] %.k.v.+.^ h t 6 ; = > - : : : : : 3 : - # n F F Y 4.",
"e.3.3.E i k.c.b.N.N.c.&.` 5 = ; - 3 : : : : : : : - : p.S d d 1.e.7.1.N i %.c.f.N.m.c.+.u 6 = ; ; 3 : : - : : : : - 1 a.Y m k q.",
"3.5.5.x i ..k.&.k.k.k.g.s.6 = = : : : ; - - - : - > 1 a.<.z z L 3.1.<.d f ` %.} b.g.g.g.d.6 = ; : : : : - - - : : & 9 7.4.S k U ",
"<.R R x i J ..f.f.&.&.&.` 6 = ; : : : ; - - - - : & 1 N 4.4.L S <.S W x r ~ &.f.v.+.+.g.[ 4 = ; : : : - : - - - ; & , B 4.q.Y B ",
"z L L x 8 r y K ` u u y r 2 = ; : - - : - - - : > # > i B B B B z S v d 6 8 b J ` u u y r 2 - = : - - - - - - - - * > e N z z z ",
"i f n 8 , 6 6 t r 8 6 6 5 5 ; # # & & & & & # # @ o o 0 0 0 0 e e e e 1 = 6 6 t r 6 6 5 5 2 ; @ # & - & - $ # # + X O 9 0 0 0 w ",
"7 0 5 < # 4 5 6 5 3 3 3 2 ; - + + # # O + @ O O O O @ * * % % 1 1 , > & # 4 4 6 5 2 2 5 : - - # O # @ O + @ @ @ @ @ @ * & & 1 e ",
"+.] e.y y r 5 ; & - - - ; : : 3 : : & * e M N W S W W W i 1 T ] +.+.] J t r 5 2 & - - - : : : : : : - * e W S W E 5.5.6.n b k.c.",
"v.N.m.g.` J 6 ; - : : 3 3 : : : : : - 0 u.N B z w.3.3.<.b b g.b.v.m.m.c.] ~ 6 = - : : 3 : : : : : : - 7 u.x d z w.1.3.1.z ^ +.c.",
"+.v.g.g.g.o.6 = - : : : - - - - : - & w u.4.S z 1.5.1.<.f f ` ..+.c.s.k.g...6 ; - : : : - - - - - : - 7 3.5.R x :.<.<.W d h ^ &.",
"g.g.g.o.g.` 6 = - : : : - : - - - : & 5 S <.<.S S W S N d t u ..v.g.....g.` 5 = ; : : : ; - - - - - & 9 N 3.5.W v L L v i b ~ k.",
"..k.u / J r 4 = - : : - : - - - - - # 1 n z v N x v L S d 6 r y ` [ ` u h 8 4 = ; ; : - : - : - - & & 1 d x v N d v U L p 6 r y ",
"t r r 6 6 5 5 ; @ # > - - # & # & & o * 9 7 7 e e e e e 5 > 6 r t r 8 6 5 5 2 , + # & - - - # # & # o # 7 w w e e e e e 1 : 6 8 ",
"5 5 , - - 5 6 6 ; ; > ; - # o o O O o O - > > > < * @ > > 1 e i i 8 e 5 - 6 8 8 1 , : , - # o o O O O @ - - - > > # $ * 1 9 0 e ",
"N d B 0 8 ^ ] o.] / h t r 4 = # & - - : : 3 3 3 : @ > n N W S <.<.<.7.e 8 ` o.+.&.^ J y 8 2 = = - - - : : : 3 3 : O > N W S W 4.",
"t.t.7.d *.g.b.b.B.v.o.` y ; ; ; : 3 : : : - : : : * e 6.N d x e.w.1.1.n ~ v.c.v.B.v.g...y ; = ; : 3 : : : : : : : # n 6.N d c w.",
"3.<.W n b [ g...g.o.g.b.J 2 = ; : : : - - - - ; - & n u.<.z z 1.<.4.S i h ` g.o.k.&.k.v.u 2 = ; : : : - - - - : - # n 7.<.N c 1.",
"<.S v d t ! ..b.b.......t 2 = ; : : : - : - - ; - & w N <.R S S L L S i t / g.m.f.&.` &.t ; = 2 : : : - : - - - - # e N <.S L c ",
"v L L n 8 y J ..` u u u 8 = = : : - : - - : - - & # 9 n v N N z c <.S i 6 t u [ ` u ! y 6 2 - ; : - : - - - - - - + 0 p c N z z ",
"d d f 6 : 6 r t r 8 6 6 6 2 ; + & - & & & & # * @ X > 7 6 w e e e e e 1 ; 6 r r r 8 6 6 5 2 ; o & & & - & & & # @ X > 0 0 q q e ",
"* > , , - 5 5 8 6 4 ; ; ; = @ @ & # & @ O X   o $ % * > > * > % @ % > - > 5 6 8 6 2 - ; - = # @ & & # & O X   o $ * * 1 > > * $ ",
"T c.c.v.+.` u y 6 2 - - - ; : , 3 3 : 3 : @ w W F 4.q.q.7.a.7.0 / v.v.v.c.` h y 6 2 = > - ; : 3 : : 3 3 , $ e E <.<.<.3.7.a.a.w ",
"+.c.v.v.N.%.` ` r 2 = ; : 3 3 : : : : : : - E 6.B m L w.7.7.4.e +.v.v.v.N.k.` ` r ; - ; , 3 : : : : : : : > 6.4.d d L e.1.5.4.e ",
"^ +.+.g.c.%.g.b.t = = ; : 3 ; - - - - : - < 6.6.B k L 1.1.<.S e ` +.&.g.c.%.k.v.t = ; ; : : : - - - : - - < 6.u.v d v 3.1.<.S e ",
"h ^ k.f.k...s.g.r = - ; : : - - ; - - : - > m <.1.S S S L L S i y ` f.m.&.&.&.+.8 = = : : : : - - - - : - > d W 6.S S S L v S e ",
"8 y u [ u u h t 5 - = - ; ; : - - - - - & % e n z z z N B S B 0 8 y J K u y y t 6 ; = ; - - - - - - - - # % e d m B m B v v z w ",
"5 8 t t r 8 6 5 2 2 = # & - - - - # # # @ @ 9 e e e e i i i e , 5 8 t t r 6 6 6 2 ; - # - - - & - & & & @ O 9 q e e e e i i e > ",
"# ; ; 5 4 , ; ; - = O o o O O o X X X     X O @ $ @ # * $ @ @ X # - , : ; , ; - & # o X o o O o X         X o O @ @ $ $ @ @ + X "
};
