/* XPM */
static char *_b8c1ead4c2f4e9dac1bf5c7847fe6dd3CQHLNrTLjl94pzF[] = {
/* columns rows colors chars-per-pixel */
"64 64 209 2 ",
"   c #1F0E02",
".  c #210F02",
"X  c #241102",
"o  c #2C1503",
"O  c #2F1904",
"+  c #301703",
"@  c #341A04",
"#  c #3B1E04",
"$  c #351C08",
"%  c #3A1E08",
"&  c #311C15",
"*  c #3E2005",
"=  c #3E2109",
"-  c #3C241A",
";  c #3D2924",
":  c #461F05",
">  c #5D1C0F",
",  c #452304",
"<  c #492505",
"1  c #4D2904",
"2  c #44240A",
"3  c #4B260A",
"4  c #4D290C",
"5  c #47280D",
"6  c #502607",
"7  c #512B05",
"8  c #512609",
"9  c #5C240B",
"0  c #532B0A",
"q  c #5A2E0B",
"w  c #55300C",
"e  c #5D310C",
"r  c #4D2C11",
"t  c #492A18",
"y  c #542E11",
"u  c #5A2E14",
"i  c #562712",
"p  c #563011",
"a  c #5C3313",
"s  c #59331C",
"d  c #622B0C",
"f  c #682B0E",
"g  c #76290E",
"h  c #63350D",
"j  c #66380E",
"k  c #6B3B0E",
"l  c #723E0F",
"z  c #622310",
"x  c #7A2C12",
"c  c #762914",
"v  c #623614",
"b  c #663916",
"n  c #653916",
"m  c #693B17",
"M  c #6B3C15",
"N  c #653B18",
"B  c #6B3D18",
"V  c #683D19",
"C  c #6D3E18",
"Z  c #6D3E19",
"A  c #6B3319",
"S  c #713F11",
"D  c #713E18",
"F  c #723F18",
"G  c #713F18",
"H  c #753718",
"J  c #452D24",
"K  c #482D26",
"L  c #4E3223",
"P  c #5B3929",
"I  c #503423",
"U  c #402E35",
"Y  c #46333C",
"T  c #513A3D",
"R  c #543835",
"E  c #633B22",
"W  c #623F32",
"Q  c #6F401A",
"!  c #6E4011",
"~  c #734211",
"^  c #744212",
"/  c #7A4613",
"(  c #7A4612",
")  c #7E4813",
"_  c #7E4914",
"`  c #7D4914",
"'  c #72411A",
"]  c #76451D",
"[  c #74431B",
"{  c #78471D",
"}  c #78451B",
"|  c #79481F",
" . c #77481E",
".. c #6A4229",
"X. c #6C4226",
"o. c #744322",
"O. c #794921",
"+. c #794727",
"@. c #6B4534",
"#. c #6E4838",
"$. c #664235",
"%. c #704737",
"&. c #704831",
"*. c #724C3C",
"=. c #795036",
"-. c #4D3943",
";. c #4C3B4A",
":. c #483749",
">. c #513A40",
",. c #473A56",
"<. c #513F5D",
"1. c #493E64",
"2. c #433F72",
"3. c #5E444A",
"4. c #524052",
"5. c #674643",
"6. c #765145",
"7. c #654C5B",
"8. c #6A4B51",
"9. c #4F446F",
"0. c #5B4969",
"q. c #494174",
"w. c #4C457C",
"e. c #46427F",
"r. c #574A79",
"t. c #5F5073",
"y. c #614E6A",
"u. c #664E63",
"i. c #65516D",
"p. c #655065",
"a. c #614F77",
"s. c #BA1E0F",
"d. c #842511",
"f. c #852B15",
"g. c #8D2912",
"h. c #922A14",
"j. c #9B2715",
"k. c #8D3B1C",
"l. c #86371A",
"z. c #96371A",
"x. c #A42313",
"c. c #AB2313",
"v. c #B62314",
"b. c #BA2113",
"n. c #B72D19",
"m. c #BA2B19",
"M. c #B4331D",
"N. c #BB311E",
"B. c #8C3920",
"V. c #A83720",
"C. c #CD1B0E",
"Z. c #C7180A",
"A. c #DC150A",
"S. c #D31A0E",
"D. c #DD190E",
"F. c #C31F15",
"G. c #D21D13",
"H. c #DB1C11",
"J. c #EB0C02",
"K. c #E70D05",
"L. c #E51006",
"P. c #E31309",
"I. c #EA1108",
"U. c #E5140A",
"Y. c #C32214",
"T. c #CA2315",
"R. c #C22B16",
"E. c #C42618",
"W. c #C22A19",
"Q. c #C92619",
"!. c #D32213",
"~. c #C1371C",
"^. c #804A14",
"/. c #834C15",
"(. c #814C15",
"). c #854D15",
"_. c #834C14",
"`. c #884C14",
"'. c #894E15",
"]. c #8A4619",
"[. c #874918",
"{. c #884E18",
"}. c #844715",
"|. c #99481B",
" X c #8D5116",
".X c #A7441F",
"XX c #8B4222",
"oX c #874622",
"OX c #954425",
"+X c #815333",
"@X c #3D46AE",
"#X c #3F46A6",
"$X c #454282",
"%X c #4A4683",
"&X c #45448D",
"*X c #49468B",
"=X c #524C8B",
"-X c #554C82",
";X c #464693",
":X c #4D4A92",
">X c #44469C",
",X c #4A4A9B",
"<X c #45499E",
"1X c #555193",
"2X c #4246A5",
"3X c #4549A4",
"4X c #4147AB",
"5X c #4149AB",
"6X c #494BA1",
/* pixels */
"+ 4 w e e w 4 1 < , + @ # # @ # , * , * * o O 5 p p p p p r r # $ 0 e j e w w w < , @ @ # # # * , , , , * o O r p a p a a p p = ",
"^ ).).).).) ~ ! h 3 < , < 1 7 7 1 1 7 7 1 * a Q Q Q Q  .} | | N / ^.).).)._ ^ ! d 6 < , < 1 7 7 1 1 7 1 1 = a  .Q Q ' } } | O.a ",
"~ _ ).). X^.^.^.j < : 3 1 7 1 < 1 < 1 1 , 2 Q  .V V Q [ ] [ ' v / ^.^.). X)._ ^.j < < , 1 7 1 < 1 < 1 1 < 2 Q [ N N M } ] ' Q a ",
"! / ` ` ) ) ^.).k < : < 1 1 < , < , , , , 2 !  .' M M Q ' ' V v ! / _ _ ` _ _ ).k < : < 7 1 < , , , < < , 2 Q  .Q ! V ' ' Q C v ",
"e ^ ^.`.^.( / / h : , < 1 1 < , 3 , , , , 2 a V ' Q M M C ^ C a h l ( `.^./ / / e : < < 1 1 , 1 < , , 1 * * a Q [ ' V M D D D v ",
"7 e k k k j h e 0 < : , , , < , , , , , # @ y v v v N N N m V 0 0 h k j j j h e 0 < : : * , , , , * , * * * p a v v v N n m N 0 ",
"1 e e h d q q q 6 6 , o @ * * * # # @ @ o o 2 y 0 y y u u u 4 2 < q h h e q q 0 7 7 , O * * * * * O O O X o = r r y y y 0 u 4 % ",
"4 w q 0 < , , , : , # * * , * + X % % 5 5 5 r 5 5 = O 2 0 w w 4 0 q q 0 < , , , * * * * * * * O o = 2 r 4 r r 4 5 % * M ~ ^ / M ",
"^ k k 0 3 , , < 1 7 7 7 7 7 7 , r Q Q V ' ] } } | N j ).).).).^.^ k k 0 < , , 1 1 7 7 7 7 7 7 * r [ G B C } } } O.m M ).).). X^.",
").}.( 0 , , 1 7 1 < , 1 1 1 1 * N O.Q n M [ [ ] Q N M _ ^.). X).).^.( 0 : < 1 7 1 < , < < 1 1 * N O.Z b B ] ] ] ' v M ( ) ^.`.^.",
"^.^.( 0 < < 1 1 1 < , , , < , * a  .] C M [ [ D Q v n ^ ) ) ^.) ^.).( 0 < < 1 1 1 , < , < < , * a o.] B M F F ' C v n ^ ^.^.^./ ",
") ) l 6 : < 1 1 < , < , < 1 , * u C D F D C D D M n h l ) `.)./ ( ( l 6 : < 1 1 1 < , , , < , * p Q D ] C D D D D b h k ( _._.( ",
"j h q 7 2 : , , < < , , , , * @ r a n b n n n C M a 0 q ! ! k k j h q 8 < : , , , , , , , , * $ 5 v v n n n m B n a 7 e h j j h ",
"q 0 0 6 , O + # * @ * @ O O O X % 5 5 r r y y 4 1 2 % 0 e e e q q 0 8 1 , o @ # # # @ @ o o o X % 5 5 5 4 r y 5 2 : # < 7 0 6 7 ",
"2 1 6 8 2 = = * * o X $ * 2 , * * < 2 : @ # * # @ @ # , 7 7 1 * , 8 0 y 5 5 2 2 , O X # , 2 2 < , 3 < : @ # # # $ # # # * , # + ",
"p Q ' ' [ [  . . .p ! ).).)._ / S k e 6 2 , < < 1 7 7 7 7 7 7 O N C Q [ [ ] } O. .p ~ ).).).)._ S M h 3 , , , 1 < 7 7 7 7 7 0 + ",
"o.[ M n C } [ } D a ^ (.).). X`.(.(.S : : < 7 7 1 1 , 1 1 1 1 * O.[ V n D ] ] ] D a ^ (.).). X).(.^.k < < < 1 7 1 < < < < 1 , * ",
"Q  .[ M C [ ' D C a M / ) ) (.( _ `.S < : 6 1 1 1 , , , , , * * Q ] [ M C ' D Q C a M / _ _ _ / ) ).S 6 : 1 1 1 < , < , < 1 , * ",
"N Q ' Q C C D D C v j ^ (.`._.( ( ( j < , 1 1 1 < , < < , 1 * * n Q ' ' C C D D M a j ~ (.`.`./ ( ( j : , 1 1 1 < , 1 , , 1 , * ",
"a N V m m m C D B w q h S l l k k h q < : , < , < , , < , , * * a n m n m m V C m u q j k l k k j h q 3 , , , < , , , , , * * O ",
"5 r 0 u u p p p 0 2 3 q h h e e q 0 7 3 # + # # * * $ @ + + o X 5 r 4 r y u y 0 1 % 3 q j e e q q 0 0 6 # + @ * * * * O O O O . ",
"4 4 3 , $ * # , # * * 3 7 8 1 # < 0 u u 0 y 0 4 5 $ @ 2 0 w 0 4 8 0 4 2 % # # # # # , 3 7 7 1 * < q p a u u p 0 4 O = w e e e w ",
"l k e 6 , , , 3 < L >.4.4.R I + a Q [ [ [ ] ] O. .0 ! ).).).(./ k k h 6 9 x h.h.x f 1 7 7 7 1 @ v Q Q [ ' ] ] |  .p / ).).).).` ",
") ) k < : 3 1 7 T ;X2X@X#X2X&XY +.[ m n D ] ] [ ' a ^ ^.).). X`.^.^.k c C.U.L.J.P.C.f.7 < 1 < = O.[ N b D ] ] [ Q a ~ ).(.'. X(.",
"(.).k < : < 7 T %X@X2X4X@X@X@X&X7.+.[ V C [ ' ' C v M ( ^.( ^./ ^.).].b.K.L.I.J.J.J.C.g.9 3 , , [ ] ' M C [ [ D ! a M ( ) ) ^./ ",
") / j 3 < 1 I ;X@X@Xw.:X@X@X>X#X@X,X8.X.Q C D ' C a j ^ _.'.`.^.) ].C.J.J.E.Q.J.J.A.L.J.D.d.8 * N C ' ' C C D D M N j ^ _.'.).( ",
"l j q 3 , , -.@X;X4X@X@X@X@X*X5X@X5X,Xr.@.V M ! m y q j k ^ l M k g.U.S.U.J.J.J.J.C.A.J.L.D.b.z a N V m m m V D M u q j l l l k ",
"q 0 6 6 # O ,.@X%X2X@X4X@X@X5X@X@X:X,X=XR P a w y : < q h h h q q g.J.Y.A.J.I.J.J.L.J.J.G.F.G.> s u r 0 u u a 0 4 = < w h h e q ",
": < , # @ @ ,.@X@X@X5X2.@X@X;X5X@X5X3X; ; 5Xe.4.r * < 4 0 8 < : 3 d.J.J.J.J.v.P.J.S.P.J.I.D.c v H.F.f.2 @ 2 5 4 4 , 3 6 7 6 , # ",
", , < 1 1 7 T 5X@X@X@X5X@X@X:X@X@X@Xt.Q 3.5X@X3Xi.+./ k j 0 < : , g P.J.J.J.L.J.J.S.P.J.J.W.H OXU.J.U.m.H (.).).).) ^ M j 8 < , ",
"< 7 7 1 1 1 L ;X@X>X&X2X@X@X4X@X@X@X*.X.@.i.3X@X3Xa.6./ ~ 7 < < < d C.J.P.T.P.J.J.J.J.J.I.B.o.XXM.H.J.U.R..X).). X).^./ S 8 : < ",
"1 1 1 < , < , T *X#X<X@X5X<X5X@X5Xi.5.,X=X*.=.p.6X@X@Xi.| 0 : < 1 7 x s.P.D.L.L.S.L.J.I.N.l.G.!.OXXXV.A.J.K.~.[.)._ (.`.( 0 : < ",
"1 1 < < , , , , L $X4X@X2X1X2X@Xt.@.-X@X@X,Xu.=.6.=X4X4X7.y : < 1 1 < d v.U.J.L.F.A.J.E.B.N.J.J.A.M.B.k.W.U.K.~.|._ ( ^.l 6 : < ",
"1 < < < 1 , 1 , , U 2.2X4X4X4X6X5.%.2X@X@X@X6X-X%.@.-X@X:XR : : 1 , , < f c.A.J.K.K.P.B.+.D.J.J.J.P.E.B.c m.J.H.z.k k h q < : , ",
"* * , , , * , * # o $ P w.2X4X0.W %X@X@X@X@X@X@X3Xr.;X4X@X<.3 @ # , * * , % 8 c.A.J.j.A b.J.J.J.J.J.J.P.b.F.J.J.M.h q q 0 6 6 @ ",
"O * @ + o O @ @ $ @ % < t :.2.K 2.4X@X@X@X@X@X@X@X@X4X4X4X2.4 % * * * * o O $ : c c.i x.P.J.J.J.J.J.J.J.J.J.J.J.R.1 , 3 0 0 3 2 ",
"N ! N a 4 ~ ) ) _.( ^ k h w s K ;X4X4X4X@X@X@X@X@X@X@X@X@Xt.C ' [ ] ] V y ^ _ ).{.].].G.J.J.J.J.J.J.J.J.J.J.J.J.m., $ V Z Z G o.",
"[ ]  .Q M ^.^.).`.'.`.( ( 0 , 2 -.2.4X@X@X@X@X@X@X@X@X@X5X5.m [ } ] [ C v (.).).'.).{.|.R.P.J.J.J.J.J.J.J.J.J.L.g., 4 | G N m [ ",
"[ [ Q Q v ( (.( `.(.(.(.) q < : 8 y <.2X@X@X@X@X@X@X@X4X0...m ' ] [ ' m v / ) / (.(._ /.`.j.D.J.J.J.J.J.J.J.J.c.d , 0 o.[ M b F ",
"Q Q Q N v S ( _.(._ _ ( ( 9 : < 1 3 r :.*X@X@X@X@X@X@X:X#.] D C ' D M m v ~ ) ).)._ _ ( / q d.b.J.J.J.J.J.J.S.g < * 5 m ' ] ' C ",
"M ' D m p h M ^ / l l k h < : : 3 < , < < ;.e.&X&X$X1.E N m N m m D D m q d M ~ ( ! ! k e 6 < : f.s.Z.Z.s.x.q , , @ 2 a M M V V ",
"a N v a 3 q h h h e q q 0 0 3 # @ * * , * * - - ; & O r y y u a p a u 0 , 0 e h d q q q 0 7 3 @ @ < 9 9 8 : # @ @ o O r p y y p ",
"w u 4 1 : 6 6 q w 1 7 1 6 1 , + @ @ @ O @ $ $ $ @ O @ = : % = 5 5 1 2 * # 6 6 0 7 7 7 6 1 3 , @ @ # @ + @ $ $ @ $ + $ = = * 1 p ",
"_ / ^ ! h h 0 3 * , < , < 1 1 7 7 1 , * a N V ! C Q Q Q s 0 ! / _ ) / M k j 0 6 # , , , 1 1 1 1 7 6 , % v B C ' Q ' [ [ N M ).).",
").'.'.^./ ~ q < , 1 1 1 1 1 1 1 1 1 , y  .Q N N } } [ ] m k ^.).). X'.(./ S q : < 3 1 7 1 1 1 1 1 1 , w ] V n m } ] ] [ n ^ ^.^.",
"( _.^.^.^./ q : , 1 1 1 , , , , < , , y [ [ C m [ [ ' D n n / ^./ ).(.(.`.( q 3 , 1 1 1 , , , < < < , p ] [ ' m ' [ ' ' n M / ^.",
"`.(.^.( ^.^ q : < 1 1 , 1 , , , < < , 0 C ] ' C C ' D M m v l ( `.(.( ( _ ^ 0 : < 1 1 1 < , , , , , * 4 C ] [ D D D C C n k ~ ^.",
"( ^.^ ^ l h 8 : , 1 1 1 , 1 < < , , # 5 n M C C m C D D n q h M ^ ( ^ ^ k h 8 : < < 1 , 1 , 1 , 3 , # 1 n V M V m m D M b e e k ",
"h j e q q 0 7 3 + # , , * , * # * * o = r w w a a a a a y < q h j h e q q 0 0 < + * # , , , # # # @ o # w p p w a a a p 4 8 e e ",
"q 6 3 < 3 8 q q 3 3 , 3 , # o o O O o O 2 2 < 2 2 = * 2 5 5 u e v v p 0 , q e w 4 < 3 3 , # o o O o + @ * , 2 2 2 * = = 5 r w p ",
"V M m u w / / ) ( ^ k j d 6 , # * , , 1 1 1 1 7 1 O = a C Q D ' D [ [ a e / ) ) ^.^ S k e 6 : : , , 1 1 1 1 7 7 1 O 2 N C Q ' [ ",
" .] ] n ~ ^.).). X^.^.( k 3 < , 1 7 1 1 1 1 1 1 1 = a O.m n C } } ] ] v ~ ).).). X).(.^ l < : < 1 7 1 1 1 1 1 1 1 * a O.V n M ] ",
"] ' D n M / ^.) _.) ^.).~ 6 < < 1 1 1 , < , , 1 < * N [ [ M M [ ' ' C v k ) ) ) ^.) ^.).l 6 : < 1 1 1 , < , , 1 , # N ] [ C B [ ",
"' Q C b v ~ ^.`._.) ( ( j < : 1 1 1 1 , , , , < * * p V [ Q C C D D C n h ^ ^.`.).) / ) j < : 7 1 1 1 < < , , < , # p V ' D D B ",
"M D D n e j ~ ( ( l ( k d : : < 1 , , 1 1 , * 2 * O w N M M V m B D C v q j ! ( ^ ^ ~ k q 6 < , < , < , < , , * , + y N M M m m ",
"n m n q 8 e h h h h q q 7 6 3 + * , * * * * * * * X = p p p p v v v a 3 1 q h j d e q q 0 6 < O # , , * * * * * @ X = 0 u u u a ",
"= 2 < 3 , 1 q e 0 6 < 3 , , # + * * @ @ o X   o $ $ % 2 2 = = # + % 2 2 , 4 0 q 0 6 3 < , : # @ * * * * O . . O % = 2 < 2 2 = % ",
"! /./.).).( k j d 6 : , , < 1 1 7 7 7 7 1 * p Q [ [ ] ] ] O.] u ^ ).).(.(./ ^ k q 6 < : , < 1 1 1 7 7 7 1 = s Q Q Q [ ] o.O. .p ",
"_ /.).).).).) ( h 3 : , < 7 1 1 1 1 1 1 , *  . .N b D } ] ] ] a _ ).(.`. X).( / h < < , 1 7 1 1 < 1 1 1 < 2 o.Q N n D } ] ] [ a ",
"/ _ _ ) )._ ^.`.j < : 1 1 7 1 , , , 1 < , 5  .Q D b D [ [ ' C a / _ _ (.(.) ^.).j : , < 1 1 1 , < * < < , 5 [ ] ' m D [ ' ' C a ",
"M / (._.`.( ) ^.h : < 1 1 1 < , 3 , , < , < N C [ D C C D D C a k / ^.`.^.) _ _ h : : 1 1 1 1 , , * 1 , , < N C ] ' C C Q C M v ",
"q j ^ ^ l S M j 0 : , , < < < , , , < , # = a N m m m m B C M u q k l S l k k j 0 : : < 1 , , < 1 , , , # # a N m m V m M D m u ",
"0 q h j h q q 0 0 6 : + * , , , , # # # @ @ y p a a v v v v p 3 0 e k j h q q 0 7 3 , O * * * , * * * * + @ r u p a a a a v p 3 ",
"# 3 6 0 7 6 < , : : O o O O O o X X X     X O % @ @ % % $ @ @ o # , < < 3 3 < < * * o o o O O O X .     . X O + $ @ @ % $ @ + X "
};
