/* XPM */
static char *_ce00d58252e4a189df9bc825c1f3142oNuRHr4OKfAwGnsj[] = {
/* columns rows colors chars-per-pixel */
"64 64 128 2 ",
"   c #171719",
".  c #1C1C1D",
"X  c #1F1F21",
"o  c #1F2021",
"O  c #232324",
"+  c #282725",
"@  c #2B2927",
"#  c #262629",
"$  c #28272A",
"%  c #27282B",
"&  c #2B2B2C",
"*  c #302F2D",
"=  c #31302F",
"-  c #2E2E31",
";  c #302F32",
":  c #2F3034",
">  c #333334",
",  c #383635",
"<  c #3A3936",
"1  c #363639",
"2  c #38373A",
"3  c #37383B",
"4  c #3B3B3C",
"5  c #403B37",
"6  c #403E3C",
"7  c #3F403F",
"8  c #43413E",
"9  c #3D3D41",
"0  c #403F42",
"q  c #3F4044",
"w  c #434343",
"e  c #494643",
"r  c #474846",
"t  c #4B4946",
"y  c #454549",
"u  c #49474A",
"i  c #47484B",
"p  c #4B4B4B",
"a  c #514D47",
"s  c #514E4B",
"d  c #4F504D",
"f  c #54514E",
"g  c #58544D",
"h  c #464551",
"j  c #4D4D51",
"k  c #4D4F53",
"l  c #4D4D56",
"z  c #4C4C52",
"x  c #4E4F58",
"c  c #4F4F59",
"v  c #524E50",
"b  c #524F54",
"n  c #514F52",
"m  c #535351",
"M  c #555150",
"N  c #545353",
"B  c #565453",
"V  c #575553",
"C  c #505054",
"Z  c #535154",
"A  c #535355",
"S  c #535257",
"D  c #535252",
"F  c #585654",
"G  c #595653",
"H  c #5B5852",
"J  c #515159",
"K  c #525259",
"L  c #56565D",
"P  c #57575D",
"I  c #55545F",
"U  c #56555E",
"Y  c #55545B",
"T  c #585658",
"R  c #59575A",
"E  c #5C5958",
"W  c #5D5A5B",
"Q  c #5A585C",
"!  c #5A585D",
"~  c #59585E",
"^  c #5F5D5F",
"/  c #5C5A5C",
"(  c #605D5C",
")  c #625E5D",
"_  c #69605E",
"`  c #565563",
"'  c #595760",
"]  c #595661",
"[  c #585861",
"{  c #5A5964",
"}  c #5B5A64",
"|  c #5A5B65",
" . c #585866",
".. c #5C5B64",
"X. c #5C5C64",
"o. c #5D5E67",
"O. c #5B5A63",
"+. c #5C5C6C",
"@. c #5C5C6D",
"#. c #5F5E6D",
"$. c #5C5B6B",
"%. c #615F64",
"&. c #625E64",
"*. c #626062",
"=. c #666263",
"-. c #666267",
";. c #676465",
":. c #656064",
">. c #696566",
",. c #6D6667",
"<. c #616068",
"1. c #626169",
"2. c #60606B",
"3. c #66636A",
"4. c #61616C",
"5. c #63626F",
"6. c #6B666B",
"7. c #6E696D",
"8. c #6E696E",
"9. c #6E686C",
"0. c #616070",
"q. c #626170",
"w. c #6E6B72",
"e. c #736D71",
"r. c #736F75",
"t. c #736C70",
"y. c #706F7D",
"u. c #7F7679",
/* pixels */
"p ~ P P P X.o.1 w 4.U 1.A 1 8 p A / *.w.r.:.y U ! p > e ) %.>.s u e.7.6.3.1.y.> 9 #.` ..S & 1 y z J  .q.0.@.h @. .y % 9 `  . .w ",
"9 ' 4.4.P p S 1 > u p w w * 6 t p f p e r v v 7.g t * w V V p w 6 A :.;.N p e 8 ; y y w w > 1 w i p y w 9 3 9 J 9 1 O 9 p i q q ",
"4 y p k p i p 4 O p p v p 2 , w p e w 6 < > ; e e , & 6 E W C e 4 e p N f r p 8 o y p s p 1 > w w w 0 2 > > > q 0 > % 9 l l z 9 ",
"3 y q w p w w 9 O 8 t f s > & w 6 4 2 6 w 6 < 8 e e ; p ( V s e > p r w r r r 7 o 8 e s p > & 4 1 > > 4 4 2 > 2 9 4 & 9 y h y 9 ",
"& 9 4 4 9 4 1 $ . > < 4 < O $ * & & @ 2 , , = > , ; X * < w w 4 O < < < 2 < & O   & > 1 > X O & & $ # - & : & & - % X % 1 1 1 : ",
"- & - 1 - O & 2 1 > 4 9 > ; - > X.m d p u p & 4 e > , , = > = 1 , > > 0 4 & & w w 0 y y 9 2 1 ; ' l z i z x & 9 y > > > : > 9 9 ",
"i w y P I > > q 0 p A p p w 9 4 / d f w e S 4 F ,.s w 4 4 5 e s p s f :.;.2 > 4 4 w y w 9 9 4 1 l p z y 9 i 1 y J h 9 3 4 3 9 9 ",
"w r p f w & - 4 9 y y 0 w 0 2 > n f C p p u > 6 p w < w e 8 8 8 e s f g r & & 2 w w y w w 4 1 - z p z i y q - 1 w 9 3 4 q 9 4 1 ",
"w t p p q > 4 > 2 4 9 9 9 4 > - r f n d p w $ 2 w r 4 1 w 8 8 5 8 s s s 8 , w > 1 2 4 w 4 1 > & 9 y h q q 9 o 9 9 9 9 : 9 9 3 1 ",
"4 4 8 4 2 & 1 % & > > 4 > - & O 2 q q 7 7 3 O > 1 4 4 & 1 8 5 < 5 6 6 5 < & > & O & = 1 > & # O : 9 9 9 9 9 o : - 1 > # - > 1 1 ",
"1 = > & & O % & X O & - ; & $ O & > > > 1 > O & = 1 1 + @ * > > > , > * & O & & O O & - ; & & $ : - : - : 9 % : 1 3 ; # & 1 > - ",
"9 p i y 4 1 < > : w i w 9 & 9 w e 4 & O w :.t.u.&.s r 4 p d s 8 , A F M w 4 8 2 > i j y y - 9 0 9 9 : X 9 h ` @.` h w 9 i i u 9 ",
"p p p y w w w 4 % w z z y 2 w e w 8 8 & w p C A C p p d C M s w 0 e t t t e t 6 & 0 z z i 9 9 y w q 4 & 9 9 h l z q y h z c i 4 ",
"< 8 w w w w w 4 & 4 y p u 9 1 0 w w 4 @ 4 w p p p w w p p u e 6 > 8 t t t w w 4 - 9 w i y 3 ; 4 q 9 2 $ 9 9 9 q q 9 9 9 9 9 9 1 ",
"> 8 w w w 9 9 3 & 9 4 q 9 3 & 1 w 9 2 o 4 q w w w 4 4 q 4 9 w < * 8 e t e w w < - 9 9 9 3 1 $ > 4 4 1 . 9 9 9 9 9 9 9 : : 3 9 > ",
"> 2 2 4 9 w 3 - O > > 1 1 > + & % & + . 1 4 4 1 : & & & - & - & @ < 5 < 4 6 > # O > > > > ; # $ # O O . - : 9 - % # % # # % - O ",
"2 4 4 : & 7 4 > > q w 4 & 2 v 1 > * 2 2 2 > 1 w y . & p b u y 0 6 e t 4 & 8 w 4 4 w p p > 3 h 9 3 1 9 9 9 : 9 h l X 1 ` @.y 0 0 ",
"p w w 4 1 4 w p p r p C 4 < 4 w w 6 w w w w 6 w w & u &.( p a a s 8 t 5 4 w t H H C f p 4 1 4 w 9 4 9 0 9 9 : : 9 # 3 c z y z i ",
"w 8 7 1 1 7 w p d p p p 1 > 8 p w q e p t r w 1 > + > w f s p a 8 e 8 8 < 8 t f f p f p 2 > w p 9 9 y i y 0 9 > # X - 9 h i y 0 ",
"q 4 7 , & 2 7 r w 7 8 p 1 1 7 w 2 4 e p p p r 8 & . = w u p t t e 8 8 4 > 8 8 t e 8 8 r < 1 4 w > 9 w 0 y i 0 9 - X $ 9 0 0 y 0 ",
"w 4 4 1 > 7 4 8 9 9 4 4 > & 3 3 * < 8 0 e w w 8 > O > 8 8 w e 8 8 8 8 , < 8 8 w e 8 8 8 > - , 2 & 2 9 4 9 4 9 3 > X - 2 9 9 9 4 ",
"1 : * & & 1 2 1 > > > > # O & O O ; 4 4 1 & > > > O & < 4 5 4 < = 4 > * > 7 7 < 4 1 = > # ; & X O > 3 4 > & - > - O & 1 3 2 1 ; ",
"= 7 1 : > 3 4 3 z w $ & 9 z w o 4 u M ! u & > w w 5 5 t f s a 4 * w 5 < 4 7 7 7 S w O = i S b + y z ` ..l & 2 e j w w S P Y i 9 ",
"1 3 3 1 3 7 q q q 1 & > y y i 1 w u p p A < 5 t f f s a f s 8 8 ; 4 w 6 7 r w w w 7 * < e p w 1 9 y u u i > 2 w p j u w w w 6 2 ",
"> 3 3 1 : 1 1 1 1 1 % 1 8 w 7 * , < 9 4 < > > 8 g g a t a t 8 8 * 4 8 < > < < < < 2 & 4 e 8 0 - , 4 4 2 , * > 8 p p w q w 8 7 1 ",
": > 3 : & # % : : 1 % % 1 1 1 O ; > > > = & = 8 e 8 < 1 < 4 8 4 @ 2 < 1 * O & : 1 > @ & 4 < > o * > > > = @ & 7 7 2 > > = 1 1 > ",
": - : 1 : % o o + : o o & : & . # & & ; = + + , & > = > 1 > 1 < + 1 , 1 > : & O & , + @ > > & + : & @ > > O + * O & - - - 1 3 : ",
"h z z z x ` $.y : P p r r d p / ! e * 0 t e 8 = O w p d p j f s A / A / ~ *.6.f < ) g g f H N ) W r > 4 p r 8 , + w h x z z i i ",
"z k z i q y h h + d f d f r w w 6 4 1 & = 4 7 < * p C C f p p p f S f p r r f w = H H g H a t a 8 8 < , < 8 8 4 - i z h y y y q ",
"i q q q 9 9 9 9 + r p r w w w t w 8 > * = , < 7 % w r r p p p r p p w r w 8 r 4 * s g a a 8 a a t 8 , , < 5 5 < % q q h q q q q ",
"q q q q 9 9 9 1 o w w 7 7 w w i w 8 > * = , , < & w w i r i i w w w p p r 0 8 , @ s t 8 8 t a a a 8 = < 5 5 4 1 % q q q q q q 9 ",
"4 1 : 3 9 - o - . 4 3 4 4 4 4 > 2 3 % @ , = , = O : > 1 3 4 3 2 < 1 2 4 4 - + & + < < < < , = , = = O = < < 4 > . & : : : : : - ",
"4 w q 9 9 9 0 & X i i p y + O * , 9 y i z y 2 w w t & < ! ) / r 1 C p r w p Y & @ &.z M v * @ 5 e t v b v u 2 l I 0 $ 2 U o.R u ",
"8 C x K j e S 9 + 0 0 7 w = & w u p e e w w u :.F w = < d f f 4 5 f F F f f g 8 5 5 0 a a > , a M g s a a 6 0 ( a 0 * 6 p p 9 1 ",
"4 w y p p w w w # 2 8 p p < * 6 r e w w < > & r e < = > p p d w 8 t f f f f f e + e a H g 5 , e s a t e 8 , = a a < * < i i p 9 ",
"2 i y w y w w w O 4 w f p 2 & 4 w 4 < , 2 6 < 8 e w > 7 d f t 8 < s t t t a a 8 @ 6 g H g 5 ; a e 6 5 5 8 8 6 e t 0 * 0 p p y 4 ",
"1 4 w 9 9 9 1 ; . > < 8 6 & O > & & & > < < > > 2 1 @ & 8 r r 8 @ 8 w w 8 8 4 & . , 6 e 6 + + , * * @ > < < > , 4 = o & 4 8 4 1 ",
"< & > : > $ O - & & 1 2 > # & O j p w 4 2 w & * 4 & @ = = = & > > * * = > + & 1 > 5 6 0 < < = * &.G f p p p & 2 w = = > 1 > 1 2 ",
"i q 9 w i > # 9 9 0 p p y w 0 * ~ p p y r C 1 w p r 4 < 5 8 8 a f t t g a 4 = 8 0 t M a a e 8 < W V V f s s 1 a F t 8 8 8 4 5 r ",
"w w p p w > O 3 9 0 i w 0 9 4 ; p p d p p w 1 < p w < 7 e 8 8 8 e f g H t = = 8 e a s t t e 8 = V V H H g a > 8 s w 7 8 e 8 w 4 ",
"w w r p w 1 & : 3 9 9 0 0 9 1 - w p p z p w : > 0 w w > w 8 8 8 8 a g f 8 < , > 8 8 8 e 8 8 5 * s f V V f r & 5 e r w 1 8 8 8 2 ",
"w 7 7 7 < : & & % : ; 3 1 - - X 1 q w 9 q 4 % > 1 4 4 & > 8 4 8 8 8 8 8 4 = = = @ > < 5 < , & + 8 e e 8 e 4 $ > < 5 < & > 5 4 < ",
"4 1 > > > & $ & o # % > ; - - X - > 1 1 3 - o O * > > % O = > > , 4 , = * + @ * O % = < > > * @ > > , , 2 > $ & 2 2 2 # & 1 1 = ",
"4 4 2 1 1 & > 1 O 9 9 9 9 $ ; y 4 > & X 1 w y i Y j w 4 8 p t r * 8 t 8 8 < 7 4 * w p w w & 0 t e 5 > O w p s C R s e w t s p w ",
"7 w w w 8 7 7 w $ 3 w i y 1 > w w q 4 * 3 i z b j z y p C s a 8 < t a t a t t r & w p m d 4 8 g t t 8 = t g V F N p p C V M s 4 ",
"4 7 q q w q 4 4 % 3 9 h y 9 > 4 8 q 4 % 1 0 y i i w w y p u e 0 = 8 8 t t t e 7 * 8 r d p w , 8 t t 8 @ 8 r p s p w r p p w w 4 ",
"1 4 q w w q 4 9 $ 3 9 q 9 9 - > 4 7 2 O 1 3 9 w q 4 0 9 2 q 0 6 & 8 8 t t e 8 4 * 8 7 w w 4 = 4 8 e 8 o 8 w r r w 8 q 4 4 4 7 1 ",
"> < 4 4 4 9 9 : O : 1 : 1 1 - - - & $ . - 9 9 9 > - & - - > 1 ; + 5 8 8 8 8 4 & O 1 < 4 2 1 & = @ + o . 2 4 8 1 = & & & - > : & ",
"4 : > 1 % 3 9 1 - 3 9 3 : # 1 : > & : 2 1 & > 2 i o + w b y y 4 = < 8 1 & w w 4 2 8 w w ; ; t 0 4 > 0 u 0 , 4 s z X > `  .p y 0 ",
"r w 7 7 : < q r i i i i 9 - 4 q w 4 4 w w 4 1 2 w & 4 ` / p t t t e w 8 < 8 t N E N M f 4 < w s t w e a p e 6 4 0 # 4 Y v p p t ",
"w 7 7 2 : 4 q q p p p p 4 - 4 y w 2 w u y w q 1 - + & w p p t t w 8 8 5 < 8 t g f s g f 4 , e s e w t f s s e 4 * O ; e s p t y ",
"r 7 4 2 & 1 3 q w 4 4 w 9 & 9 w 2 1 w y i p i w :   & w w p t e e 8 8 4 = 8 8 t e w 8 p 2 , w r 4 w a a s f s e ; . * e y u u w ",
"r 4 9 1 - 3 9 9 9 9 4 9 3 % > 3 & 1 4 4 q w w 4 1 O & 4 9 w w w 8 8 8 < , 7 7 w 8 w 8 8 1 ; < < * 5 e 8 e e e 6 2 X = 8 w w w 6 ",
"w 1 1 : - 1 1 1 > 1 - > & o % # X - 1 4 > & > 1 > O & < 4 4 < < > 4 1 > > 4 7 4 4 < > > $ & & O O 2 0 6 2 * ; 4 1 + & 4 4 4 , > ",
"4 3 1 - - : 9 1 9 9 % O : 9 3 # O 1 9 w 2 + & 4 9 4 1 w w p w 4 & q 3 1 < 7 q 4 w 4 O & 4 e y + e M ) ) e # < s f r r N W / v 9 ",
"4 3 3 1 1 3 9 9 9 9 - & 9 0 0 1 : 9 q y w 4 = w p p r r p p e 4 & 4 4 4 4 q w w w 4 = < r p w > 6 a s a t , < a g V f t t t w 2 ",
"9 : 9 : : : 9 % : : - - 9 9 9 - > 3 3 9 3 - * 7 t d t r e r 8 7 & 4 4 3 : > 1 < < 4 & 1 w 8 6 : 2 5 6 5 4 = , a f f r e t w 8 2 ",
"9 : : 9 : # X 9 : : - % : > 1 X - : ; > > - @ 4 w 7 2 1 1 < 4 2 + 1 3 1 : O % * > 1 & & 2 2 2 o & > , < , & & 8 w 5 , 1 , < 4 1 ",
"9 % 9 : : % % # # : % O - - - X & + % & - $ . > & & : & * : > : O > : > : - % O @ 1 & + = > > @ * & + = , + @ * + & > > = 1 4 > ",
"h 9 9 9 h 9 9 9 # h w q 9 i h h i q : > 1 2 2 > O q w i i p p y p p p n k n n r = N f f f d p C f w > 5 a 8 8 4 # p v C j p i i ",
"q c h q 9 9 9 9 % w p p p w w q 7 4 3 * > 4 4 2 & w p k h i i y z p h i w w i q * s M g f e t t w 8 < = < 6 8 5 & i z z p i i y ",
"q q q q 9 9 9 9 $ w u y y w w w w 4 1 & = > 1 4 % 4 q y y y y y w y y y q 7 w 4 # t p t r e e s t 8 , , < < 6 6 & q y h y y y q ",
"9 9 q q 9 9 9 3 X 9 y 0 9 9 q w w q 1 : > > > 1 % 9 q y 9 h y 9 w w w i w 4 4 3 O e w w e e e u r w , > , < 2 < & q 9 h q 9 q 9 ",
"q 9 9 9 9 9 O >   3 9 3 3 3 9 9 9 4 % + : * > 1 # % 1 1 9 9 1 > 9 3 3 9 3 : X & . 3 > > > > > 3 1 > O & > > 1 > X & : 9 9 9 1 1 "
};
