/* XPM */
static char *bf1b58d4ca074541bc103926576f63ecS2VDyz4pmor0SQlT[] = {
/* columns rows colors chars-per-pixel */
"64 64 35 1 ",
"  c black",
". c #66CC66",
"X c #33CC33",
"o c #00CC00",
"O c #009900",
"+ c #669966",
"@ c #33CC00",
"# c #003300",
"$ c #336600",
"% c #006600",
"& c #339933",
"* c #339900",
"= c green",
"- c #66FF66",
"; c #33FF00",
": c #333300",
"> c #663366",
", c #669933",
"< c #CCFFCC",
"1 c #CCFF99",
"2 c white",
"3 c #99FF99",
"4 c #FFFFCC",
"5 c gray40",
"6 c #CC99CC",
"7 c #FFCCCC",
"8 c #33FF33",
"9 c #99FF66",
"0 c #336633",
"q c gray80",
"w c #99CC99",
"e c #CC9999",
"r c gray60",
"t c #66CC33",
"y c gray20",
/* pixels */
"                                             .  XooOo           ",
"                                            +@ooo@ooo           ",
"                                                                ",
"      #$#          %#          $#          $#   %&%*%O#$#       ",
"     %% %%        %%%         %%%         %oo%ooooooo=- %%      ",
"    #%   %#        %#          %#          O=.##    =;   %#     ",
"    %# % #%        %%          %%          %%       == % #%     ",
"    #%   %#        $#          %#          $#      :oX   %#     ",
"     %% %%         %%          %%          %%      Oo%% %%      ",
"      #%#        %#%#%#      %#%#%#      %#%#%#   &o  #%#       ",
"                                                  oX            ",
"                                                 .o             ",
"                   >                            ,               ",
"                   <                                            ",
"                   1                                            ",
"  OXOo=;o          <#         #%#         #$#         #%#       ",
"  ooo=oo=%        %1%2<1<    %% %%       %% %%       %% %%      ",
"    #% oO%#        3-3-31   #%   %#     #%   %#     #%   %#     ",
"    %# =o#%        145      %2333-2     %# % #%     %# % #%     ",
"    #% @%%#        <#       #%567-<     #%   %#    ##%   %#     ",
"   ,.8=o==oOX&     <%        49-3-<      %% %%     # %% %%      ",
"O@OoOo===@OoOo0  %#<#%+q<w   542234       #%#         #%#       ",
"                   <<33---   w<339                              ",
"  #                <qqe6     5r                                 ",
"                                                                ",
"                                                                ",
"                                                                ",
"       $#          $#          $#       #O %#         #$#       ",
"      %%%         %%%         %%%       #O%%%        %% %%      ",
"       %#          %#          %#        * %#       #%   %#     ",
"       %%          %%          %%       OO %%       %# % #%     ",
"       %#          $#          %#       OO ;oOO@    #%   %#     ",
"       %%          %%          %%       OOO==       O%% %%      ",
"     %#%#%#      %#%#%#      %#%#%#     O;#%#%#     OO#%#       ",
"                                        O#          OO%OOO      ",
"                                        OO  #%#   #@OOO@O%      ",
"                                        OOOOOOOO OOOOO&OO       ",
"                                         *O# # # #O  OOO        ",
"                                                     OO         ",
"      #%#         #$#   ##%*   %#          $#        %o%#       ",
"     %% %%       %% O=OOO##   %%%         %%%        %% %%      ",
"    #%   %#     #%   %#        %#          %#       #%   %#     ",
"    %# % #%     %# % #%        %%          %%       %# % #%     ",
"    #%   %#     #%   %#       O;#          %%       #%   %#     ",
"     %% %%       %% %%         =% OO       %=#       %% %%      ",
"      #%#         #;=oOoO@OoOo%==;=o     %#%=o#       #%#       ",
"                   OOOOOO&&   OOO&oO        oO##                ",
"                           @Oo  Oo          OoO@#               ",
"                            &   OO      #ooooo%                 ",
"                                         &% #@                  ",
"                                            #O%                .",
"      #$#          %#          $#          $#oO@OoO  o#$#      8",
"     %% %%        %%%         %%%         O==ooO&   #=% %8o%    ",
"    #%   %#        %#          %#       O@O;##O     %;OoO;=&    ",
"    %# % #%        %%          %%       .  %%#o#  oo==o-o=X     ",
"    #%   %#        $#          %#          $# O% #O.#OO@O%#     ",
"     %% %%         %%          %%          %% o%     %=%%%      ",
"      #%#        %#%#%#      %#%#%#      %#%#%=o      =8#     #8",
"                                              oo      %O      t%",
"                                                                ",
"                      y<<1---1                                  ",
"                      53-333--                                  ",
"                            3-                                  ",
"       %#         #$#       .3#%#          $#         #%#       "
};
