/* XPM */
static char *e7bc968bfd0b4ceea298a9957cb472c16VKWPYQQZ2uFXJDe[] = {
/* columns rows colors chars-per-pixel */
"64 64 28 1 ",
"  c black",
". c #FF6935",
"X c #FFD268",
"o c #006654",
"O c #00CCA8",
"+ c #33FFDB",
"@ c #FFE699",
"# c #332700",
"$ c #661B00",
"% c #664D00",
"& c #FFF2CC",
"* c #FF8A35",
"= c #FFC001",
"- c #99FFED",
"; c #CD9A00",
": c #CE8800",
"> c #9B7400",
", c #FFCD34",
"< c #FF6102",
"1 c #CE5C00",
"2 c #FFC002",
"3 c #FF3202",
"4 c #9B4100",
"5 c #9A7400",
"6 c #FFA868",
"7 c #FFB499",
"8 c #CD3500",
"9 c #FFCCD9",
/* pixels */
"                                                        .Xo     ",
"                                                       OX+      ",
"                                                       @Xo      ",
"       #$#         #$#         #$#          %#        &*=#      ",
"      %% %%       %% %%       %% %%        %%%        X@ %%     ",
"     #%   %#     #%   %#     #%   %#        %#       &@o  %#    ",
"     %# % #%     %# % #%     %# % #%        %%      -;# % #%    ",
"     #%   %#     #%   %#     #%   %#        $#       #%   %#    ",
"      %% %%       %% %%       %% %%         %%        %% %%     ",
"       #%#         #%#         #%#        %#%#%#       #%#      ",
"                              # :#                              ",
"                          #   :%$%                              ",
"                       :>:>%  %>                                ",
"                                                                ",
"                                                                ",
"       #%#          $#  ,>:%    %:          $#         #%#      ",
"      %% %%        %%% :>:;    %<:         %%%        %% %%     ",
"     #%   %#        %#        1>%# >:>1>>   %#       #%   %#    ",
"     %# % #%        %%       2>>%% 2;  :>   %%       %# % #%    ",
"     #%   %#        $#     >1>  $# >1>:>    %#       #%   %#    ",
"      %% %%         %%   ;>:>   %%    ;:    %%  >>>>  %% %%     ",
"       #%#        %#%#%%:>1>  %#%#%:>>:>  %#%#%#:>1>%  #%#      ",
"                                                            >>  ",
"                                                           ;1%  ",
"                                                           >%   ",
"                                                         >:%    ",
"                                                        >>%     ",
"       #$#         #%#         #$#         #$#       %:<3#      ",
"      %% %%       %% %%       %% %%       %% %%    %%><< %%     ",
"     #%   %#     #%   %#     #%   %#     #%   %#:>1>:#%   %#    ",
"     %# % #%     %# % #%     %# % #%     %# % #% > # %# % #%    ",
"     #%   %#     #%   %#     #%   %#     #%   %#     #%   %#    ",
"      %% %%       %% %%       %% %%       %% %%       %% %%     ",
"       #%#         #%#         #%#         #%#         #%#      ",
"                                                                ",
"                                                                ",
"                                                                ",
"         :3>,                                                   ",
"           ,:::#                                                ",
"       #%#    #     $#          %#          $#      4  #%#      ",
"      %% %%        %%%         %%%         %%%      %>%% %%     ",
"     #% 242%        %#          %#          %#      %<%   %#    ",
"     %# X:<<>5      %%          %%          %%      %<# % #%    ",
"     #%   %%X:5     %#          $#          $# #  # 4:<>1#%#    ",
"      %% %%         %%          %%          %% >>>>>>><<>:%     ",
"       #>%#       %#%#%#      %#%#%#      %#%#%%%#% %> #%#      ",
"        :::2#                                       %>          ",
"          5;3:                                      $>          ",
"             #                                  >>  %>  >>      ",
"                                                :>  %>  #>:     ",
"                                               %>   %>   #>>    ",
"       #$#         #$#          $#         #%#%>2   $> #$#%>#   ",
"      %% %%       %% %%        %%%        %% %%    >>>%% %%     ",
"     #%   %#     #%   %#        %#       #%   %#   %::%   %#    ",
"     %# % #%     %# % #%        %%       %# % #%     %# % #%    ",
"     #%   %#     #%   %#        %#       #%   %#     #%   %#    ",
"      %% %%       %% %%         %%     &  %% %%       %% %%     ",
"       #%#         #%#        %#%#%#o*@X6  #%#         #%#      ",
"                                     7XOo                       ",
"             ;            7*X2.*X2.X                            ",
"             :>           o&5OO   =X                            ",
"             >:                   5*                            ",
"            ;:8                   #X                            ",
"        %#  1>      $#          %#9.        $#          %#      "
};
