/* XPM */
static char *_3a7efae6581431c8bc687f69218f579CKl6JHsJheKre7Bw[] = {
/* columns rows colors chars-per-pixel */
"64 64 15 1 ",
"  c black",
". c #4D1A1A",
"X c #BF4141",
"o c #260D0D",
"O c #993333",
"+ c #732727",
"@ c #CC6666",
"# c #BF4040",
"$ c #CC6767",
"% c #D98D8D",
"& c #732626",
"* c #4C1A1A",
"= c #F2D9D9",
"- c white",
"; c #E5B3B3",
/* pixels */
"       .Xo       .. ..       .. ..         ..        .. ..      ",
"     .o.XOo       o.o         o.o        .o.o.o       o.o       ",
"        O+oo                                                    ",
"        +O+Oo                                                   ",
"    oOOOOO.                            OO                       ",
"     O. oO                           OOoOo                      ",
"        o+.                @@@OOOOO   #                         ",
"       .oO+O+O+  Oo.o      $OOO$#OOo       .o         o.o       ",
"      +XXOO+O   oX. .$O.      ..$Oo       ...        .. ..      ",
"    +O+Xoo+     .X+O+XXO       %X%         .o       o.   .o     ",
"    @  ..oOo  OOXXO%OX#       #X%          ..       .o . o.     ",
"       .o +. o+@o++O+.o      &OXO          .o       o.   .o     ",
"       .. O.     .X...      OO +$OO        ..        .. ..      ",
"     .o.o.XO      X$o     o$@.o.oXX      .o.o.o       o.o       ",
"          OO      .+      #.     #O&                            ",
"                                  o%                            ",
"                                                                ",
"                                                                ",
"                                                                ",
"       .o         o.o         o.o          .o          .o       ",
"      ...        .. ..       .. ..        ...         ...       ",
"       .o       o.   .o     o.   .o        .o          .o       ",
"       ..       .o . o.     .o . o.        ..        * .. %&    ",
"       .o       o.   .o     o.   .o        .o        $ .o $$    ",
"       ..        .. ..       .. ..         ..        Xo.. $X*   ",
"     .o.o.o       o.o         o.o        .o.o.o    * X+O.+$$oo  ",
"                                                 XXX$X$$$$XX$$$*",
"                                                 =%-%$    O$    ",
"                                                    ;Xo   X$    ",
"                                                    %$    O%    ",
"                                                     $*   $%    ",
"       .o         o.o       oOo.o         o.o          .o X;    ",
"      ...        .. ..      #X. ..       .. ..        ... X;    ",
"       .o       o.   .o     .X   .o  O+ o.   .o        .o#Oo    ",
"       ..       .o . o.     .X . oXOOOO .o . o.        ..#%     ",
"       .o       o.   .o     oX   .o &   o.   .o        @#%      ",
"       ..        .. ..       X. ..       .. ..         O@       ",
"     .o.o.o       o.o        OX#o         o.o        .o.o.o     ",
"                             +OOO++                             ",
"                             O   o+                             ",
"                            #O                                  ",
"                            +O                                  ",
"                            O+                                  ",
"      o.o         o.o       +O .o         o.o          .o       ",
"     .. ..       .. ..       o...        .. ..        ...       ",
"    o.   .o     o.   .o        .o       o.   .o        .o       ",
"    .o . o.     .o . o.        ..       .o . o.        ..       ",
"    o.   .o     o.   .o        .o       o.   .o        .o       ",
"     .. ..       .. ..         ..        .. ..         ..       ",
"      o.o         o.o        .o.o.o       o.o        .o.o.o     ",
"                                                 *%   ;%        ",
"                                                 &O#  ;%        ",
"                                                 *$#  ;$        ",
"                                                  ##  @%        ",
"                                                  $O  ;%        ",
"       .o         o.o          .o         o.o    &X%  %%o       ",
"      ...        .. ..        ...        .. ..   O$  .%$..  O   ",
"       .o       o.   .o        .o       o.   .o  $O o.#% .O%@   ",
"       ..       .o . o.        ..       .o . o. o$% .o$$&%$%    ",
"       .o       o.   .o        .o       o.   .o  *  o.$XO$$     ",
"       ..        .. ..         ..        .. ..       .. ..      ",
"     .o.o.o       o.o        .o.o.o       o.o         o.o       ",
"                                                                ",
"                                                                "
};
