/* XPM */
static char *_e0c626aef5143f7b6c52704e74beeb3lThebtMYlTNjlkbH[] = {
/* columns rows colors chars-per-pixel */
"64 64 139 2 ",
"   c #060200",
".  c #0B0601",
"X  c #0E0A03",
"o  c #0E0C0A",
"O  c #120D05",
"+  c #180F06",
"@  c #130E09",
"#  c #151106",
"$  c #191206",
"%  c #1A1905",
"&  c #16120A",
"*  c #1A150C",
"=  c #1D190E",
"-  c #161311",
";  c #1B1611",
":  c #1E1A11",
">  c #201706",
",  c #211906",
"<  c #281D07",
"1  c #21170B",
"2  c #231C0D",
"3  c #281E0E",
"4  c #201710",
"5  c #221D13",
"6  c #291F12",
"7  c #231E18",
"8  c #27200D",
"9  c #2B230D",
"0  c #2F280E",
"q  c #31260D",
"w  c #332A0E",
"e  c #262115",
"r  c #2B2413",
"t  c #2F2914",
"y  c #262219",
"u  c #2B241A",
"i  c #2E281A",
"p  c #312713",
"a  c #332B14",
"s  c #382E14",
"d  c #332E1A",
"f  c #332E1B",
"g  c #332E18",
"h  c #372F18",
"j  c #362E19",
"k  c #302A1C",
"l  c #322C1E",
"z  c #372E1D",
"x  c #352E1E",
"c  c #352F1F",
"v  c #332C1A",
"b  c #382D1B",
"n  c #343017",
"m  c #363016",
"M  c #373016",
"N  c #373015",
"B  c #383114",
"V  c #3A3015",
"C  c #383117",
"Z  c #3A3317",
"A  c #3A3116",
"S  c #36301A",
"D  c #37311B",
"F  c #35301C",
"G  c #37321F",
"H  c #36301A",
"J  c #383019",
"K  c #3B3118",
"L  c #3B301A",
"P  c #39331B",
"I  c #3A321B",
"U  c #3C311B",
"Y  c #3B341A",
"T  c #3F351A",
"R  c #3B301C",
"E  c #38321C",
"W  c #39331D",
"Q  c #3B331C",
"!  c #39311E",
"~  c #38311F",
"^  c #3D321E",
"/  c #3E331F",
"(  c #3B371C",
")  c #3A361D",
"_  c #3A341E",
"`  c #3D371D",
"'  c #3D351E",
"]  c #3E361F",
"[  c #3A331C",
"{  c #3F381E",
"}  c #3F391E",
"|  c #2E2A21",
" . c #332D21",
".. c #352F21",
"X. c #332C21",
"o. c #363322",
"O. c #363022",
"+. c #3B3320",
"@. c #3C3020",
"#. c #3F3720",
"$. c #3D3522",
"%. c #3F3722",
"&. c #3E3623",
"*. c #3B3525",
"=. c #3F3627",
"-. c #3C3523",
";. c #3E3820",
":. c #3B3825",
">. c #3D3824",
",. c #3E3921",
"<. c #3D372A",
"1. c #3E382A",
"2. c #413C1F",
"3. c #403424",
"4. c #413B21",
"5. c #403A22",
"6. c #403C21",
"7. c #433C20",
"8. c #433E21",
"9. c #423C22",
"0. c #443F22",
"q. c #423A27",
"w. c #423C24",
"e. c #433D2D",
"r. c #433C2A",
"t. c #454023",
"y. c #444027",
"u. c #464026",
"i. c #474127",
"p. c #464028",
"a. c #46402A",
"s. c #484228",
"d. c #48422A",
"f. c #49432B",
"g. c #4E432F",
"h. c #49432C",
"j. c #4D4731",
"k. c #4F4931",
"l. c #504A30",
/* pixels */
"2 r 8 r 6 1 2 r r r 2 3 3 < 9 a s S G :.o.i i r r t *.O.1.e.g >.G a p S t S Q 9 t t S Q a 3 9 2 G 9 3 8 2 9 w t 0 w r r 9 r 8 r ",
"a z r r 6 2 < p a 9 v 6 > r a V B 0.t.,.( ( ) s 0 N ;.a.i.f.i.6.Q ;.2.Q a 9 a a r Q $.=.@.v t a q.$.a 9 w a w N B b Q 9 a h S r ",
"r r , 9 r r t t r 6 6 6 3 3 a s a 2.6.6.6.N a ` Y t 9 P 5.a.6.i.g.$.h a a a ) g N Y ) G h w a Z -.^ Q Q V a a t w a p p a s w 9 ",
"3 a r 2 % r r 8 2 2 $ 1 = = r r k k k | f i i r r r 5 r i  .e o.=.r r e r r G u t t z t 3 8 t 9 e 3 9 a t 8 3 = 2 2 1 3 3 < 9 ^ ",
"9 g i 8 . X o * O . & X . & & O # & X X & # X : # O ; * . & o . X o @ X X X X X   o & o   @ @   + & X O # X . * X @ $ . * 2 p z ",
"t S g i X & & ; @ * : * @ * $ $ $ = * * = o X y 6 5 * * & o & o o - & - o - o o o - o o o - @ - & - & & # & o - & ; & X e v O.r ",
"8 h f 3 . : * . = 5 & & ; & ; u = X * & o = = O # 5 & * & X . - o X & - X @ @ @ = $ O O & @ $ 5 O O * - o & * X : 7 & O 6 h a r ",
"s h h u O * * : * * = = = 2 * : * ; ; & * % * : $ = * & & ; & - # o O X & & + & = $ & @ X @ ; & & & @ o o o # % # 2 5 $ i s a 0 ",
"r < a e & o $ i * & = % * : * X & u * O : % & y * O : : $ = & & @ o X o & o o ; 5 * * & X @ ; * - & @ @ @ & @ ; # & u & 5 p p r ",
"2 2 p 5 & * & * ; * # = : O * 7 : $ 5 # X : : # & : & & 5 * & : - o & = o & - X = y X O 5 @ @ : @ O 5 & X 5 7 O 2 : & $ 1 2 r r ",
"= 9 t = X : = * ; * e e & @ @ * * ; $ = e = & & ; & & * * ; = 2 $ # o o @ @ @ @ = * * = : = * & * 1 & 7 ; * 7 4 * = * @ 2 3 p 2 ",
"1 2 r 5 * : * y & & u : @ ; * . & y & $ u % # e * & 5 $ O 5 5 O * = O O * @ @ ; O # : * * e 7 O 4 6 $ 6 y O $ 7 $ * 7 O = 6 6 2 ",
"* 2 < 6 * 5 * & ; : * = : @ @ & X # 5 % $ e = # o : & * 5 * $ 4 = = : : O O ; X @ ; O # e 6 2 5 * 1 7 1 $ 4 + * e : ; # + 3 % r ",
"4 p < 2 O e 5 @ : ; % = * & * = o # = = = e = O * # & 5 r = = 5 : e 6 5 = & $ O ; : : 5 = : = : & $ 4 & O = = = = : & # 2 6 r < ",
"k 0 0 r O * = 7 $ & y = @ : : * : 5 # = : $ * : & O 5 5 * 6 7 @ 5 r = 5 u = = u = ; X.2 X u e X * & @ * 5 = = e # X o . r a b < ",
"r V s a O = 5 * = : : ; * @ $ = = = : % o * $ * * 5 $ * 5 1 = & = * $ 5 2 2 u 5 : $ O $ = e 5 $ @ & @ - 5 6 = = ; & & X r K a s ",
"a a Y u $ e r = 6 u * 5 : X = 5 = * | * X e * & & & & * 5 - @ y r * 7 y * 5 y $ @ : @ & ; $ * 5 * O 4 6 2 u 6 = u * @ X i s V g ",
"a t.8.k O 1 e ..= $ y 5 O * * X & : * & : * # ; @ & : O & * ; & e e $ $ r * O 6 & O y = X r * @ & 4 + 5 7 2 6 e * @ @ O r 5.q.+.",
"h ;.w.o.O $ 6 y : ; : - @ * * & & @ & @ & * & * : & & & & $ = 1 5 1 2 5 2 & O * 7 = 2 7 5 = = 1 ; 4 4 5 5 = * * O O @ O t w.w.) ",
"f 5.w.o.@ y 6 O 5 ; . * ; X & 5 * @ 7 : @ : ; & * 7 # X y y $ 5 $ + e u * = 7 $ 5 u # r u * 2 7 O @ 5 + * y ; * r 5 @ @ i w.w.*.",
"O.;.) X.& 7 4 4 & @ & & * : = # & 5 @ & * O - @ & * O & y u = # : = & * 5 * * 7 1 6 6 = = 2 2 @ * * $ & 5 & $ y u : ; o O.} -.G ",
"z S g X.@ & $ 4 X @ ; $ * u y X ; 4 @ @ - @ & & O @ * & O y e X = * O & 4 & + 7 5 1 7 = = = = $ - * O ; 5 O * : & * - X i ) G t ",
"r Y } r . 5 5 O * & O = 5 = : * @ X ; & - : @ @ & ; & @ = $ & : @ @ * * + & * $ 7 4 2 7 e * * : O @ : $ $ 6 5 X * & o   6 ) -.t ",
"r P K 5 O 4 6 5 * * % : e = : # O @ & = & $ : 5 * & ; * @ & & * & & @ & = 4 * 5 & = e 3 e : = = ; * = = 5 $ * 2 : @ o X r } ) 8 ",
"t Y a 3 $ * 2 3.5 $ u 7 : 5 * . @ : X * e # & y $ o : e & = ; # 7 i O & : O X : & o u 5 & 5 t O $ i # % y # & 5 ; & ; O u ) s 3 ",
"3 0 N k X y r $ k X.+ + : $ * & o . 7 1 # 5 = O * ; O % e X # : * ; : # O * : & % & & = = . O : = # 5 = % 5 & & * * & . 3 r t +.",
"8 0 } O.@ y u 1 i 7 * ; * & & $ @ O - 5 & * * & = = * * ; & & : * X : & * 5 : & : * 5 = = = # : & = : = * : : & @ & - O 2 s q.G ",
"i S w.O.; * = u 1 1 i 4 X ; * X & ; O : 5 # * : * # ; - X * - $ ; @ @ & 5 5 O 7 & X y & X y : O * 5 X = y # & : $ & ; & r S e.z ",
"f ;.a.*.X = O * 6 7 5 = $ @ $ & @ & ; = = : * O & $ o * * X # & & o * : * * * * * # = * = = = = 2 $ $ * * * * # * # o o i >.h.r.",
"f w.l.=.@ : = @ i u 4 = 5 O & ; & O $ @ & : * $ = ; & $ = & o * X & $ : # * : O 5 * = * 5 = # 2 * = 5 * & y 5 X * # o X i a.j.1.",
"u } i.k @ # & & 1 6 7 & & ; * & 2 * O & - $ * 7 * & = & # ; & & ; * # # * * = ; * o : & $ : # # 5 = * : 5 * * * # $ ; X r w.a.F ",
"*.i.w.-.O * * : $ 1 4 = $ * & = = : : ; ; ; : ; & & & * $ * : # * $ = ; : ; * ; * * ; : ; $ = * 5 * & * = & & ; * & - X o.a.w.;.",
"w.s.q.t o : : & = = # = : X & : & $ u 2 * 7 = # ; = X # e * * : * & y 5 & 5 e # r e O 1 6 O = i * & : @ O = & & e & o X :.h.;.S ",
"t Y $.r * O * e * X y = # : - X 4 e # * 4 O = y : # = = * e ; X * 5 $ & y ; O y = $ 6 = O 5 : & 5 ; & = = = : = $ & ; & i ) ;.t ",
"r N -.a X ; - : $ o ; = # $ $ & ; * * * $ @ * : : = * = * * : # * * & * : = * % = = e = $ * = $ = = * & = = # # O * & X r a ;.F ",
"r s -.a X : : O * : X ; 5 X & e & O u y & : * # = : o & : & * ; & & * : # = y o = e # 5 e @ ; : - # 5 = o & % O = * - X i a N a ",
"r 9 K r @ & * # * & & - * * * ; ; @ = 5 * * - = $ & = & # * * & * : & & = & * 5 * = e = * : : # & : * : * o : y * X ; # 2 0 a 0 ",
"f r g a @ & @ * & X ; & O ; = $ - = $ * ; & & * * & ; ; o & % # - = & * = & & y = & : = & * * & & : % * : : : y = & ; O t t a F ",
"o.s h g X : - & ; ; & & $ * : = * * 5 = * : & & * : o * ; o * & * # : : # - = $ 5 = # = * o $ : * O y = O 5 5 # r e * O O.Q t S ",
"t S S 2 X * ; & * @ O @ @ & & & o * = * $ ; - * = * & & * : & = & $ : & * * & * % : & # * * * : % : = # % $ @ & * = # X i a a r ",
"S a r t * O ; 2 O @ - @ + $ O O = 2 O $ 1 O = 7 * & : & O e y # 5 5 & * = # X : # & 5 & X * = o : * X - : & # ; & X : o i N 0 t ",
"S K K 9 # : 5 $ 5 7 @ & : @ & : O = X.4 + 7 = $ = : O * y # & : * * 5 : & : e O = : # % * & * 5 & # ; * & * & o % = & - F Y S 0 ",
"G Q 5.a @ 5 $ 5 u + & 7 7 = & - @ 5 6 2 7 5 & & * # * * * = % & # y y # = : : & * & & - & & & ; & * = # X & - X ; = $ o f Y w.g ",
"G S q.k O - $ u ; + 4 @ & 7 & . : 7 O 7 l ; & 5 # o = & o : : & : : & # y # # 5 & & ; & & * o @ : : = : ; O $ ; @ # ; X f K $.G ",
"r h ` r O 5 = = u 1 X + = @ @ ; & * 2 5 $ & & & * = X & : o & e & # = = & & : & * : & & : & * : = * r = $ : : & - % X o e s G t ",
"9 a 9 r * : = * i O O ; * O $ 7 * 4 y 4 1 4 & - & * * % = $ * : # : 5 - & = = # * ; $ * ; * * 5 = = : = = : : * ; * - . 3 a r r ",
"v a 9 2 O * * r = + 4 @ O 5 5 @ ; 1 * 5 4 $ + - # O y = o y y # = : & = e # . 5 ; o 5 = & : * # y e # : y $ * y @ O y X t s r 8 ",
"p s V % O : : $ ; : ; @ $ 2 5 & ; + 1 6 4 * ; o o = $ # * = : % @ & % : # = = - * : % = * * * & * * ; $ * ; * $ @ * & X r Z s 2 ",
"r ` r.u o e 2 O 7 2 $ 5 5 5 5 6 = % y 5 = 5 * X & : & & y $ & : & X = = $ 7 5 O y 5 # * 5 $ # 5 # * : ; # = = # = * o @ e ( y.F ",
"r V q.r o O * 5 & $ 7 $ + i 6 + = = = 5 5 O & * & X 5 - * 5 5 o * : O = 5 * * 5 & # = * * e % # * = o * : o # : O O = # e n ` i ",
"a B a 3 o & * * & * = = 1 5 5 = ; - ; $ & * * & * * ; * # $ : $ & & ; : = = : = & & # & * * % o * & * * & = & * - & = # r V a 3 ",
"a A 8 2 & ; o o ; ; & = 5 = 2 5 $ & * o X : ; & ; 7 @ @ = o = e @ o e 5 # = : $ & : o & * * * * # $ : % # : : # = & @ O t Z 0 2 ",
"a s a , @ . & ; @ O : & @ 7 5 % * : o $ * X * e & & & o # * # : & 5 @ $ 5 & & = & X - * o : : & * : # * = & * = & X * . k s w 9 ",
"9 s s 8 X # & * & @ ; # & : ; $ $ - & o & & ; = & X o @ & * o # O = $ ; : * o * & & & * $ ; = * * * & * * * & = * * * O r w w r ",
"2 q a r o 5 $ o * * & & : O * = & X * o . ; : O & ; X ; ; & & * + O y : & ; * X ; 5 o $ e & * : # o = # O : = & ; 5 & @ 2 w w r ",
"9 q s 9 @ * * * & X : & & $ & & - & X o - & = $ & & ; - X o X - = k e # & & * ; & * ; $ * ; $ & - * # # & # * = * = ; @ 6 w N 0 ",
"9 w V r X & * = & - 5 * * 5 ; * * o X X * ; & = $ = & & @ : 5 & 1 7 6 5 @ & & 5 * * 5 = @ * ; & * : X & - & & 5 $ % 5 # % a a w ",
"2 9 C r . - ; O * = # = 5 # # y * O = = X * : # $ : ; & O * * : & 6 r 7 O & ; @ : : ; * * : * ; o & * o X * # # * ; & X 8 t Q a ",
"2 s K t X - & $ # o $ * * * * e : * ; : * & & : : : : - * & & $ 5 u 7 5 * - ; : = * = * * & & : & # : = # : : * - - - O 6 a s r ",
"2 r p 8 O X X 1 o O ; X . * # . X @ X @ - & X ; & o & o X X & . & 1 O O & O O * o X & @ o @ @ . @ .   & O # $ % . @ * X 3 b w 8 ",
"a 3 p a e 6 e r 6 6 > 5 e 2 2 k i G O.f  .i u 2 e f  . .1.<.i *.r p g i r k k 9 0 8 F z r r 3 , | i = 8 < r r r 3 a 9 2 p q s 9 ",
"r w p q t r v b r v a 3 , r s a C } i.t.) S ( K a N } a.h.l.a.i.q.` ` K h a s a a K $.;.Q t r s y.( w 0 q s q a V N p w s q s 8 ",
"6 a q 1 9 9 r h w $ r e , 9 q Z C 6.;.q.;.a S ;.Y w 9 S ) w.` w.j.$.s t a r a K w Z N V V w a B ` K s s s s 9 s a 8 a p s a a r ",
"5 6 4 1 2 9 t a 6 2 1 ; 4 5 t t r h t f +.G r r p r 2 i i ..r *.r.a r r r g =.t k Q G ..r 3 h r r u a z a 6 r 3 < 2 < r 9 , a % "
};
