/* XPM */
static char *_fc8d89318e64b3abf584a34789c47ef2cKdQeiNWSlJ0cOW[] = {
/* columns rows colors chars-per-pixel */
"64 64 2 1 ",
"  c None",
". c black",
/* pixels */
"                                                                ",
"                                                                ",
"                                                                ",
"                                                                ",
"                                                                ",
"                                                                ",
"                                                                ",
"                                                                ",
"                                                                ",
"                                                                ",
"                                                                ",
"                                                                ",
"                                                                ",
"                                                                ",
"                                                                ",
"                                                                ",
"                                                                ",
"                                                                ",
"                                           ...                  ",
"                                         .....                  ",
"                                      ........                  ",
"                                    .........                   ",
"                                  ...........                   ",
"                                .............                   ",
"                              ..............                    ",
"                            ................                    ",
"                         ..................                     ",
"                       ....................                     ",
"                     .....................                      ",
"                   .......................                      ",
"                 ........................                       ",
"               ..........................                       ",
"             ...........................                        ",
"           .............................                        ",
"           ............................                         ",
"            ...........................                         ",
"             .........................                          ",
"                ......................                          ",
"                   ...................                          ",
"                       ..............                           ",
"                        .............                           ",
"                         ...........                            ",
"                         ...........                            ",
"                         ..........                             ",
"                          .........                             ",
"                          ........                              ",
"                          ........                              ",
"                           ......                               ",
"                           ......                               ",
"                           .....                                ",
"                            ....                                ",
"                            ...                                 ",
"                             ..                                 ",
"                                                                ",
"                                                                ",
"                                                                ",
"                                                                ",
"                                                                ",
"                                                                ",
"                                                                ",
"                                                                ",
"                                                                ",
"                                                                ",
"                                                                "
};
